<svg xmlns="http://www.w3.org/2000/svg" xmlns:xlink="http://www.w3.org/1999/xlink" width="76" zoomAndPan="magnify" viewBox="0 0 56.879997 65.04" height="76" preserveAspectRatio="xMidYMid meet" version="1.2"><defs><clipPath id="8316d1bcef"><path d="M 2 0 L 53.664062 0 L 53.664062 54.691406 L 2 54.691406 Z M 2 0 "/></clipPath></defs><g id="d393c9802e"><g clip-rule="nonzero" clip-path="url(#8316d1bcef)"><path style=" stroke:none;fill-rule:nonzero;fill:#0a4732;fill-opacity:1;" d="M 46.960938 13.164062 C 42.769531 8.613281 37.078125 5.804688 30.941406 5.261719 L 30.871094 6.054688 C 43.316406 7.152344 52.703125 17.417969 52.703125 29.929688 C 52.703125 43.03125 42.136719 53.710938 29.078125 53.894531 L 29.078125 38.335938 L 28.285156 38.335938 L 28.285156 53.894531 C 15.273438 53.65625 4.761719 42.996094 4.761719 29.929688 C 4.761719 29.648438 4.769531 29.367188 4.777344 29.085938 C 4.902344 29.09375 5.050781 29.097656 5.21875 29.097656 C 6.125 29.097656 7.632812 28.949219 9.53125 28.195312 C 12.347656 27.078125 16.609375 24.355469 20.914062 17.710938 C 29.140625 5.015625 27.859375 0.476562 27.800781 0.289062 L 27.710938 0 L 27.410156 0.0117188 C 27.265625 0.015625 23.824219 0.144531 19.503906 1.375 C 15.503906 2.515625 9.996094 4.863281 6.476562 9.554688 C 2.808594 14.449219 1.964844 20.90625 3.96875 28.742188 L 3.996094 28.835938 C 3.980469 29.199219 3.96875 29.566406 3.96875 29.929688 C 3.96875 43.585938 15.078125 54.691406 28.734375 54.691406 C 42.386719 54.691406 53.496094 43.585938 53.496094 29.929688 C 53.496094 23.699219 51.175781 17.746094 46.960938 13.164062 Z M 7.109375 10.03125 C 13.015625 2.148438 24.90625 0.972656 27.089844 0.820312 C 27.199219 2.003906 27.058594 6.769531 20.25 17.28125 C 16.082031 23.707031 11.996094 26.347656 9.300781 27.433594 C 7.152344 28.292969 5.527344 28.332031 4.820312 28.289062 C 5.21875 22.300781 7.796875 16.773438 12.1875 12.585938 L 11.640625 12.011719 C 7.585938 15.878906 5.027344 20.855469 4.234375 26.285156 C 2.984375 19.710938 3.949219 14.25 7.109375 10.03125 Z M 7.109375 10.03125 "/></g><path style=" stroke:none;fill-rule:nonzero;fill:#0a4732;fill-opacity:1;" d="M 30.960938 32.09375 C 29.328125 33.539062 29.421875 35.75 29.425781 35.84375 L 29.441406 36.125 L 29.710938 36.203125 C 30.328125 36.378906 30.917969 36.46875 31.476562 36.46875 C 32.347656 36.46875 33.148438 36.253906 33.867188 35.828125 C 36.082031 34.519531 36.742188 31.6875 36.769531 31.566406 L 36.859375 31.160156 L 36.449219 31.089844 C 34.035156 30.667969 32.191406 31.003906 30.960938 32.09375 Z M 33.460938 35.148438 C 32.542969 35.691406 31.453125 35.816406 30.222656 35.519531 C 30.257812 34.9375 30.453125 33.597656 31.488281 32.683594 C 32.460938 31.828125 33.933594 31.53125 35.875 31.800781 C 35.621094 32.582031 34.917969 34.289062 33.460938 35.148438 Z M 33.460938 35.148438 "/><path style=" stroke:none;fill-rule:nonzero;fill:#0a4732;fill-opacity:1;" d="M 26.207031 27.886719 C 26.535156 30.042969 28.445312 31.160156 28.527344 31.207031 L 28.769531 31.347656 L 28.984375 31.160156 C 30.21875 30.089844 30.871094 28.847656 30.925781 27.464844 C 31.023438 24.894531 29.003906 22.808594 28.917969 22.71875 L 28.625 22.425781 L 28.34375 22.730469 C 26.679688 24.527344 25.960938 26.261719 26.207031 27.886719 Z M 28.628906 23.597656 C 29.148438 24.238281 30.199219 25.75 30.128906 27.441406 C 30.085938 28.507812 29.601562 29.488281 28.683594 30.363281 C 28.21875 30.023438 27.199219 29.136719 26.992188 27.765625 C 26.796875 26.488281 27.347656 25.085938 28.628906 23.597656 Z M 28.628906 23.597656 "/><path style=" stroke:none;fill-rule:nonzero;fill:#0a4732;fill-opacity:1;" d="M 27.929688 36.125 L 27.941406 35.84375 C 27.945312 35.75 28.042969 33.539062 26.410156 32.09375 C 25.179688 31.003906 23.332031 30.667969 20.917969 31.089844 L 20.507812 31.164062 L 20.601562 31.570312 C 20.628906 31.6875 21.285156 34.519531 23.5 35.828125 C 24.222656 36.253906 25.019531 36.46875 25.890625 36.46875 C 26.449219 36.46875 27.039062 36.382812 27.65625 36.203125 Z M 23.910156 35.148438 C 22.453125 34.289062 21.75 32.582031 21.496094 31.800781 C 23.4375 31.53125 24.910156 31.828125 25.878906 32.683594 C 26.917969 33.59375 27.109375 34.9375 27.144531 35.519531 C 25.917969 35.816406 24.828125 35.691406 23.910156 35.148438 Z M 23.910156 35.148438 "/><path style=" stroke:none;fill-rule:nonzero;fill:#0a4732;fill-opacity:1;" d="M 20.300781 37.957031 L 22.925781 41.273438 C 24.03125 42.664062 24.703125 44.503906 25.355469 46.28125 C 25.59375 46.933594 25.839844 47.605469 26.101562 48.230469 L 26.832031 47.925781 C 26.578125 47.316406 26.34375 46.679688 26.101562 46.007812 C 25.425781 44.171875 24.730469 42.273438 23.550781 40.78125 L 20.921875 37.464844 C 20.058594 36.371094 18.484375 36.15625 17.363281 36.957031 L 14.8125 29.636719 C 14.523438 28.796875 13.652344 28.320312 12.789062 28.527344 C 11.898438 28.738281 11.332031 29.613281 11.496094 30.515625 C 11.496094 30.515625 12.507812 35.738281 12.511719 35.777344 C 13.039062 38.5 13.996094 40.980469 15.355469 43.144531 C 16.0625 44.269531 16.898438 45.339844 17.835938 46.320312 C 18.261719 46.761719 19.011719 47.941406 19.527344 48.847656 L 20.214844 48.457031 C 19.65625 47.476562 18.882812 46.269531 18.410156 45.773438 C 17.507812 44.828125 16.707031 43.804688 16.027344 42.722656 C 14.71875 40.640625 13.800781 38.253906 13.292969 35.640625 C 13.292969 35.632812 13.292969 35.632812 12.277344 30.371094 C 12.1875 29.882812 12.492188 29.414062 12.972656 29.300781 C 13.4375 29.191406 13.910156 29.445312 14.066406 29.898438 L 17.042969 38.21875 L 20.910156 43.101562 L 21.53125 42.609375 L 17.664062 37.726562 L 17.746094 37.660156 C 18.53125 37.035156 19.679688 37.167969 20.300781 37.957031 Z M 20.300781 37.957031 "/><path style=" stroke:none;fill-rule:nonzero;fill:#0a4732;fill-opacity:1;" d="M 44.675781 28.527344 C 43.8125 28.324219 42.945312 28.800781 42.652344 29.636719 L 40.105469 36.957031 C 39.578125 36.582031 38.9375 36.417969 38.289062 36.492188 C 37.597656 36.574219 36.976562 36.917969 36.542969 37.464844 L 33.917969 40.78125 C 32.738281 42.273438 32.039062 44.171875 31.367188 46.011719 C 31.121094 46.683594 30.890625 47.316406 30.636719 47.929688 L 31.367188 48.230469 C 31.628906 47.605469 31.875 46.933594 32.113281 46.28125 C 32.765625 44.503906 33.4375 42.664062 34.539062 41.273438 L 37.167969 37.957031 C 37.46875 37.574219 37.902344 37.335938 38.382812 37.277344 C 38.867188 37.222656 39.339844 37.355469 39.722656 37.660156 L 39.804688 37.726562 L 35.9375 42.609375 L 36.558594 43.101562 L 40.425781 38.21875 L 43.402344 29.898438 C 43.558594 29.445312 44.03125 29.1875 44.496094 29.300781 C 44.976562 29.414062 45.28125 29.882812 45.191406 30.367188 C 45.191406 30.367188 44.226562 35.363281 44.179688 35.617188 L 44.175781 35.628906 C 43.667969 38.253906 42.75 40.640625 41.441406 42.722656 C 40.761719 43.804688 39.960938 44.832031 39.058594 45.773438 C 38.585938 46.265625 37.808594 47.476562 37.25 48.457031 L 37.9375 48.847656 C 38.457031 47.941406 39.207031 46.765625 39.632812 46.320312 C 40.570312 45.339844 41.40625 44.269531 42.113281 43.144531 C 43.472656 40.980469 44.429688 38.5 44.957031 35.777344 C 44.976562 35.675781 45.101562 35.015625 45.972656 30.511719 C 46.136719 29.613281 45.566406 28.742188 44.675781 28.527344 Z M 44.675781 28.527344 "/></g></svg>