<svg xmlns="http://www.w3.org/2000/svg" xmlns:xlink="http://www.w3.org/1999/xlink" width="76" zoomAndPan="magnify" viewBox="0 0 56.879997 65.04" height="76" preserveAspectRatio="xMidYMid meet" version="1.2"><defs><clipPath id="4ea9e939aa"><path d="M 0.355469 1.429688 L 56 1.429688 L 56 54.644531 L 0.355469 54.644531 Z M 0.355469 1.429688 "/></clipPath></defs><g id="5b7d12959a"><g clip-rule="nonzero" clip-path="url(#4ea9e939aa)"><path style=" stroke:none;fill-rule:nonzero;fill:#0a4732;fill-opacity:1;" d="M 32.886719 2.609375 C 33.300781 2.609375 33.824219 2.777344 34.308594 3.15625 C 34.941406 3.664062 35.457031 4.5 36.042969 5.46875 L 40.195312 12.664062 C 40.285156 12.820312 40.4375 12.921875 40.601562 12.949219 L 40.597656 12.949219 C 40.636719 12.957031 40.671875 12.960938 40.707031 12.960938 C 40.804688 12.960938 40.90625 12.933594 41 12.882812 L 43.398438 11.496094 L 40.851562 21 L 31.347656 18.453125 L 33.746094 17.070312 C 34.023438 16.910156 34.121094 16.550781 33.960938 16.269531 L 29.140625 7.773438 L 31.285156 3.910156 C 31.289062 3.90625 31.292969 3.902344 31.292969 3.898438 C 31.769531 3.214844 32.097656 2.789062 32.539062 2.65625 C 32.640625 2.625 32.757812 2.609375 32.886719 2.609375 Z M 32.890625 1.429688 C 32.6875 1.429688 32.488281 1.453125 32.296875 1.5 C 32.289062 1.5 32.28125 1.5 32.273438 1.5 C 32.25 1.5 32.230469 1.5 32.207031 1.503906 L 32.203125 1.503906 L 32.160156 1.507812 C 29.066406 1.851562 25.949219 2.195312 23.777344 2.542969 C 21.59375 2.890625 20.21875 3.257812 19 4.371094 C 17.839844 5.429688 16.855469 7.144531 15.9375 8.738281 C 15.933594 8.746094 15.929688 8.75 15.925781 8.753906 L 9.867188 20.082031 C 9.714844 20.367188 9.824219 20.726562 10.109375 20.878906 C 10.199219 20.925781 10.292969 20.949219 10.386719 20.949219 C 10.597656 20.949219 10.800781 20.835938 10.90625 20.636719 L 16.964844 9.3125 C 17.914062 7.667969 18.800781 6.148438 19.796875 5.238281 C 20.738281 4.378906 21.804688 4.050781 23.960938 3.703125 C 25.707031 3.425781 28.078125 3.148438 30.578125 2.867188 L 30.578125 2.871094 C 30.492188 2.988281 30.414062 3.101562 30.339844 3.207031 L 30.335938 3.207031 C 30.308594 3.242188 30.285156 3.28125 30.265625 3.320312 L 18.421875 24.652344 C 18.265625 24.9375 18.367188 25.296875 18.652344 25.453125 C 18.742188 25.503906 18.839844 25.527344 18.9375 25.527344 C 19.144531 25.527344 19.34375 25.417969 19.453125 25.226562 L 28.46875 8.980469 L 32.648438 16.34375 L 29.527344 18.144531 C 29.320312 18.265625 29.207031 18.496094 29.238281 18.730469 C 29.269531 18.96875 29.4375 19.164062 29.667969 19.222656 L 41.113281 22.289062 C 41.164062 22.304688 41.21875 22.3125 41.269531 22.3125 C 41.527344 22.3125 41.765625 22.136719 41.835938 21.875 L 44.902344 10.429688 C 44.964844 10.199219 44.882812 9.953125 44.691406 9.808594 C 44.585938 9.726562 44.460938 9.6875 44.335938 9.6875 C 44.234375 9.6875 44.132812 9.714844 44.039062 9.765625 L 40.921875 11.566406 L 37.027344 4.820312 C 37.019531 4.808594 37.011719 4.796875 37.007812 4.789062 C 36.464844 3.890625 35.851562 2.882812 35.039062 2.234375 C 34.40625 1.734375 33.625 1.429688 32.890625 1.429688 Z M 13.851562 24.222656 L 16.398438 33.726562 L 14 32.34375 C 13.90625 32.289062 13.804688 32.261719 13.707031 32.261719 C 13.503906 32.261719 13.308594 32.367188 13.199219 32.554688 L 8.25 40.976562 L 3.832031 41.050781 C 3.824219 41.050781 3.820312 41.050781 3.816406 41.050781 C 2.988281 40.980469 2.453125 40.90625 2.121094 40.59375 C 1.789062 40.285156 1.550781 39.609375 1.671875 38.8125 C 1.789062 38.015625 2.253906 37.15625 2.796875 36.167969 L 6.960938 28.957031 C 7.121094 28.675781 7.023438 28.316406 6.742188 28.152344 L 4.347656 26.769531 Z M 14.265625 22.914062 C 14.214844 22.914062 14.164062 22.917969 14.113281 22.933594 L 2.667969 26 C 2.4375 26.0625 2.269531 26.253906 2.238281 26.492188 C 2.207031 26.726562 2.320312 26.960938 2.527344 27.078125 L 5.644531 28.878906 L 1.75 35.625 C 1.742188 35.640625 1.734375 35.65625 1.726562 35.671875 C 1.222656 36.585938 0.65625 37.617188 0.503906 38.636719 C 0.351562 39.660156 0.601562 40.726562 1.242188 41.382812 C 1.253906 41.40625 1.269531 41.433594 1.285156 41.457031 L 1.289062 41.460938 L 1.316406 41.496094 C 3.160156 44.003906 5.011719 46.53125 6.402344 48.238281 C 7.792969 49.953125 8.800781 50.960938 10.371094 51.460938 C 11.871094 51.9375 13.847656 51.929688 15.6875 51.929688 C 15.695312 51.929688 15.703125 51.929688 15.707031 51.929688 L 28.546875 51.511719 C 28.871094 51.503906 29.125 51.230469 29.117188 50.90625 C 29.105469 50.585938 28.84375 50.335938 28.527344 50.335938 C 28.519531 50.335938 28.515625 50.335938 28.507812 50.335938 L 15.679688 50.753906 C 13.777344 50.753906 12.011719 50.746094 10.730469 50.335938 C 9.511719 49.953125 8.695312 49.191406 7.316406 47.496094 C 6.203125 46.125 4.777344 44.210938 3.285156 42.183594 C 3.429688 42.199219 3.566406 42.210938 3.695312 42.222656 C 3.726562 42.226562 3.757812 42.230469 3.792969 42.230469 C 3.800781 42.230469 3.808594 42.230469 3.816406 42.230469 L 28.226562 41.820312 C 28.550781 41.8125 28.8125 41.546875 28.804688 41.222656 C 28.800781 40.898438 28.539062 40.640625 28.21875 40.640625 C 28.214844 40.640625 28.210938 40.640625 28.207031 40.640625 L 9.628906 40.953125 L 13.917969 33.65625 L 17.039062 35.457031 C 17.128906 35.511719 17.230469 35.535156 17.332031 35.535156 C 17.460938 35.535156 17.585938 35.496094 17.691406 35.414062 C 17.882812 35.269531 17.964844 35.023438 17.902344 34.792969 L 14.835938 23.347656 C 14.765625 23.085938 14.527344 22.914062 14.265625 22.914062 Z M 37.472656 38.492188 L 37.472656 41.261719 C 37.472656 41.585938 37.734375 41.847656 38.058594 41.847656 L 47.828125 41.921875 L 50.105469 45.71875 C 50.105469 45.71875 50.105469 45.722656 50.109375 45.726562 C 50.460938 46.476562 50.664062 46.976562 50.5625 47.421875 C 50.457031 47.867188 49.992188 48.40625 49.242188 48.703125 C 48.488281 49 47.507812 49.027344 46.378906 49.050781 L 38.078125 49.050781 C 38.074219 49.050781 38.066406 49.050781 38.0625 49.050781 C 37.738281 49.050781 37.472656 49.3125 37.472656 49.640625 L 37.472656 52.40625 L 30.515625 45.449219 Z M 46.300781 18.800781 C 46.195312 18.800781 46.089844 18.828125 45.992188 18.886719 C 45.714844 19.058594 45.632812 19.421875 45.804688 19.699219 L 52.582031 30.609375 C 53.53125 32.253906 54.40625 33.78125 54.695312 35.097656 C 54.96875 36.339844 54.71875 37.429688 53.941406 39.472656 C 53.308594 41.121094 52.363281 43.3125 51.355469 45.617188 L 51.355469 45.621094 C 51.296875 45.492188 51.242188 45.367188 51.1875 45.253906 C 51.171875 45.214844 51.15625 45.179688 51.136719 45.148438 L 38.566406 24.199219 C 38.457031 24.015625 38.261719 23.914062 38.0625 23.914062 C 37.960938 23.914062 37.855469 23.941406 37.761719 24 C 37.480469 24.164062 37.390625 24.527344 37.558594 24.804688 L 47.117188 40.738281 L 38.652344 40.675781 L 38.652344 37.070312 C 38.652344 36.832031 38.507812 36.617188 38.289062 36.527344 C 38.214844 36.496094 38.140625 36.480469 38.0625 36.480469 C 37.910156 36.480469 37.757812 36.542969 37.648438 36.65625 L 29.269531 45.035156 C 29.039062 45.261719 29.039062 45.636719 29.269531 45.867188 L 37.648438 54.246094 C 37.757812 54.359375 37.910156 54.417969 38.0625 54.417969 C 38.140625 54.417969 38.214844 54.402344 38.289062 54.371094 C 38.507812 54.28125 38.652344 54.066406 38.652344 53.828125 L 38.652344 50.226562 L 38.652344 50.230469 L 46.378906 50.226562 C 46.378906 50.226562 46.382812 50.226562 46.382812 50.226562 C 46.386719 50.226562 46.386719 50.226562 46.386719 50.226562 L 46.441406 50.226562 C 46.457031 50.226562 46.472656 50.226562 46.488281 50.226562 C 47.535156 50.207031 48.710938 50.179688 49.671875 49.800781 C 50.632812 49.421875 51.429688 48.671875 51.683594 47.792969 L 51.679688 47.792969 C 51.695312 47.769531 51.710938 47.742188 51.722656 47.714844 L 51.726562 47.707031 L 51.742188 47.667969 C 52.996094 44.816406 54.253906 41.949219 55.039062 39.890625 C 55.828125 37.828125 56.199219 36.453125 55.84375 34.84375 C 55.507812 33.308594 54.511719 31.597656 53.59375 30.003906 C 53.589844 30 53.585938 29.992188 53.582031 29.988281 L 46.804688 19.078125 C 46.691406 18.898438 46.5 18.800781 46.300781 18.800781 Z M 46.300781 18.800781 "/></g></g></svg>