<svg xmlns="http://www.w3.org/2000/svg" xmlns:xlink="http://www.w3.org/1999/xlink" width="76" zoomAndPan="magnify" viewBox="0 0 56.879997 65.04" height="76" preserveAspectRatio="xMidYMid meet" version="1.2"><defs><clipPath id="3f38967022"><path d="M 0.355469 9.960938 L 56.214844 9.960938 L 56.214844 45.902344 L 0.355469 45.902344 Z M 0.355469 9.960938 "/></clipPath></defs><g id="a577e763fb"><path style=" stroke:none;fill-rule:nonzero;fill:#0a4732;fill-opacity:1;" d="M 16.882812 19.679688 C 16.855469 19.753906 16.894531 19.835938 16.96875 19.863281 C 17.714844 20.136719 18.402344 20.535156 19.011719 21.046875 C 19.039062 21.070312 19.070312 21.082031 19.105469 21.082031 C 19.144531 21.082031 19.1875 21.0625 19.214844 21.03125 C 19.265625 20.96875 19.257812 20.878906 19.195312 20.828125 C 18.5625 20.296875 17.84375 19.878906 17.066406 19.59375 C 16.992188 19.566406 16.910156 19.605469 16.882812 19.679688 "/><path style=" stroke:none;fill-rule:nonzero;fill:#0a4732;fill-opacity:1;" d="M 19.101562 20.148438 C 19.128906 20.171875 19.164062 20.183594 19.195312 20.183594 C 19.238281 20.183594 19.277344 20.167969 19.304688 20.132812 C 19.355469 20.074219 19.351562 19.984375 19.289062 19.933594 C 18.71875 19.441406 17.992188 19.140625 17.242188 19.082031 C 17.160156 19.078125 17.09375 19.136719 17.085938 19.214844 C 17.082031 19.292969 17.140625 19.363281 17.21875 19.371094 C 17.910156 19.421875 18.578125 19.699219 19.101562 20.148438 "/><g clip-rule="nonzero" clip-path="url(#3f38967022)"><path style=" stroke:none;fill-rule:nonzero;fill:#0a4732;fill-opacity:1;" d="M 29.476562 13.847656 C 29.367188 13.964844 29.191406 14.042969 28.9375 14.078125 L 28.898438 14.082031 C 28.441406 14.152344 28.042969 14.207031 27.585938 14.164062 C 27.367188 14.144531 27.144531 14.113281 26.929688 14.082031 C 26.910156 13.902344 26.929688 13.660156 27.097656 13.527344 C 27.253906 13.410156 27.484375 13.421875 27.707031 13.429688 C 28.332031 13.457031 28.964844 13.441406 29.59375 13.386719 C 29.601562 13.414062 29.605469 13.441406 29.609375 13.46875 C 29.621094 13.605469 29.570312 13.746094 29.476562 13.847656 Z M 32.429688 16.339844 C 32.433594 16.339844 32.453125 16.335938 32.464844 16.332031 C 32.480469 16.328125 32.5 16.324219 32.519531 16.316406 C 34.578125 16.960938 36.78125 17.0625 38.890625 16.613281 C 39.550781 17.445312 40.53125 18.109375 41.601562 18.445312 L 41.648438 18.457031 C 41.945312 18.550781 42.25 18.648438 42.363281 18.882812 C 42.4375 19.042969 42.40625 19.230469 42.28125 19.441406 C 41.488281 19.664062 40.644531 19.710938 39.832031 19.578125 L 38.117188 18.996094 C 38.058594 18.964844 37.996094 18.929688 37.9375 18.894531 C 37.828125 18.828125 37.71875 18.757812 37.613281 18.6875 C 37.34375 18.511719 37.0625 18.328125 36.75 18.207031 C 36.429688 18.085938 36.058594 18.070312 35.648438 18.15625 C 34.015625 17.605469 32.65625 17.144531 31.417969 16.726562 C 31.765625 16.632812 32.101562 16.503906 32.429688 16.339844 Z M 41.570312 20.171875 C 41.34375 20.09375 41.113281 20.015625 40.882812 19.9375 C 41.25 19.929688 41.617188 19.886719 41.976562 19.8125 C 41.972656 19.816406 41.964844 19.824219 41.960938 19.828125 C 41.835938 19.945312 41.703125 20.058594 41.570312 20.171875 Z M 36.378906 18.40625 C 36.472656 18.421875 36.5625 18.445312 36.648438 18.476562 C 36.71875 18.503906 36.789062 18.535156 36.859375 18.570312 C 36.699219 18.515625 36.539062 18.460938 36.378906 18.40625 Z M 46.148438 22.347656 C 46.113281 22.464844 46.035156 22.539062 45.980469 22.582031 L 45.839844 22.53125 C 44.222656 21.964844 42.601562 21.394531 40.980469 20.824219 L 33.601562 18.234375 C 33.316406 17.984375 33.046875 17.785156 32.777344 17.628906 C 32.160156 17.265625 31.488281 17.242188 30.851562 17.273438 L 29.191406 16.6875 C 29.15625 16.636719 29.089844 16.609375 29.027344 16.632812 C 28.707031 16.519531 28.386719 16.40625 28.066406 16.292969 C 26.660156 15.800781 25.25 15.304688 23.84375 14.8125 L 23.429688 14.667969 C 22.941406 14.496094 22.453125 14.324219 21.960938 14.152344 C 21.859375 14.117188 21.757812 14.078125 21.65625 14.042969 C 21.648438 14.039062 21.640625 14.03125 21.632812 14.023438 C 21.625 14.015625 21.613281 14.007812 21.605469 14 C 21.59375 13.992188 21.578125 13.980469 21.566406 13.972656 C 21.558594 13.964844 21.546875 13.957031 21.539062 13.949219 C 21.523438 13.9375 21.511719 13.929688 21.5 13.921875 C 21.488281 13.914062 21.476562 13.90625 21.46875 13.898438 C 21.453125 13.890625 21.441406 13.882812 21.425781 13.875 C 21.417969 13.867188 21.40625 13.863281 21.394531 13.855469 C 21.382812 13.847656 21.367188 13.839844 21.351562 13.832031 C 21.339844 13.824219 21.332031 13.820312 21.320312 13.8125 C 21.304688 13.804688 21.289062 13.796875 21.277344 13.792969 C 21.265625 13.785156 21.253906 13.78125 21.242188 13.777344 C 21.226562 13.769531 21.210938 13.761719 21.195312 13.753906 C 21.183594 13.75 21.175781 13.746094 21.164062 13.742188 C 21.148438 13.734375 21.128906 13.726562 21.113281 13.722656 C 21.101562 13.71875 21.09375 13.714844 21.082031 13.710938 C 21.0625 13.703125 21.042969 13.695312 21.023438 13.691406 C 21 13.683594 20.980469 13.679688 20.957031 13.671875 C 20.945312 13.667969 20.929688 13.664062 20.914062 13.660156 C 20.898438 13.65625 20.882812 13.652344 20.867188 13.648438 C 20.855469 13.644531 20.839844 13.644531 20.828125 13.640625 C 20.8125 13.636719 20.796875 13.632812 20.78125 13.632812 C 20.765625 13.628906 20.753906 13.625 20.738281 13.625 C 20.722656 13.621094 20.707031 13.621094 20.691406 13.617188 C 20.679688 13.617188 20.664062 13.613281 20.648438 13.613281 C 20.632812 13.609375 20.617188 13.609375 20.601562 13.609375 C 20.589844 13.605469 20.574219 13.605469 20.558594 13.605469 C 20.542969 13.601562 20.527344 13.601562 20.515625 13.601562 C 20.5 13.601562 20.484375 13.601562 20.46875 13.601562 C 20.453125 13.601562 20.4375 13.601562 20.425781 13.601562 C 20.414062 13.601562 20.402344 13.597656 20.390625 13.601562 L 20.023438 13.472656 L 19.625 13.332031 C 19.625 13.328125 19.625 13.324219 19.625 13.320312 C 19.621094 13.28125 19.621094 13.242188 19.621094 13.203125 C 19.621094 13.199219 19.621094 13.195312 19.621094 13.191406 C 19.621094 13.152344 19.621094 13.113281 19.621094 13.074219 C 19.691406 13.097656 19.765625 13.121094 19.839844 13.144531 C 19.878906 13.160156 19.917969 13.171875 19.960938 13.183594 C 19.972656 13.191406 19.984375 13.195312 20 13.199219 C 20.03125 13.207031 20.0625 13.21875 20.09375 13.230469 C 20.109375 13.234375 20.125 13.238281 20.140625 13.246094 C 20.164062 13.253906 20.191406 13.261719 20.214844 13.269531 C 20.238281 13.277344 20.265625 13.285156 20.289062 13.292969 C 20.304688 13.300781 20.324219 13.304688 20.34375 13.3125 C 20.367188 13.320312 20.394531 13.328125 20.417969 13.335938 C 20.460938 13.351562 20.503906 13.363281 20.546875 13.378906 C 20.925781 13.503906 21.332031 13.636719 21.757812 13.78125 C 21.964844 13.847656 22.179688 13.917969 22.394531 13.992188 C 23.039062 14.207031 23.726562 14.4375 24.4375 14.675781 C 25.320312 14.96875 26.296875 15.300781 27.425781 15.679688 C 27.425781 15.679688 27.429688 15.679688 27.429688 15.679688 C 28.527344 16.050781 29.667969 16.4375 30.828125 16.828125 C 32.207031 17.292969 33.71875 17.804688 35.59375 18.441406 C 36.40625 18.71875 37.210938 18.992188 38.003906 19.261719 C 38.007812 19.261719 38.015625 19.265625 38.019531 19.265625 L 39.75 19.855469 C 40.367188 20.0625 40.96875 20.269531 41.558594 20.46875 C 43.246094 21.042969 44.796875 21.570312 46.109375 22.019531 C 46.140625 22.082031 46.191406 22.203125 46.148438 22.347656 Z M 42.378906 23.402344 C 42.328125 23.460938 42.28125 23.523438 42.230469 23.582031 C 41.941406 23.929688 41.640625 24.289062 41.285156 24.554688 C 40.964844 24.792969 40.769531 24.769531 40.480469 24.597656 C 40.382812 24.046875 40.410156 23.441406 40.4375 22.851562 C 40.441406 22.792969 40.441406 22.730469 40.445312 22.667969 C 40.449219 22.558594 40.453125 22.433594 40.457031 22.304688 C 40.46875 21.832031 40.734375 21.414062 40.976562 21.128906 C 41.949219 21.46875 42.921875 21.808594 43.894531 22.152344 C 43.257812 22.40625 42.78125 22.929688 42.378906 23.402344 Z M 39.027344 23.820312 C 38.792969 23.714844 38.550781 23.609375 38.320312 23.488281 C 37.480469 23.054688 36.429688 22.515625 36.054688 21.613281 C 35.855469 21.140625 35.648438 20.722656 35.425781 20.347656 C 35.6875 20.390625 35.953125 20.417969 36.21875 20.433594 C 36.5625 20.453125 36.910156 20.453125 37.25 20.425781 C 37.574219 20.824219 37.933594 21.195312 38.320312 21.53125 C 38.875 22.011719 39.492188 22.417969 40.15625 22.75 C 40.152344 22.777344 40.152344 22.808594 40.152344 22.839844 C 40.128906 23.355469 40.105469 23.886719 40.160156 24.390625 C 39.800781 24.160156 39.410156 23.988281 39.027344 23.820312 Z M 34.113281 18.71875 L 40.691406 21.027344 C 40.363281 21.441406 40.183594 21.875 40.171875 22.296875 C 40.171875 22.34375 40.167969 22.390625 40.167969 22.433594 C 39.570312 22.125 39.011719 21.75 38.507812 21.3125 C 38.117188 20.972656 37.75 20.59375 37.429688 20.1875 C 37.398438 20.152344 37.351562 20.128906 37.304688 20.132812 C 36.949219 20.164062 36.589844 20.167969 36.234375 20.148438 C 35.894531 20.128906 35.550781 20.082031 35.214844 20.015625 C 34.96875 19.640625 34.695312 19.308594 34.386719 18.996094 C 34.300781 18.90625 34.207031 18.8125 34.113281 18.71875 Z M 30.742188 18.058594 C 31.085938 18.140625 31.425781 18.355469 31.726562 18.6875 C 32 18.992188 32.21875 19.355469 32.429688 19.710938 C 32.5 19.828125 32.558594 19.9375 32.539062 20.03125 C 32.519531 20.144531 32.386719 20.226562 32.257812 20.308594 L 32.230469 20.324219 C 31.847656 20.570312 31.519531 20.917969 31.285156 21.320312 C 31.160156 21.078125 31.019531 20.84375 30.882812 20.613281 C 30.84375 20.550781 30.804688 20.484375 30.765625 20.421875 C 30.496094 19.964844 30.226562 19.472656 30.128906 18.894531 C 30.125 18.871094 30.121094 18.847656 30.121094 18.824219 C 30.113281 18.785156 30.109375 18.746094 30.105469 18.710938 C 30.105469 18.695312 30.105469 18.683594 30.101562 18.671875 C 30.101562 18.648438 30.097656 18.621094 30.097656 18.597656 C 30.097656 18.585938 30.097656 18.570312 30.097656 18.558594 C 30.097656 18.535156 30.09375 18.515625 30.09375 18.496094 C 30.09375 18.480469 30.097656 18.464844 30.097656 18.453125 C 30.097656 18.433594 30.097656 18.414062 30.097656 18.394531 C 30.101562 18.378906 30.101562 18.367188 30.105469 18.351562 C 30.105469 18.335938 30.105469 18.316406 30.109375 18.300781 C 30.113281 18.285156 30.113281 18.273438 30.117188 18.257812 C 30.121094 18.242188 30.121094 18.226562 30.125 18.210938 C 30.128906 18.199219 30.132812 18.183594 30.136719 18.171875 C 30.140625 18.15625 30.144531 18.140625 30.148438 18.125 C 30.152344 18.113281 30.15625 18.101562 30.160156 18.085938 C 30.164062 18.078125 30.167969 18.066406 30.171875 18.054688 C 30.355469 18.015625 30.554688 18.015625 30.742188 18.058594 Z M 29.878906 20.453125 C 29.539062 20.445312 29.078125 20.4375 28.726562 20.117188 C 28.511719 19.921875 28.410156 19.671875 28.363281 19.464844 C 28.519531 19.4375 28.683594 19.398438 28.859375 19.351562 C 29.140625 19.277344 29.425781 19.179688 29.695312 19.089844 C 29.753906 19.070312 29.808594 19.050781 29.863281 19.035156 C 29.964844 19.550781 30.1875 19.992188 30.421875 20.398438 C 30.242188 20.4375 30.058594 20.453125 29.878906 20.453125 Z M 27.082031 19.171875 C 26.503906 19.027344 26.035156 18.621094 25.886719 18.144531 C 25.804688 17.882812 25.824219 17.621094 25.9375 17.433594 C 26.265625 17.5 26.625 17.519531 26.984375 17.484375 C 27.714844 17.417969 28.410156 17.164062 29.027344 16.933594 L 30.355469 17.402344 C 30.179688 17.503906 30.03125 17.671875 29.9375 17.875 C 29.929688 17.890625 29.921875 17.910156 29.914062 17.925781 C 29.902344 17.953125 29.894531 17.980469 29.882812 18.007812 C 29.882812 18.011719 29.882812 18.015625 29.878906 18.019531 C 29.871094 18.046875 29.863281 18.070312 29.855469 18.101562 C 29.855469 18.105469 29.855469 18.109375 29.851562 18.113281 C 29.847656 18.140625 29.839844 18.167969 29.835938 18.199219 C 29.835938 18.203125 29.835938 18.207031 29.832031 18.210938 C 29.828125 18.242188 29.824219 18.269531 29.820312 18.300781 C 29.820312 18.304688 29.820312 18.304688 29.820312 18.308594 C 29.816406 18.339844 29.8125 18.371094 29.8125 18.40625 C 29.808594 18.441406 29.808594 18.476562 29.808594 18.507812 C 29.808594 18.511719 29.808594 18.515625 29.808594 18.519531 C 29.808594 18.554688 29.808594 18.585938 29.8125 18.621094 C 29.8125 18.625 29.8125 18.628906 29.8125 18.632812 C 29.816406 18.667969 29.816406 18.703125 29.820312 18.742188 C 29.820312 18.742188 29.820312 18.742188 29.820312 18.746094 C 29.75 18.769531 29.675781 18.792969 29.605469 18.816406 C 29.335938 18.90625 29.058594 19 28.78125 19.078125 C 28.546875 19.140625 28.328125 19.183594 28.121094 19.210938 C 27.734375 19.261719 27.394531 19.246094 27.082031 19.171875 Z M 26.605469 16.996094 C 27.0625 16.828125 27.535156 16.6875 28.011719 16.578125 C 28.210938 16.648438 28.40625 16.714844 28.601562 16.785156 C 28.085938 16.972656 27.527344 17.148438 26.957031 17.199219 C 26.699219 17.226562 26.4375 17.21875 26.191406 17.183594 C 26.320312 17.105469 26.464844 17.046875 26.605469 16.996094 Z M 22.171875 14.980469 C 22.144531 14.847656 22.105469 14.726562 22.058594 14.613281 C 22.058594 14.570312 22.0625 14.53125 22.0625 14.492188 C 22.488281 14.640625 22.910156 14.789062 23.335938 14.9375 C 22.976562 15.019531 22.582031 15.035156 22.171875 14.980469 Z M 21.039062 16.839844 C 20.949219 16.996094 20.867188 17.109375 20.753906 17.164062 C 20.632812 17.222656 20.480469 17.207031 20.355469 17.191406 C 19.839844 17.113281 19.175781 16.84375 18.847656 16.414062 C 18.753906 16.289062 18.871094 16.007812 18.957031 15.800781 C 18.984375 15.734375 19.011719 15.671875 19.03125 15.613281 C 19.164062 15.222656 19.292969 14.914062 19.429688 14.632812 C 19.496094 14.496094 19.5625 14.375 19.632812 14.257812 C 19.636719 14.257812 19.636719 14.253906 19.636719 14.253906 C 19.640625 14.246094 19.648438 14.238281 19.652344 14.230469 C 19.707031 14.144531 19.761719 14.066406 19.820312 13.992188 C 19.828125 13.988281 19.835938 13.984375 19.84375 13.984375 C 19.855469 13.980469 19.867188 13.976562 19.878906 13.972656 C 19.894531 13.96875 19.910156 13.960938 19.925781 13.957031 C 19.9375 13.953125 19.945312 13.953125 19.957031 13.949219 C 19.976562 13.945312 19.992188 13.941406 20.011719 13.9375 C 20.019531 13.933594 20.027344 13.929688 20.039062 13.929688 C 20.066406 13.921875 20.089844 13.917969 20.117188 13.914062 C 20.199219 13.898438 20.285156 13.890625 20.371094 13.886719 C 20.652344 13.878906 20.925781 13.9375 21.160156 14.054688 C 21.28125 14.113281 21.390625 14.1875 21.484375 14.273438 C 21.546875 14.332031 21.601562 14.394531 21.648438 14.460938 C 21.660156 14.476562 21.671875 14.496094 21.683594 14.511719 C 21.6875 14.519531 21.691406 14.523438 21.695312 14.53125 C 21.703125 14.542969 21.707031 14.554688 21.714844 14.566406 C 21.71875 14.574219 21.722656 14.582031 21.730469 14.589844 C 21.734375 14.601562 21.742188 14.613281 21.746094 14.625 C 21.75 14.632812 21.753906 14.640625 21.757812 14.648438 C 21.761719 14.65625 21.765625 14.660156 21.769531 14.667969 C 21.765625 14.679688 21.765625 14.691406 21.765625 14.703125 C 21.765625 14.71875 21.761719 14.734375 21.761719 14.746094 C 21.757812 14.765625 21.757812 14.789062 21.753906 14.808594 C 21.753906 14.820312 21.753906 14.835938 21.75 14.847656 C 21.75 14.871094 21.746094 14.894531 21.742188 14.917969 C 21.742188 14.925781 21.738281 14.9375 21.738281 14.949219 C 21.730469 14.984375 21.726562 15.019531 21.722656 15.050781 C 21.621094 15.625 21.378906 16.257812 21.039062 16.839844 Z M 18.421875 14.648438 C 18.171875 14.933594 17.992188 15.253906 17.816406 15.5625 C 17.710938 15.746094 17.601562 15.933594 17.480469 16.113281 C 17.167969 16.574219 16.910156 17.050781 16.691406 17.570312 C 16.613281 17.75 16.539062 17.929688 16.460938 18.109375 L 16.34375 18.382812 C 16.074219 18.332031 15.800781 18.296875 15.523438 18.28125 C 15.777344 17.039062 16.09375 15.8125 16.398438 14.652344 C 17.1875 14.648438 17.925781 14.582031 18.59375 14.460938 C 18.535156 14.523438 18.476562 14.582031 18.421875 14.648438 Z M 15.039062 21.589844 C 15.113281 20.652344 15.253906 19.65625 15.46875 18.566406 C 15.726562 18.578125 15.980469 18.609375 16.230469 18.652344 C 15.808594 19.640625 15.402344 20.613281 15.039062 21.589844 Z M 12.59375 19.0625 C 13.253906 18.785156 13.972656 18.617188 14.695312 18.570312 C 14.644531 18.789062 14.585938 19.007812 14.527344 19.21875 C 14.425781 19.597656 14.316406 19.988281 14.246094 20.382812 C 14.125 21.082031 14.085938 21.792969 14.128906 22.5 C 14.136719 22.609375 14.144531 22.71875 14.15625 22.828125 C 13.996094 21.746094 13.59375 20.277344 12.59375 19.0625 Z M 15.097656 14.640625 C 15.113281 14.644531 15.128906 14.648438 15.144531 14.648438 C 15.171875 14.648438 15.195312 14.640625 15.21875 14.628906 C 15.222656 14.625 15.226562 14.625 15.230469 14.621094 C 15.347656 14.628906 15.460938 14.632812 15.574219 14.636719 C 15.304688 15.851562 15.035156 17.066406 14.761719 18.277344 C 13.949219 18.320312 13.136719 18.511719 12.398438 18.835938 C 12.316406 18.746094 12.230469 18.65625 12.140625 18.570312 C 13.578125 17.707031 14.667969 16.257812 15.097656 14.640625 Z M 15.210938 18.386719 C 14.921875 19.828125 14.757812 21.109375 14.707031 22.300781 C 14.625 22.429688 14.535156 22.558594 14.429688 22.679688 C 14.425781 22.613281 14.417969 22.546875 14.414062 22.480469 C 14.371094 21.796875 14.410156 21.109375 14.53125 20.433594 C 14.597656 20.050781 14.703125 19.664062 14.804688 19.292969 C 14.878906 19.023438 14.953125 18.746094 15.015625 18.464844 L 15.019531 18.449219 C 15.300781 17.179688 15.582031 15.914062 15.863281 14.648438 C 15.945312 14.648438 16.023438 14.652344 16.101562 14.652344 C 15.789062 15.84375 15.464844 17.109375 15.210938 18.386719 Z M 17.859375 12.710938 L 17.582031 12.613281 C 17.527344 12.59375 17.46875 12.609375 17.429688 12.652344 C 17.390625 12.695312 17.378906 12.757812 17.40625 12.8125 L 17.421875 12.847656 C 17.453125 12.914062 17.488281 12.992188 17.539062 13.058594 C 17.371094 13.058594 17.207031 12.96875 17.128906 12.914062 C 17.097656 12.894531 17.066406 12.875 17.035156 12.855469 C 16.851562 12.738281 16.738281 12.65625 16.738281 12.519531 L 16.738281 12.515625 C 16.738281 12.492188 16.738281 12.429688 16.773438 12.382812 C 16.785156 12.371094 16.882812 12.28125 17.140625 12.296875 C 17.191406 12.304688 17.460938 12.375 18.691406 12.769531 C 18.691406 12.847656 18.691406 12.925781 18.691406 13.003906 C 18.414062 12.90625 18.136719 12.808594 17.859375 12.710938 Z M 18.480469 10.585938 C 18.378906 10.488281 18.269531 10.417969 18.148438 10.371094 C 18.089844 10.351562 18.03125 10.339844 17.972656 10.332031 C 18.074219 10.277344 18.1875 10.25 18.308594 10.25 C 18.617188 10.246094 18.902344 10.425781 19.074219 10.726562 C 19.164062 10.878906 19.226562 11.054688 19.273438 11.253906 C 19.277344 11.285156 19.28125 11.316406 19.285156 11.347656 C 19.289062 11.375 19.292969 11.398438 19.292969 11.421875 C 19.296875 11.453125 19.300781 11.488281 19.304688 11.519531 C 19.304688 11.546875 19.308594 11.570312 19.3125 11.59375 C 19.3125 11.628906 19.316406 11.660156 19.320312 11.695312 C 19.320312 11.71875 19.324219 11.742188 19.324219 11.769531 C 19.328125 11.800781 19.328125 11.835938 19.332031 11.867188 C 19.332031 11.894531 19.335938 11.917969 19.335938 11.941406 C 19.335938 11.976562 19.339844 12.011719 19.339844 12.046875 C 19.339844 12.070312 19.339844 12.09375 19.34375 12.117188 C 19.34375 12.152344 19.34375 12.1875 19.34375 12.222656 C 19.34375 12.246094 19.34375 12.269531 19.34375 12.289062 C 19.34375 12.308594 19.34375 12.328125 19.34375 12.347656 C 19.34375 12.367188 19.34375 12.386719 19.34375 12.40625 C 19.34375 12.425781 19.34375 12.445312 19.34375 12.464844 C 19.34375 12.523438 19.34375 12.582031 19.339844 12.636719 C 19.339844 12.65625 19.339844 12.675781 19.339844 12.695312 C 19.335938 12.75 19.335938 12.808594 19.335938 12.875 C 19.332031 12.917969 19.332031 12.960938 19.332031 13.003906 C 19.332031 13.140625 19.335938 13.28125 19.339844 13.4375 C 19.34375 13.585938 19.347656 13.738281 19.355469 13.882812 C 19.253906 13.9375 19.148438 14.003906 19.050781 14.074219 C 19.027344 14.078125 19.007812 14.082031 18.988281 14.085938 L 18.980469 13.207031 C 18.976562 13.023438 18.976562 12.84375 18.976562 12.664062 L 18.96875 12.121094 C 18.964844 11.628906 18.882812 11.230469 18.714844 10.90625 C 18.652344 10.78125 18.570312 10.675781 18.480469 10.585938 Z M 19.644531 13.75 C 19.640625 13.753906 19.640625 13.753906 19.636719 13.753906 C 19.636719 13.714844 19.632812 13.675781 19.632812 13.636719 L 19.71875 13.667969 C 19.691406 13.695312 19.667969 13.722656 19.644531 13.75 Z M 21.191406 11.375 C 21.542969 11.535156 21.855469 11.753906 22.1875 11.984375 C 22.402344 12.136719 22.625 12.292969 22.859375 12.429688 C 23.085938 12.84375 23.4375 13.171875 23.855469 13.355469 C 24.148438 13.484375 24.476562 13.539062 24.808594 13.519531 C 24.820312 13.597656 24.820312 13.683594 24.800781 13.78125 C 24.761719 14.03125 24.597656 14.234375 24.449219 14.375 C 24.445312 14.375 24.441406 14.375 24.441406 14.375 C 24.332031 14.339844 24.226562 14.304688 24.125 14.269531 C 24.082031 14.253906 24.042969 14.242188 24.003906 14.226562 C 23.933594 14.203125 23.863281 14.179688 23.796875 14.160156 C 23.707031 14.128906 23.621094 14.101562 23.535156 14.070312 C 23.515625 14.0625 23.496094 14.058594 23.476562 14.050781 C 22.910156 13.863281 22.367188 13.679688 21.851562 13.507812 C 21.421875 13.367188 21.015625 13.230469 20.636719 13.105469 C 20.558594 13.082031 20.480469 13.054688 20.40625 13.03125 C 20.390625 13.027344 20.375 13.019531 20.363281 13.015625 C 20.335938 13.007812 20.308594 13 20.285156 12.992188 C 20.261719 12.984375 20.242188 12.976562 20.222656 12.96875 C 20.199219 12.960938 20.175781 12.953125 20.148438 12.945312 C 20.128906 12.941406 20.109375 12.933594 20.089844 12.925781 C 20.066406 12.917969 20.042969 12.910156 20.019531 12.902344 C 20 12.898438 19.976562 12.890625 19.953125 12.882812 C 19.933594 12.875 19.910156 12.867188 19.886719 12.859375 C 19.867188 12.851562 19.847656 12.847656 19.824219 12.839844 C 19.804688 12.832031 19.78125 12.824219 19.761719 12.820312 C 19.742188 12.8125 19.722656 12.804688 19.699219 12.796875 C 19.679688 12.792969 19.65625 12.785156 19.632812 12.777344 C 19.628906 12.777344 19.625 12.773438 19.621094 12.773438 C 19.621094 12.769531 19.621094 12.769531 19.621094 12.769531 C 19.625 12.753906 19.625 12.738281 19.625 12.722656 C 19.625 12.71875 19.625 12.710938 19.625 12.707031 C 19.625 12.6875 19.625 12.667969 19.625 12.648438 L 19.625 12.644531 C 19.644531 12.191406 19.660156 11.679688 19.554688 11.203125 C 19.554688 11.191406 19.550781 11.175781 19.550781 11.164062 L 19.550781 11.15625 C 19.542969 11.097656 19.53125 11.035156 19.519531 10.972656 C 20.085938 11.054688 20.671875 11.140625 21.191406 11.375 Z M 24.671875 13.238281 C 24.429688 13.234375 24.1875 13.1875 23.96875 13.09375 C 23.761719 13 23.570312 12.867188 23.410156 12.699219 C 23.527344 12.742188 23.652344 12.78125 23.78125 12.820312 C 24.125 12.921875 24.480469 13.027344 24.671875 13.238281 Z M 20.753906 21.769531 C 20.882812 21.957031 20.90625 22.210938 20.921875 22.433594 C 20.964844 23.089844 20.925781 23.800781 20.800781 24.59375 C 20.785156 24.679688 20.773438 24.765625 20.761719 24.855469 C 20.679688 25.398438 20.589844 26.015625 20.332031 26.476562 C 20.296875 26.546875 20.257812 26.613281 20.222656 26.683594 C 20.21875 26.683594 20.21875 26.683594 20.21875 26.683594 C 20.195312 26.726562 20.175781 26.769531 20.152344 26.8125 C 19.953125 27.191406 19.761719 27.550781 19.480469 27.878906 C 19.128906 28.292969 18.710938 28.648438 18.246094 28.933594 C 18.109375 29.015625 17.96875 29.09375 17.824219 29.164062 C 17.925781 28.691406 18.007812 28.222656 18.082031 27.796875 L 18.15625 27.371094 C 18.511719 27.230469 18.875 27.0625 19.160156 26.761719 C 19.515625 26.386719 19.667969 25.902344 19.816406 25.4375 C 19.832031 25.378906 19.851562 25.320312 19.871094 25.265625 C 20.21875 24.179688 20.433594 23.050781 20.503906 21.910156 C 20.511719 21.796875 20.515625 21.695312 20.515625 21.597656 C 20.601562 21.628906 20.691406 21.679688 20.753906 21.769531 Z M 20.277344 27.394531 C 20.230469 27.710938 20.082031 28.011719 19.941406 28.300781 L 19.917969 28.34375 C 19.625 28.945312 19.320312 29.566406 18.835938 30.003906 C 18.769531 30.0625 18.703125 30.125 18.640625 30.183594 C 18.28125 30.515625 17.941406 30.832031 17.445312 30.921875 C 17.402344 30.929688 17.355469 30.933594 17.308594 30.9375 C 17.476562 30.519531 17.617188 30.050781 17.746094 29.515625 C 17.96875 29.417969 18.1875 29.304688 18.394531 29.175781 C 18.886719 28.875 19.324219 28.503906 19.699219 28.066406 C 19.941406 27.78125 20.117188 27.484375 20.285156 27.171875 C 20.289062 27.242188 20.289062 27.316406 20.277344 27.394531 Z M 18.542969 25.128906 L 18.558594 25.046875 C 18.574219 24.949219 18.589844 24.847656 18.601562 24.746094 C 18.640625 24.460938 18.679688 24.164062 18.800781 23.929688 C 18.851562 23.828125 18.910156 23.722656 18.96875 23.625 C 19.058594 23.46875 19.152344 23.308594 19.226562 23.132812 C 19.535156 22.433594 19.878906 21.757812 20.195312 21.160156 C 20.207031 21.238281 20.21875 21.324219 20.222656 21.417969 C 20.230469 21.554688 20.230469 21.710938 20.21875 21.890625 C 20.148438 23.007812 19.941406 24.113281 19.597656 25.175781 C 19.578125 25.234375 19.558594 25.292969 19.542969 25.351562 C 19.398438 25.804688 19.261719 26.238281 18.953125 26.566406 C 18.746094 26.78125 18.484375 26.921875 18.210938 27.035156 C 18.324219 26.402344 18.433594 25.765625 18.542969 25.128906 Z M 56.1875 37.101562 C 54.558594 34.679688 53.261719 32.035156 52.332031 29.238281 C 51.863281 27.835938 51.492188 26.386719 51.222656 24.9375 C 51.207031 24.855469 51.191406 24.777344 51.179688 24.699219 C 51.078125 24.132812 50.988281 23.640625 50.707031 23.109375 C 50.34375 22.433594 50.109375 21.683594 49.945312 21.101562 C 49.863281 20.816406 49.804688 20.527344 49.75 20.242188 C 49.710938 20.035156 49.667969 19.824219 49.617188 19.613281 C 49.476562 19.03125 49.40625 18.5 49.40625 17.984375 C 49.40625 17.316406 48.988281 16.636719 48.289062 16.164062 C 47.839844 15.863281 47.332031 15.667969 46.839844 15.476562 C 46.683594 15.417969 46.523438 15.355469 46.371094 15.289062 C 45.691406 15.011719 45.144531 14.753906 44.785156 14.230469 C 44.769531 14.207031 44.75 14.191406 44.726562 14.179688 C 44.546875 14.101562 44.355469 14.027344 44.15625 13.949219 C 43.480469 13.6875 42.714844 13.386719 42.253906 12.921875 L 42.242188 12.910156 C 41.636719 12.300781 41.117188 11.777344 40.21875 11.527344 C 39.46875 11.320312 38.78125 11.546875 38.113281 11.765625 C 37.933594 11.824219 37.75 11.882812 37.566406 11.933594 C 36.253906 12.304688 35.019531 12.359375 33.683594 12.109375 C 33.65625 12.101562 33.628906 12.105469 33.605469 12.117188 C 32.351562 12.628906 31.03125 12.957031 29.675781 13.089844 C 29.023438 13.152344 28.367188 13.171875 27.722656 13.144531 C 27.472656 13.132812 27.160156 13.121094 26.925781 13.300781 C 26.683594 13.484375 26.589844 13.816406 26.65625 14.230469 C 26.667969 14.28125 26.679688 14.332031 26.691406 14.382812 C 26.769531 14.691406 26.902344 14.984375 27.078125 15.261719 C 26.222656 14.972656 25.457031 14.714844 24.75 14.476562 C 24.933594 14.277344 25.046875 14.054688 25.085938 13.828125 C 25.117188 13.640625 25.105469 13.46875 25.050781 13.316406 C 24.878906 12.84375 24.339844 12.683594 23.863281 12.542969 C 23.6875 12.492188 23.523438 12.445312 23.394531 12.386719 C 23.277344 12.335938 23.164062 12.273438 23.042969 12.203125 C 23.042969 12.203125 23.039062 12.203125 23.039062 12.203125 C 22.800781 12.066406 22.570312 11.90625 22.351562 11.75 C 22.023438 11.523438 21.6875 11.285156 21.308594 11.113281 C 20.746094 10.859375 20.132812 10.769531 19.539062 10.6875 L 19.363281 10.660156 C 19.351562 10.636719 19.335938 10.609375 19.324219 10.582031 C 19.101562 10.195312 18.722656 9.960938 18.316406 9.960938 C 18.3125 9.960938 18.308594 9.960938 18.304688 9.960938 C 17.929688 9.964844 17.601562 10.164062 17.382812 10.503906 C 17.34375 10.503906 17.308594 10.503906 17.265625 10.503906 C 16.574219 10.503906 15.875 10.546875 15.195312 10.585938 L 15.183594 10.585938 C 14.480469 10.628906 13.605469 10.679688 12.921875 11.136719 C 12.558594 11.382812 12.277344 11.726562 12.007812 12.058594 C 11.96875 12.101562 11.933594 12.144531 11.898438 12.1875 C 11.125 13.125 10.191406 13.984375 8.878906 14.96875 C 8.210938 15.46875 7.65625 16.214844 7.117188 16.933594 C 6.875 17.261719 6.644531 17.570312 6.40625 17.855469 C 6.078125 18.246094 5.738281 18.652344 5.53125 19.144531 C 5.371094 19.527344 5.433594 19.949219 5.496094 20.355469 C 5.515625 20.496094 5.535156 20.625 5.546875 20.75 C 5.703125 22.621094 5.597656 24.507812 5.226562 26.359375 C 5.050781 27.234375 4.914062 27.925781 4.945312 28.847656 C 4.972656 29.703125 4.984375 30.710938 4.867188 31.691406 C 4.710938 33.023438 4.078125 34.253906 3.464844 35.441406 C 3.367188 35.632812 3.265625 35.828125 3.167969 36.023438 C 2.449219 37.453125 1.582031 39.09375 0.390625 40.484375 C 0.335938 40.542969 0.34375 40.632812 0.40625 40.6875 C 0.433594 40.710938 0.464844 40.71875 0.496094 40.71875 C 0.539062 40.71875 0.578125 40.703125 0.605469 40.671875 C 1.820312 39.253906 2.695312 37.59375 3.421875 36.152344 C 3.519531 35.957031 3.621094 35.761719 3.71875 35.574219 C 4.34375 34.359375 4.988281 33.109375 5.152344 31.722656 C 5.273438 30.726562 5.257812 29.707031 5.230469 28.839844 C 5.203125 27.949219 5.335938 27.273438 5.507812 26.414062 C 5.882812 24.539062 5.992188 22.625 5.832031 20.726562 C 5.820312 20.589844 5.796875 20.449219 5.777344 20.3125 C 5.722656 19.945312 5.664062 19.5625 5.792969 19.253906 C 5.984375 18.800781 6.3125 18.414062 6.625 18.039062 C 6.871094 17.75 7.101562 17.4375 7.347656 17.105469 C 7.871094 16.402344 8.414062 15.675781 9.050781 15.195312 C 10.382812 14.199219 11.328125 13.328125 12.121094 12.371094 C 12.15625 12.328125 12.191406 12.285156 12.226562 12.238281 C 12.484375 11.925781 12.75 11.597656 13.082031 11.375 C 13.699219 10.960938 14.53125 10.914062 15.199219 10.871094 L 15.210938 10.871094 C 15.886719 10.832031 16.585938 10.792969 17.269531 10.789062 C 17.644531 10.792969 17.984375 10.800781 18.3125 10.824219 C 18.371094 10.886719 18.417969 10.957031 18.460938 11.039062 C 18.605469 11.316406 18.679688 11.683594 18.683594 12.121094 L 18.6875 12.46875 C 17.300781 12.023438 17.207031 12.015625 17.164062 12.011719 C 16.738281 11.980469 16.570312 12.179688 16.550781 12.199219 C 16.484375 12.285156 16.449219 12.390625 16.453125 12.519531 C 16.453125 12.824219 16.691406 12.976562 16.882812 13.097656 C 16.910156 13.117188 16.941406 13.132812 16.96875 13.152344 C 17.304688 13.378906 17.664062 13.40625 17.929688 13.230469 C 17.976562 13.199219 18 13.144531 17.992188 13.089844 C 17.992188 13.078125 17.988281 13.070312 17.984375 13.058594 C 18.222656 13.140625 18.457031 13.226562 18.695312 13.308594 L 18.703125 14.148438 C 17.980469 14.292969 17.171875 14.367188 16.300781 14.367188 C 16.296875 14.367188 16.292969 14.367188 16.289062 14.367188 C 16.109375 14.367188 15.929688 14.363281 15.753906 14.359375 C 15.582031 14.351562 15.402344 14.34375 15.214844 14.332031 L 15.207031 14.316406 C 15.195312 14.296875 15.183594 14.285156 15.167969 14.269531 C 14.941406 13.886719 14.777344 13.476562 14.675781 13.039062 C 14.65625 12.960938 14.582031 12.914062 14.503906 12.933594 C 14.425781 12.949219 14.378906 13.027344 14.394531 13.105469 C 14.5 13.546875 14.664062 13.96875 14.890625 14.363281 C 14.875 14.378906 14.859375 14.402344 14.855469 14.429688 C 14.457031 16.089844 13.328125 17.578125 11.839844 18.414062 C 10.933594 18.117188 9.90625 18.140625 9.015625 18.480469 C 8.941406 18.507812 8.902344 18.589844 8.929688 18.664062 C 8.953125 18.722656 9.007812 18.757812 9.066406 18.757812 C 9.082031 18.757812 9.097656 18.753906 9.117188 18.746094 C 9.972656 18.421875 10.960938 18.40625 11.824219 18.710938 C 11.84375 18.71875 11.863281 18.722656 11.882812 18.71875 C 12.011719 18.839844 12.136719 18.96875 12.253906 19.105469 C 13.34375 20.34375 13.746094 21.910156 13.894531 23.011719 C 13.902344 23.070312 13.910156 23.132812 13.917969 23.191406 C 13.71875 23.359375 13.511719 23.511719 13.292969 23.660156 C 13.289062 23.640625 13.285156 23.621094 13.277344 23.605469 C 13.011719 23.019531 12.511719 22.496094 11.832031 22.089844 C 11.234375 21.730469 10.574219 21.5 9.9375 21.273438 C 9.863281 21.246094 9.78125 21.285156 9.753906 21.359375 C 9.726562 21.433594 9.765625 21.515625 9.839844 21.542969 C 10.464844 21.765625 11.113281 21.992188 11.6875 22.335938 C 12.316406 22.710938 12.773438 23.191406 13.019531 23.722656 C 13.03125 23.753906 13.058594 23.777344 13.085938 23.792969 C 12.804688 23.96875 12.515625 24.136719 12.230469 24.304688 C 12.136719 24.355469 12.046875 24.410156 11.957031 24.460938 C 11.761719 24.574219 11.566406 24.6875 11.375 24.800781 C 11.304688 24.839844 11.28125 24.929688 11.320312 24.996094 C 11.347656 25.042969 11.394531 25.070312 11.445312 25.070312 C 11.46875 25.070312 11.496094 25.0625 11.515625 25.050781 C 11.710938 24.9375 11.90625 24.824219 12.101562 24.707031 C 12.191406 24.65625 12.28125 24.605469 12.371094 24.550781 C 12.988281 24.195312 13.625 23.828125 14.160156 23.359375 C 14.253906 23.277344 14.34375 23.195312 14.425781 23.113281 C 14.644531 22.890625 14.824219 22.664062 14.972656 22.417969 C 15.082031 22.238281 15.175781 22.042969 15.246094 21.847656 C 15.644531 20.765625 16.097656 19.695312 16.5625 18.601562 L 16.726562 18.222656 C 16.800781 18.042969 16.878906 17.863281 16.953125 17.683594 C 17.167969 17.179688 17.417969 16.71875 17.71875 16.273438 C 17.84375 16.085938 17.957031 15.890625 18.0625 15.703125 C 18.242188 15.394531 18.40625 15.101562 18.636719 14.835938 C 18.734375 14.722656 18.839844 14.617188 18.945312 14.523438 C 19.019531 14.457031 19.09375 14.394531 19.171875 14.339844 C 19.207031 14.328125 19.238281 14.320312 19.273438 14.3125 C 19.238281 14.375 19.203125 14.441406 19.171875 14.507812 C 19.027344 14.796875 18.898438 15.117188 18.761719 15.515625 C 18.742188 15.570312 18.71875 15.628906 18.691406 15.691406 C 18.574219 15.976562 18.425781 16.332031 18.621094 16.585938 C 19.023438 17.117188 19.785156 17.394531 20.316406 17.472656 C 20.382812 17.484375 20.457031 17.492188 20.539062 17.492188 C 20.648438 17.492188 20.769531 17.476562 20.878906 17.421875 C 21.066406 17.328125 21.1875 17.15625 21.289062 16.984375 C 21.507812 16.605469 21.785156 16.042969 21.941406 15.390625 C 21.953125 15.484375 21.957031 15.585938 21.957031 15.699219 C 21.964844 16.667969 21.734375 17.636719 21.289062 18.496094 C 21.035156 18.992188 20.765625 19.492188 20.503906 19.972656 C 20.375 20.21875 20.238281 20.46875 20.105469 20.71875 C 19.746094 21.390625 19.332031 22.1875 18.964844 23.015625 C 18.894531 23.179688 18.808594 23.328125 18.71875 23.484375 C 18.660156 23.585938 18.601562 23.691406 18.546875 23.800781 C 18.402344 24.078125 18.359375 24.398438 18.316406 24.710938 C 18.304688 24.808594 18.292969 24.90625 18.277344 24.996094 L 18.261719 25.082031 C 18.136719 25.800781 18.011719 26.519531 17.886719 27.242188 L 17.796875 27.746094 C 17.710938 28.253906 17.609375 28.824219 17.484375 29.378906 C 17.480469 29.382812 17.480469 29.382812 17.480469 29.382812 C 17.332031 30.023438 17.164062 30.566406 16.957031 31.039062 C 16.957031 31.039062 16.957031 31.039062 16.957031 31.042969 C 16.835938 31.320312 16.703125 31.582031 16.558594 31.824219 C 15.761719 33.132812 14.675781 34.253906 13.625 35.339844 C 12.949219 36.039062 12.25 36.757812 11.628906 37.527344 C 9.707031 39.910156 8.324219 42.742188 7.636719 45.726562 C 7.617188 45.800781 7.667969 45.878906 7.742188 45.898438 C 7.753906 45.898438 7.765625 45.902344 7.777344 45.902344 C 7.839844 45.902344 7.898438 45.855469 7.914062 45.789062 C 8.59375 42.851562 9.957031 40.054688 11.851562 37.710938 C 12.464844 36.949219 13.160156 36.230469 13.832031 35.539062 C 14.890625 34.441406 15.988281 33.308594 16.800781 31.972656 C 16.941406 31.746094 17.070312 31.496094 17.183594 31.238281 C 17.289062 31.230469 17.394531 31.21875 17.496094 31.203125 C 18.074219 31.097656 18.460938 30.738281 18.835938 30.390625 C 18.898438 30.335938 18.960938 30.273438 19.027344 30.214844 C 19.554688 29.742188 19.871094 29.09375 20.175781 28.46875 L 20.199219 28.425781 C 20.34375 28.132812 20.507812 27.796875 20.558594 27.4375 C 20.601562 27.164062 20.546875 26.925781 20.5 26.769531 C 20.527344 26.71875 20.554688 26.667969 20.585938 26.613281 C 20.863281 26.109375 20.960938 25.464844 21.042969 24.898438 C 21.054688 24.808594 21.070312 24.722656 21.082031 24.640625 C 21.210938 23.824219 21.25 23.09375 21.207031 22.414062 C 21.191406 22.132812 21.152344 21.84375 20.988281 21.605469 C 20.855469 21.410156 20.648438 21.332031 20.5 21.292969 C 20.484375 21.105469 20.445312 20.941406 20.390625 20.792969 C 20.511719 20.566406 20.636719 20.335938 20.757812 20.109375 C 21.019531 19.625 21.289062 19.125 21.542969 18.628906 C 22.007812 17.726562 22.25 16.710938 22.242188 15.695312 C 22.242188 15.542969 22.234375 15.40625 22.21875 15.277344 C 22.359375 15.289062 22.5 15.296875 22.636719 15.296875 C 23.050781 15.296875 23.441406 15.230469 23.796875 15.097656 C 25.039062 15.535156 26.277344 15.96875 27.519531 16.40625 C 27.175781 16.496094 26.835938 16.605469 26.503906 16.726562 C 26.246094 16.820312 25.957031 16.941406 25.765625 17.183594 C 25.757812 17.191406 25.75 17.203125 25.742188 17.210938 C 25.542969 17.476562 25.496094 17.859375 25.613281 18.230469 C 25.792969 18.8125 26.328125 19.277344 27.011719 19.449219 C 27.226562 19.5 27.449219 19.527344 27.6875 19.527344 C 27.8125 19.527344 27.941406 19.519531 28.078125 19.503906 C 28.132812 19.761719 28.257812 20.078125 28.53125 20.328125 C 28.964844 20.722656 29.511719 20.730469 29.871094 20.738281 C 29.886719 20.738281 29.902344 20.738281 29.917969 20.738281 C 30.136719 20.738281 30.359375 20.710938 30.578125 20.660156 C 30.597656 20.691406 30.617188 20.726562 30.636719 20.761719 C 30.828125 21.078125 31.007812 21.375 31.148438 21.699219 C 31.148438 21.703125 31.148438 21.703125 31.148438 21.703125 C 31.199219 21.820312 31.242188 21.933594 31.277344 22.046875 C 31.609375 23.105469 32.074219 24.097656 32.664062 24.992188 C 33.402344 26.121094 34.101562 26.929688 34.800781 27.460938 C 35.246094 27.800781 35.761719 28.070312 36.261719 28.332031 C 36.34375 28.375 36.425781 28.417969 36.507812 28.460938 C 36.847656 30.507812 37.890625 32.4375 39.445312 33.910156 C 40.148438 34.574219 40.957031 35.097656 41.738281 35.605469 C 42.773438 36.277344 43.84375 36.972656 44.644531 37.988281 C 45.605469 39.207031 46.203125 40.636719 46.371094 42.117188 C 46.378906 42.1875 46.441406 42.242188 46.515625 42.242188 C 46.519531 42.242188 46.523438 42.242188 46.53125 42.242188 C 46.609375 42.230469 46.664062 42.160156 46.65625 42.082031 C 46.480469 40.550781 45.863281 39.074219 44.867188 37.808594 C 44.039062 36.757812 42.949219 36.050781 41.894531 35.363281 C 41.125 34.863281 40.328125 34.347656 39.640625 33.699219 C 38.1875 32.324219 37.199219 30.535156 36.832031 28.636719 C 37.09375 28.78125 37.363281 28.941406 37.617188 29.125 C 37.644531 29.144531 37.671875 29.152344 37.699219 29.152344 C 37.746094 29.152344 37.789062 29.132812 37.816406 29.09375 C 37.863281 29.027344 37.847656 28.9375 37.785156 28.894531 C 37.433594 28.640625 37.058594 28.429688 36.707031 28.242188 C 36.601562 28.1875 36.496094 28.132812 36.394531 28.078125 C 35.882812 27.808594 35.402344 27.554688 34.972656 27.234375 C 34.507812 26.878906 34.039062 26.390625 33.554688 25.757812 C 33.558594 25.753906 33.5625 25.746094 33.5625 25.738281 C 33.816406 25.128906 34.304688 24.617188 34.898438 24.335938 C 34.972656 24.304688 35.003906 24.21875 34.96875 24.148438 C 34.933594 24.074219 34.847656 24.042969 34.777344 24.078125 C 34.160156 24.367188 33.648438 24.882812 33.359375 25.496094 C 33.300781 25.417969 33.242188 25.339844 33.1875 25.257812 C 33.21875 25.230469 33.238281 25.191406 33.242188 25.148438 C 33.253906 24.59375 33.636719 24.054688 34.15625 23.863281 C 34.230469 23.835938 34.269531 23.753906 34.242188 23.679688 C 34.214844 23.605469 34.132812 23.570312 34.058594 23.597656 C 33.484375 23.804688 33.0625 24.34375 32.972656 24.941406 C 32.949219 24.90625 32.925781 24.871094 32.902344 24.835938 C 32.328125 23.960938 31.875 22.996094 31.550781 21.960938 C 31.519531 21.859375 31.480469 21.753906 31.4375 21.648438 C 31.652344 21.203125 31.984375 20.820312 32.382812 20.566406 L 32.410156 20.550781 C 32.574219 20.449219 32.773438 20.320312 32.820312 20.089844 C 32.863281 19.878906 32.75 19.691406 32.675781 19.5625 C 32.457031 19.199219 32.234375 18.820312 31.9375 18.496094 C 31.601562 18.121094 31.207031 17.875 30.808594 17.78125 C 30.667969 17.746094 30.523438 17.734375 30.378906 17.742188 C 30.488281 17.636719 30.621094 17.570312 30.761719 17.5625 C 30.785156 17.5625 30.8125 17.558594 30.839844 17.558594 C 31.4375 17.527344 32.070312 17.546875 32.632812 17.875 C 32.890625 18.027344 33.152344 18.21875 33.433594 18.46875 C 33.699219 18.703125 33.957031 18.964844 34.183594 19.199219 C 34.492188 19.507812 34.761719 19.84375 35.011719 20.226562 C 35.292969 20.65625 35.546875 21.144531 35.789062 21.722656 C 36.207031 22.722656 37.304688 23.289062 38.191406 23.742188 C 38.425781 23.867188 38.675781 23.976562 38.914062 24.082031 C 39.324219 24.265625 39.753906 24.453125 40.125 24.707031 C 40.179688 24.746094 40.230469 24.777344 40.273438 24.808594 C 40.476562 24.933594 40.667969 25.015625 40.867188 25.015625 C 41.046875 25.015625 41.238281 24.949219 41.457031 24.785156 C 41.839844 24.496094 42.152344 24.125 42.449219 23.765625 C 42.5 23.707031 42.550781 23.648438 42.597656 23.589844 C 42.996094 23.117188 43.472656 22.59375 44.09375 22.382812 C 44.152344 22.363281 44.1875 22.3125 44.191406 22.257812 C 44.710938 22.4375 45.230469 22.621094 45.746094 22.800781 L 45.949219 22.875 C 45.964844 22.878906 45.984375 22.882812 46 22.882812 C 46.023438 22.882812 46.042969 22.875 46.066406 22.867188 C 46.128906 22.832031 46.347656 22.699219 46.425781 22.425781 C 46.511719 22.125 46.367188 21.886719 46.324219 21.820312 C 46.304688 21.792969 46.28125 21.773438 46.25 21.765625 C 44.988281 21.332031 43.503906 20.828125 41.886719 20.277344 C 41.976562 20.199219 42.066406 20.121094 42.15625 20.039062 C 42.292969 19.910156 42.40625 19.777344 42.492188 19.644531 C 42.699219 19.332031 42.742188 19.027344 42.621094 18.765625 C 42.457031 18.410156 42.054688 18.285156 41.734375 18.183594 L 41.683594 18.171875 C 40.640625 17.84375 39.6875 17.1875 39.0625 16.367188 C 39.046875 16.34375 39.023438 16.328125 39 16.320312 C 39.042969 16.292969 39.070312 16.246094 39.066406 16.191406 C 39.011719 15.453125 39.054688 14.707031 39.191406 13.980469 C 39.207031 13.902344 39.15625 13.824219 39.078125 13.8125 C 39 13.796875 38.925781 13.847656 38.910156 13.925781 C 38.769531 14.679688 38.726562 15.445312 38.78125 16.210938 C 38.78125 16.261719 38.8125 16.304688 38.855469 16.328125 C 36.800781 16.769531 34.65625 16.675781 32.648438 16.054688 C 32.644531 16.046875 32.644531 16.039062 32.640625 16.03125 C 32.460938 15.535156 32.429688 14.980469 32.554688 14.464844 C 32.570312 14.390625 32.523438 14.3125 32.445312 14.292969 C 32.371094 14.277344 32.292969 14.324219 32.273438 14.398438 C 32.144531 14.945312 32.171875 15.535156 32.347656 16.066406 C 32.332031 16.070312 32.316406 16.074219 32.300781 16.082031 C 31.847656 16.3125 31.371094 16.46875 30.886719 16.546875 C 29.75 16.160156 28.632812 15.785156 27.554688 15.421875 C 27.285156 15.105469 27.09375 14.753906 26.988281 14.378906 C 27.175781 14.40625 27.367188 14.429688 27.558594 14.449219 C 27.679688 14.460938 27.796875 14.464844 27.914062 14.464844 C 28.261719 14.464844 28.582031 14.417969 28.941406 14.367188 L 28.980469 14.363281 C 29.300781 14.316406 29.53125 14.210938 29.6875 14.042969 C 29.835938 13.886719 29.914062 13.660156 29.894531 13.445312 C 29.890625 13.414062 29.886719 13.386719 29.882812 13.355469 C 31.1875 13.210938 32.460938 12.890625 33.671875 12.398438 C 35.019531 12.644531 36.320312 12.585938 37.644531 12.210938 C 37.832031 12.160156 38.019531 12.097656 38.203125 12.035156 C 38.855469 11.820312 39.476562 11.617188 40.140625 11.804688 C 40.964844 12.03125 41.4375 12.507812 42.039062 13.113281 L 42.050781 13.125 C 42.554688 13.632812 43.351562 13.945312 44.050781 14.21875 C 44.234375 14.289062 44.410156 14.355469 44.574219 14.425781 C 44.976562 14.992188 45.578125 15.273438 46.261719 15.554688 C 46.417969 15.621094 46.582031 15.683594 46.738281 15.742188 C 47.214844 15.929688 47.707031 16.117188 48.128906 16.402344 C 48.75 16.820312 49.121094 17.410156 49.121094 17.984375 C 49.121094 18.519531 49.191406 19.074219 49.339844 19.679688 C 49.386719 19.886719 49.429688 20.09375 49.46875 20.296875 C 49.527344 20.585938 49.585938 20.886719 49.667969 21.179688 C 49.835938 21.773438 50.078125 22.546875 50.453125 23.246094 C 50.714844 23.738281 50.800781 24.207031 50.898438 24.75 C 50.910156 24.828125 50.925781 24.910156 50.941406 24.992188 C 51.210938 26.453125 51.589844 27.914062 52.058594 29.328125 C 52.996094 32.148438 54.304688 34.816406 55.953125 37.261719 C 55.980469 37.300781 56.023438 37.324219 56.070312 37.324219 C 56.097656 37.324219 56.125 37.316406 56.152344 37.300781 C 56.214844 37.253906 56.234375 37.167969 56.1875 37.101562 "/></g></g></svg>