<svg xmlns="http://www.w3.org/2000/svg" xmlns:xlink="http://www.w3.org/1999/xlink" width="76" zoomAndPan="magnify" viewBox="0 0 56.879997 65.04" height="76" preserveAspectRatio="xMidYMid meet" version="1.2"><defs><clipPath id="2892528002"><path d="M 7.160156 0 L 49.289062 0 L 49.289062 56 L 7.160156 56 Z M 7.160156 0 "/></clipPath></defs><g id="a98a34bc11"><g clip-rule="nonzero" clip-path="url(#2892528002)"><path style=" stroke:none;fill-rule:nonzero;fill:#0a4732;fill-opacity:1;" d="M 49.265625 50.5 L 42.671875 15.203125 C 42.671875 15.191406 42.671875 15.179688 42.660156 15.171875 C 42.660156 15.160156 42.660156 15.160156 42.648438 15.148438 C 42.636719 15.136719 42.636719 15.113281 42.625 15.101562 C 42.625 15.101562 42.625 15.09375 42.625 15.09375 C 42.613281 15.070312 42.605469 15.058594 42.59375 15.046875 C 42.59375 15.046875 42.582031 15.046875 42.582031 15.035156 C 42.570312 15.027344 42.558594 15.015625 42.546875 15.003906 L 42.535156 14.992188 C 42.527344 14.980469 42.515625 14.96875 42.492188 14.96875 L 42.480469 14.96875 C 42.46875 14.957031 42.449219 14.957031 42.4375 14.957031 L 42.425781 14.957031 C 42.414062 14.957031 42.390625 14.957031 42.382812 14.957031 L 35.664062 14.957031 L 35.332031 6.859375 C 35.164062 3.019531 32.144531 0 28.457031 0 C 26.796875 0 25.195312 0.625 23.96875 1.738281 C 22.710938 2.886719 21.898438 4.421875 21.664062 6.105469 L 20.394531 14.957031 L 14.703125 14.957031 C 14.558594 14.957031 14.425781 15.058594 14.390625 15.214844 L 7.195312 51.335938 C 7.160156 51.503906 7.261719 51.671875 7.429688 51.703125 C 7.441406 51.703125 7.453125 51.703125 7.460938 51.703125 L 39.496094 55.691406 L 39.53125 55.691406 C 39.550781 55.691406 39.574219 55.691406 39.597656 55.679688 L 39.617188 55.679688 C 39.640625 55.679688 39.652344 55.667969 39.675781 55.65625 L 39.6875 55.65625 L 49.097656 50.835938 C 49.21875 50.777344 49.285156 50.632812 49.265625 50.5 Z M 22.289062 6.183594 C 22.753906 2.953125 25.351562 0.613281 28.457031 0.613281 C 31.8125 0.613281 34.550781 3.375 34.695312 6.882812 L 35.03125 14.949219 L 21.019531 14.949219 Z M 14.957031 15.570312 L 20.304688 15.570312 L 19.546875 20.828125 C 19.203125 20.929688 18.96875 21.25 18.96875 21.621094 C 18.945312 22.054688 19.269531 22.421875 19.703125 22.445312 C 20.136719 22.464844 20.503906 22.144531 20.527344 21.707031 C 20.527344 21.675781 20.527344 21.652344 20.527344 21.621094 C 20.527344 21.339844 20.394531 21.085938 20.160156 20.929688 L 20.929688 15.570312 L 35.039062 15.570312 L 35.265625 20.882812 C 34.996094 21.027344 34.828125 21.308594 34.828125 21.621094 C 34.808594 22.054688 35.152344 22.410156 35.574219 22.433594 C 36.011719 22.453125 36.367188 22.109375 36.390625 21.6875 C 36.390625 21.664062 36.390625 21.640625 36.390625 21.621094 C 36.390625 21.285156 36.1875 20.984375 35.886719 20.863281 L 35.664062 15.570312 L 42.003906 15.570312 L 40.042969 43.582031 L 39.25 55.023438 L 7.875 51.125 Z M 39.886719 54.84375 L 40.777344 42.089844 L 42.492188 17.722656 L 48.597656 50.390625 Z M 39.886719 54.84375 "/></g></g></svg>