<svg xmlns="http://www.w3.org/2000/svg" version="1.1" xmlns:xlink="http://www.w3.org/1999/xlink" width="1080" height="1080"><svg xmlns="http://www.w3.org/2000/svg" xmlns:xlink="http://www.w3.org/1999/xlink" width="1080" zoomAndPan="magnify" viewBox="0 0 810 809.999993" height="1080" preserveAspectRatio="xMidYMid meet" version="1.2"><defs><clipPath id="SvgjsClipPath1013"><path d="M 27.699219 27.699219 L 782.300781 27.699219 L 782.300781 782.300781 L 27.699219 782.300781 Z M 27.699219 27.699219 "></path></clipPath><clipPath id="SvgjsClipPath1012"><path d="M 37.449219 27.699219 L 772.550781 27.699219 C 775.136719 27.699219 777.617188 28.726562 779.445312 30.554688 C 781.273438 32.382812 782.300781 34.863281 782.300781 37.449219 L 782.300781 772.550781 C 782.300781 775.136719 781.273438 777.617188 779.445312 779.445312 C 777.617188 781.273438 775.136719 782.300781 772.550781 782.300781 L 37.449219 782.300781 C 34.863281 782.300781 32.382812 781.273438 30.554688 779.445312 C 28.726562 777.617188 27.699219 775.136719 27.699219 772.550781 L 27.699219 37.449219 C 27.699219 34.863281 28.726562 32.382812 30.554688 30.554688 C 32.382812 28.726562 34.863281 27.699219 37.449219 27.699219 Z M 37.449219 27.699219 "></path></clipPath><clipPath id="SvgjsClipPath1011"><path d="M 210 58 L 600 58 L 600 600 L 210 600 Z M 210 58 "></path></clipPath><clipPath id="SvgjsClipPath1010"><path d="M -82.765625 -41.257812 L -82.765625 851.257812 C -82.765625 854.441406 -81.503906 857.492188 -79.253906 859.742188 C -77 861.992188 -73.949219 863.257812 -70.765625 863.257812 L 880.765625 863.257812 C 883.949219 863.257812 887 861.992188 889.253906 859.742188 C 891.503906 857.492188 892.765625 854.441406 892.765625 851.257812 L 892.765625 -41.257812 C 892.765625 -44.441406 891.503906 -47.492188 889.253906 -49.742188 C 887 -51.992188 883.949219 -53.257812 880.765625 -53.257812 L -70.765625 -53.257812 C -73.949219 -53.257812 -77 -51.992188 -79.253906 -49.742188 C -81.503906 -47.492188 -82.765625 -44.441406 -82.765625 -41.257812 Z M -82.765625 -41.257812 "></path></clipPath><clipPath id="SvgjsClipPath1009"><path d="M 210 269 L 594 269 L 594 708 L 210 708 Z M 210 269 "></path></clipPath><clipPath id="SvgjsClipPath1008"><path d="M -82.765625 -41.257812 L -82.765625 851.257812 C -82.765625 854.441406 -81.503906 857.492188 -79.253906 859.742188 C -77 861.992188 -73.949219 863.257812 -70.765625 863.257812 L 880.765625 863.257812 C 883.949219 863.257812 887 861.992188 889.253906 859.742188 C 891.503906 857.492188 892.765625 854.441406 892.765625 851.257812 L 892.765625 -41.257812 C 892.765625 -44.441406 891.503906 -47.492188 889.253906 -49.742188 C 887 -51.992188 883.949219 -53.257812 880.765625 -53.257812 L -70.765625 -53.257812 C -73.949219 -53.257812 -77 -51.992188 -79.253906 -49.742188 C -81.503906 -47.492188 -82.765625 -44.441406 -82.765625 -41.257812 Z M -82.765625 -41.257812 "></path></clipPath></defs><g id="SvgjsG1007"><rect x="0" width="810" y="0" height="809.999993" style="fill:#ffffff;fill-opacity:1;stroke:none;"></rect><rect x="0" width="810" y="0" height="809.999993" style="fill:#ffffff;fill-opacity:1;stroke:none;"></rect><g clip-rule="nonzero" clip-path="url(#fe0aa71f16)"><g clip-rule="nonzero" clip-path="url(#58a4772ead)"><path style=" stroke:none;fill-rule:nonzero;fill:#0c4833;fill-opacity:1;" d="M 27.699219 27.699219 L 782.300781 27.699219 L 782.300781 782.300781 L 27.699219 782.300781 Z M 27.699219 27.699219 "></path></g></g><g clip-rule="nonzero" clip-path="url(#9c73b12759)"><g clip-rule="nonzero" clip-path="url(#60d382b112)"><path style=" stroke:none;fill-rule:nonzero;fill:#ffffff;fill-opacity:1;" d="M 311.867188 522.832031 L 575.082031 71.09375 C 576.421875 68.78125 577.589844 66.46875 579.128906 64.257812 C 582.808594 59.109375 587.230469 56.355469 593.683594 59.847656 C 599.621094 63.066406 600.929688 68.480469 597.757812 74.613281 C 596.347656 77.355469 594.75 80.003906 593.199219 82.710938 L 299.289062 587.054688 C 295.089844 594.261719 292.023438 602.15625 280.476562 599.25 C 268.5 596.242188 269.078125 587.785156 269.089844 578.726562 C 269.089844 486.917969 268.953125 395.109375 269.359375 303.363281 C 269.359375 293.539062 267.230469 291.179688 257.105469 291.050781 C 243.996094 290.890625 234.171875 291.246094 222.695312 291.316406 C 215.476562 291.316406 210.457031 288.472656 210.316406 280.8125 C 210.121094 270.6875 214.597656 270.839844 230.171875 270.90625 C 243.925781 270.90625 244.296875 271.636719 270.90625 270.90625 C 288.507812 270.410156 290.65625 273.949219 290.578125 283.808594 C 290.472656 308.53125 290.578125 333.246094 290.578125 357.972656 L 290.578125 559.289062 C 297.695312 547.101562 304.792969 534.949219 311.867188 522.832031 Z M 311.867188 522.832031 "></path></g></g><g clip-rule="nonzero" clip-path="url(#73a33bd491)"><g clip-rule="nonzero" clip-path="url(#22383ac518)"><path style=" stroke:none;fill-rule:nonzero;fill:#ffffff;fill-opacity:1;" d="M 306.324219 685.632812 C 323.96875 685.632812 340.734375 685.734375 357.507812 685.632812 C 365.46875 685.5625 372.273438 687.332031 371.902344 696.785156 C 371.578125 705.195312 365.167969 707.105469 357.773438 707.09375 C 313.183594 707.039062 268.59375 707.039062 224.003906 707.09375 C 216.585938 707.09375 210.46875 704.976562 210.410156 696.296875 C 210.351562 687.621094 216.414062 685.609375 223.910156 685.664062 C 238.953125 685.792969 253.992188 685.410156 268.941406 685.839844 C 275.789062 686.035156 280.105469 684.359375 283.820312 677.9375 C 359.023438 547.613281 434.761719 417.613281 509.351562 286.945312 C 516.804688 273.800781 523.746094 269.425781 538.589844 269.542969 C 553.238281 269.738281 566.820312 269.980469 580.945312 269.761719 C 588.246094 269.648438 593.535156 272.515625 593.824219 279.863281 C 594.136719 287.960938 588.847656 291.558594 580.878906 291.179688 L 578.226562 291.179688 C 564.5625 290.714844 550.808594 289.269531 539.398438 291.535156 C 537.460938 291.9375 535.664062 292.679688 534.007812 293.761719 C 532.351562 294.84375 530.953125 296.191406 529.808594 297.808594 C 521.984375 308.828125 514.910156 320.308594 508.589844 332.25 C 443.101562 445.234375 377.683594 558.253906 312.328125 671.308594 C 310.015625 675.34375 306.347656 678.957031 306.324219 685.632812 Z M 306.324219 685.632812 "></path></g></g></g></svg><style>@media (prefers-color-scheme: light) { :root { filter: none; } }
@media (prefers-color-scheme: dark) { :root { filter: none; } }
</style></svg>