<svg xmlns="http://www.w3.org/2000/svg" xmlns:xlink="http://www.w3.org/1999/xlink" width="76" zoomAndPan="magnify" viewBox="0 0 56.879997 65.04" height="76" preserveAspectRatio="xMidYMid meet" version="1.2"><defs><clipPath id="bb5e520ecd"><path d="M 0.355469 6.339844 L 56.40625 6.339844 L 56.40625 49.167969 L 0.355469 49.167969 Z M 0.355469 6.339844 "/></clipPath></defs><g id="15b2b697cf"><g clip-rule="nonzero" clip-path="url(#bb5e520ecd)"><path style=" stroke:none;fill-rule:evenodd;fill:#0a4732;fill-opacity:1;" d="M 7.238281 43.183594 L 7.667969 43.183594 C 7.914062 43.183594 8.113281 43.226562 8.261719 43.308594 C 8.410156 43.394531 8.515625 43.523438 8.582031 43.695312 C 8.644531 43.867188 8.675781 44.089844 8.675781 44.367188 C 8.675781 44.75 8.609375 45.03125 8.472656 45.214844 C 8.339844 45.398438 8.085938 45.488281 7.710938 45.488281 L 7.238281 45.488281 Z M 35.214844 41.125 L 35.675781 43.992188 L 34.753906 43.992188 Z M 7.238281 40.398438 L 7.484375 40.398438 C 7.734375 40.398438 7.941406 40.421875 8.105469 40.46875 C 8.265625 40.515625 8.390625 40.605469 8.46875 40.738281 C 8.550781 40.871094 8.59375 41.058594 8.59375 41.300781 C 8.59375 41.53125 8.566406 41.722656 8.511719 41.875 C 8.460938 42.027344 8.363281 42.140625 8.230469 42.210938 C 8.097656 42.285156 7.90625 42.324219 7.660156 42.324219 L 7.238281 42.324219 Z M 25.914062 40.363281 C 26.121094 40.363281 26.273438 40.40625 26.375 40.496094 C 26.476562 40.582031 26.542969 40.703125 26.578125 40.851562 C 26.609375 41.003906 26.628906 41.175781 26.628906 41.367188 L 26.628906 44.515625 C 26.628906 44.703125 26.609375 44.875 26.578125 45.03125 C 26.542969 45.191406 26.476562 45.3125 26.375 45.402344 C 26.273438 45.496094 26.121094 45.539062 25.914062 45.539062 C 25.710938 45.539062 25.558594 45.496094 25.457031 45.402344 C 25.359375 45.3125 25.292969 45.191406 25.261719 45.03125 C 25.230469 44.875 25.214844 44.703125 25.214844 44.515625 L 25.214844 41.367188 C 25.214844 41.175781 25.230469 41.003906 25.261719 40.851562 C 25.292969 40.703125 25.359375 40.582031 25.457031 40.496094 C 25.558594 40.40625 25.710938 40.363281 25.914062 40.363281 Z M 46.957031 39.527344 L 48.339844 43.757812 L 48.339844 46.367188 L 49.523438 46.367188 L 49.523438 43.757812 L 50.886719 39.527344 L 49.75 39.527344 L 48.960938 42.238281 L 48.117188 39.527344 Z M 43.371094 39.527344 L 43.371094 40.449219 L 44.457031 40.449219 L 44.457031 46.367188 L 45.699219 46.367188 L 45.699219 40.449219 L 46.769531 40.449219 L 46.769531 39.527344 Z M 41.507812 39.527344 L 41.507812 46.367188 L 42.738281 46.367188 L 42.738281 39.527344 Z M 37.925781 39.527344 L 37.925781 46.367188 L 40.820312 46.367188 L 40.820312 45.503906 L 39.171875 45.503906 L 39.171875 39.527344 Z M 34.539062 39.527344 L 33.179688 46.367188 L 34.347656 46.367188 L 34.625 44.789062 L 35.8125 44.789062 L 36.082031 46.367188 L 37.234375 46.367188 L 35.871094 39.527344 Z M 28.742188 39.527344 L 28.742188 44.15625 C 28.742188 44.632812 28.796875 45.042969 28.902344 45.386719 C 29.011719 45.730469 29.203125 45.996094 29.484375 46.179688 C 29.765625 46.367188 30.15625 46.460938 30.660156 46.460938 C 31.167969 46.460938 31.566406 46.367188 31.839844 46.179688 C 32.121094 45.996094 32.3125 45.730469 32.417969 45.386719 C 32.523438 45.042969 32.578125 44.632812 32.578125 44.15625 L 32.578125 39.527344 L 31.375 39.527344 L 31.375 44.296875 C 31.375 44.511719 31.359375 44.714844 31.328125 44.902344 C 31.296875 45.089844 31.234375 45.242188 31.136719 45.359375 C 31.039062 45.472656 30.878906 45.53125 30.660156 45.53125 C 30.453125 45.53125 30.296875 45.472656 30.195312 45.359375 C 30.089844 45.242188 30.023438 45.089844 29.996094 44.902344 C 29.96875 44.714844 29.953125 44.511719 29.953125 44.296875 L 29.953125 39.527344 Z M 18.007812 39.527344 L 18.007812 40.449219 L 19.09375 40.449219 L 19.09375 46.367188 L 20.335938 46.367188 L 20.335938 40.449219 L 21.40625 40.449219 L 21.40625 39.527344 Z M 10.65625 39.527344 L 10.65625 46.367188 L 13.535156 46.367188 L 13.535156 45.503906 L 11.902344 45.503906 L 11.902344 43.242188 L 13.175781 43.242188 L 13.175781 42.371094 L 11.902344 42.371094 L 11.902344 40.40625 L 13.515625 40.40625 L 13.515625 39.527344 Z M 5.992188 39.527344 L 5.992188 46.367188 L 7.953125 46.367188 C 8.273438 46.367188 8.550781 46.324219 8.789062 46.238281 C 9.027344 46.15625 9.226562 46.03125 9.386719 45.863281 C 9.546875 45.699219 9.667969 45.488281 9.75 45.238281 C 9.832031 44.988281 9.871094 44.699219 9.871094 44.375 C 9.871094 44.046875 9.828125 43.769531 9.738281 43.539062 C 9.652344 43.308594 9.523438 43.121094 9.34375 42.976562 C 9.167969 42.832031 8.945312 42.738281 8.675781 42.695312 C 8.894531 42.65625 9.078125 42.578125 9.222656 42.460938 C 9.367188 42.347656 9.480469 42.191406 9.554688 41.992188 C 9.632812 41.796875 9.667969 41.558594 9.667969 41.285156 C 9.667969 40.941406 9.621094 40.65625 9.527344 40.429688 C 9.429688 40.207031 9.296875 40.027344 9.117188 39.894531 C 8.941406 39.761719 8.730469 39.667969 8.488281 39.613281 C 8.242188 39.554688 7.96875 39.527344 7.667969 39.527344 Z M 25.914062 39.453125 C 25.429688 39.453125 25.046875 39.539062 24.761719 39.714844 C 24.476562 39.886719 24.269531 40.140625 24.148438 40.46875 C 24.023438 40.796875 23.960938 41.195312 23.960938 41.65625 L 23.960938 44.214844 C 23.960938 44.675781 24.023438 45.074219 24.148438 45.414062 C 24.269531 45.75 24.476562 46.007812 24.761719 46.1875 C 25.046875 46.371094 25.429688 46.460938 25.914062 46.460938 C 25.941406 46.460938 25.96875 46.460938 25.992188 46.460938 C 26.015625 46.460938 26.039062 46.457031 26.0625 46.449219 C 26.175781 46.621094 26.308594 46.789062 26.464844 46.960938 C 26.617188 47.132812 26.773438 47.285156 26.933594 47.421875 C 27.09375 47.558594 27.242188 47.660156 27.382812 47.726562 L 27.621094 46.90625 C 27.546875 46.863281 27.472656 46.804688 27.394531 46.730469 C 27.316406 46.65625 27.234375 46.578125 27.15625 46.492188 C 27.078125 46.410156 27.003906 46.328125 26.929688 46.25 C 27.160156 46.140625 27.34375 45.992188 27.484375 45.796875 C 27.625 45.601562 27.726562 45.375 27.789062 45.109375 C 27.851562 44.84375 27.878906 44.546875 27.878906 44.222656 L 27.878906 41.65625 C 27.878906 41.195312 27.816406 40.796875 27.695312 40.46875 C 27.570312 40.140625 27.367188 39.886719 27.082031 39.714844 C 26.796875 39.539062 26.40625 39.453125 25.914062 39.453125 Z M 15.871094 39.453125 C 15.328125 39.453125 14.898438 39.597656 14.585938 39.890625 C 14.269531 40.183594 14.113281 40.601562 14.113281 41.140625 C 14.113281 41.515625 14.183594 41.835938 14.328125 42.089844 C 14.46875 42.347656 14.660156 42.578125 14.902344 42.785156 L 15.761719 43.546875 C 15.984375 43.738281 16.164062 43.929688 16.296875 44.121094 C 16.433594 44.3125 16.5 44.558594 16.5 44.855469 C 16.5 45.042969 16.457031 45.195312 16.375 45.316406 C 16.289062 45.4375 16.148438 45.496094 15.945312 45.496094 C 15.765625 45.496094 15.621094 45.441406 15.511719 45.332031 C 15.40625 45.222656 15.324219 45.066406 15.269531 44.863281 C 15.21875 44.660156 15.183594 44.425781 15.171875 44.164062 L 14.105469 44.375 C 14.121094 44.824219 14.199219 45.203125 14.339844 45.515625 C 14.480469 45.824219 14.6875 46.058594 14.960938 46.21875 C 15.234375 46.378906 15.578125 46.460938 15.988281 46.460938 C 16.332031 46.460938 16.628906 46.386719 16.882812 46.246094 C 17.140625 46.101562 17.335938 45.902344 17.480469 45.648438 C 17.625 45.394531 17.695312 45.105469 17.695312 44.777344 C 17.695312 44.328125 17.597656 43.945312 17.398438 43.625 C 17.195312 43.308594 16.957031 43.03125 16.679688 42.796875 L 15.828125 42.042969 C 15.648438 41.886719 15.511719 41.734375 15.414062 41.582031 C 15.320312 41.433594 15.273438 41.246094 15.273438 41.015625 C 15.273438 40.832031 15.324219 40.683594 15.417969 40.5625 C 15.519531 40.441406 15.660156 40.378906 15.84375 40.378906 C 16.023438 40.378906 16.160156 40.429688 16.253906 40.523438 C 16.347656 40.621094 16.410156 40.753906 16.445312 40.921875 C 16.480469 41.089844 16.507812 41.28125 16.519531 41.496094 L 17.578125 41.308594 C 17.558594 41.0625 17.519531 40.828125 17.460938 40.605469 C 17.398438 40.382812 17.304688 40.183594 17.179688 40.007812 C 17.050781 39.835938 16.882812 39.699219 16.671875 39.597656 C 16.457031 39.5 16.191406 39.453125 15.871094 39.453125 Z M 0.355469 36.761719 L 56.527344 36.761719 L 53.363281 42.964844 L 56.527344 49.167969 L 0.355469 49.167969 L 3.515625 42.964844 Z M 28.394531 10.820312 L 28.316406 10.839844 L 28.089844 10.863281 L 27.929688 10.929688 L 27.863281 10.945312 L 27.820312 10.976562 L 27.726562 11.015625 L 27.511719 11.1875 L 27.46875 11.21875 L 27.460938 11.230469 L 27.417969 11.265625 C 27.324219 11.363281 27.246094 11.476562 27.1875 11.605469 L 24.945312 16.363281 C 24.847656 16.570312 24.699219 16.746094 24.519531 16.878906 L 24.320312 16.992188 L 24.230469 17.042969 C 24.128906 17.085938 24.015625 17.117188 23.902344 17.132812 L 18.734375 17.886719 C 17.980469 17.996094 17.460938 18.6875 17.574219 19.433594 C 17.613281 19.71875 17.746094 19.980469 17.953125 20.1875 L 19.472656 21.710938 L 19.46875 21.710938 L 21.789062 24.035156 C 22.097656 24.347656 22.238281 24.785156 22.167969 25.214844 L 21.253906 30.59375 C 21.230469 30.746094 21.230469 30.898438 21.257812 31.050781 L 21.273438 31.09375 L 21.273438 31.132812 L 21.328125 31.25 L 21.410156 31.480469 L 21.460938 31.539062 L 21.492188 31.605469 L 21.640625 31.742188 L 21.765625 31.890625 L 21.832031 31.921875 L 21.878906 31.964844 L 22.042969 32.027344 L 22.238281 32.125 L 22.320312 32.132812 L 22.390625 32.160156 L 22.621094 32.15625 L 22.765625 32.171875 L 22.804688 32.15625 L 22.851562 32.15625 C 23.003906 32.132812 23.152344 32.082031 23.289062 32.003906 L 27.769531 29.539062 C 27.871094 29.480469 27.980469 29.4375 28.097656 29.410156 L 28.441406 29.367188 L 28.785156 29.410156 C 28.898438 29.4375 29.007812 29.480469 29.113281 29.539062 L 33.59375 32.003906 C 33.730469 32.082031 33.875 32.132812 34.027344 32.15625 L 34.074219 32.15625 L 34.113281 32.171875 L 34.261719 32.15625 L 34.492188 32.160156 L 34.558594 32.132812 L 34.640625 32.125 L 34.839844 32.027344 L 35.003906 31.964844 L 35.046875 31.921875 L 35.113281 31.890625 L 35.242188 31.742188 L 35.386719 31.605469 L 35.417969 31.539062 L 35.46875 31.480469 L 35.550781 31.25 L 35.605469 31.132812 L 35.609375 31.09375 L 35.621094 31.050781 C 35.652344 30.898438 35.652344 30.746094 35.625 30.59375 L 34.714844 25.214844 C 34.640625 24.785156 34.78125 24.347656 35.089844 24.035156 L 38.03125 21.089844 L 38.027344 21.085938 L 38.925781 20.1875 C 39.132812 19.980469 39.265625 19.71875 39.308594 19.433594 C 39.417969 18.6875 38.898438 17.996094 38.144531 17.886719 L 32.980469 17.132812 C 32.863281 17.117188 32.753906 17.085938 32.648438 17.042969 L 32.558594 16.992188 L 32.359375 16.878906 C 32.179688 16.746094 32.035156 16.570312 31.933594 16.363281 L 29.691406 11.605469 C 29.632812 11.476562 29.554688 11.363281 29.464844 11.265625 L 29.421875 11.230469 L 29.410156 11.21875 L 29.367188 11.1875 L 29.15625 11.015625 L 29.058594 10.976562 L 29.015625 10.945312 L 28.953125 10.929688 L 28.789062 10.863281 L 28.5625 10.839844 L 28.484375 10.820312 L 28.441406 10.824219 Z M 28.347656 6.339844 L 28.515625 6.367188 L 28.53125 6.367188 C 28.90625 6.367188 29.277344 6.5 29.566406 6.769531 C 29.691406 6.882812 29.832031 6.976562 29.980469 7.042969 L 30.332031 7.132812 L 30.753906 7.105469 C 30.914062 7.070312 31.070312 7.007812 31.21875 6.917969 C 31.554688 6.710938 31.945312 6.652344 32.3125 6.722656 L 32.375 6.75 L 32.496094 6.75 C 32.859375 6.820312 33.199219 7.023438 33.429688 7.34375 C 33.53125 7.480469 33.652344 7.597656 33.785156 7.691406 L 34.210938 7.902344 L 34.523438 7.941406 C 34.6875 7.9375 34.855469 7.90625 35.015625 7.84375 C 35.199219 7.773438 35.390625 7.742188 35.582031 7.75 L 35.738281 7.78125 L 35.761719 7.777344 C 36.328125 7.789062 36.859375 8.117188 37.109375 8.65625 C 37.25 8.960938 37.488281 9.203125 37.773438 9.355469 L 38.152344 9.484375 L 38.554688 9.484375 C 38.75 9.453125 38.945312 9.460938 39.128906 9.5 L 39.1875 9.523438 L 39.308594 9.527344 C 39.859375 9.648438 40.316406 10.070312 40.453125 10.644531 C 40.609375 11.304688 41.191406 11.777344 41.878906 11.800781 C 42.675781 11.824219 43.3125 12.457031 43.339844 13.242188 C 43.363281 13.917969 43.84375 14.496094 44.511719 14.648438 C 45.289062 14.828125 45.792969 15.570312 45.664062 16.34375 C 45.550781 17.011719 45.90625 17.667969 46.53125 17.949219 C 47.257812 18.273438 47.605469 19.097656 47.324219 19.835938 C 47.082031 20.46875 47.300781 21.179688 47.855469 21.574219 C 48.503906 22.035156 48.679688 22.910156 48.257812 23.578125 C 47.898438 24.152344 47.972656 24.894531 48.441406 25.386719 C 48.984375 25.960938 48.984375 26.851562 48.441406 27.425781 C 47.972656 27.921875 47.894531 28.664062 48.257812 29.234375 C 48.679688 29.902344 48.503906 30.78125 47.855469 31.238281 C 47.296875 31.632812 47.078125 32.34375 47.320312 32.976562 C 47.601562 33.714844 47.253906 34.542969 46.527344 34.867188 L 46.15625 35.109375 L 10.765625 35.109375 L 10.351562 34.839844 C 9.625 34.511719 9.277344 33.6875 9.5625 32.949219 C 9.804688 32.316406 9.582031 31.605469 9.023438 31.210938 C 8.378906 30.753906 8.199219 29.875 8.621094 29.207031 C 8.984375 28.636719 8.910156 27.894531 8.441406 27.398438 C 7.894531 26.824219 7.894531 25.933594 8.441406 25.359375 C 8.910156 24.867188 8.980469 24.125 8.621094 23.550781 C 8.199219 22.882812 8.378906 22.003906 9.023438 21.546875 C 9.582031 21.152344 9.796875 20.441406 9.554688 19.808594 C 9.273438 19.070312 9.621094 18.246094 10.347656 17.921875 C 10.972656 17.640625 11.328125 16.984375 11.21875 16.316406 C 11.085938 15.542969 11.589844 14.796875 12.367188 14.621094 C 13.035156 14.46875 13.515625 13.890625 13.539062 13.214844 C 13.566406 12.429688 14.207031 11.796875 15.003906 11.773438 C 15.6875 11.75 16.269531 11.273438 16.425781 10.617188 C 16.609375 9.851562 17.359375 9.355469 18.144531 9.484375 C 18.824219 9.59375 19.488281 9.242188 19.769531 8.625 C 20.019531 8.089844 20.550781 7.761719 21.117188 7.75 L 21.289062 7.777344 L 21.296875 7.777344 C 21.488281 7.773438 21.679688 7.800781 21.867188 7.871094 L 22.199219 7.9375 L 22.660156 7.878906 C 22.96875 7.785156 23.25 7.59375 23.449219 7.316406 C 23.796875 6.839844 24.382812 6.621094 24.941406 6.714844 L 25.015625 6.746094 L 25.125 6.742188 C 25.3125 6.777344 25.496094 6.84375 25.664062 6.945312 L 26.078125 7.117188 L 26.425781 7.136719 C 26.75 7.105469 27.0625 6.972656 27.3125 6.742188 C 27.605469 6.472656 27.976562 6.339844 28.347656 6.339844 Z M 28.347656 6.339844 "/></g></g></svg>