<svg xmlns="http://www.w3.org/2000/svg" xmlns:xlink="http://www.w3.org/1999/xlink" width="76" zoomAndPan="magnify" viewBox="0 0 56.879997 65.04" height="76" preserveAspectRatio="xMidYMid meet" version="1.2"><defs><clipPath id="0a2b7c166e"><path d="M 5.941406 0.1875 L 50.285156 0.1875 L 50.285156 55.621094 L 5.941406 55.621094 Z M 5.941406 0.1875 "/></clipPath></defs><g id="756cfda166"><g clip-rule="nonzero" clip-path="url(#0a2b7c166e)"><path style=" stroke:none;fill-rule:nonzero;fill:#0a4732;fill-opacity:1;" d="M 41.949219 39.300781 L 34.324219 37.609375 L 34.324219 35.753906 C 35.578125 35.027344 36.675781 34.105469 37.613281 32.996094 L 40.53125 32.996094 C 40.882812 32.996094 41.222656 32.929688 41.550781 32.792969 C 41.875 32.660156 42.164062 32.464844 42.414062 32.214844 C 42.660156 31.96875 42.855469 31.679688 42.988281 31.351562 C 43.125 31.027344 43.191406 30.6875 43.191406 30.335938 L 43.191406 29.449219 C 43.542969 29.449219 43.882812 29.378906 44.210938 29.246094 C 44.535156 29.109375 44.824219 28.917969 45.074219 28.667969 C 45.324219 28.417969 45.515625 28.132812 45.648438 27.804688 C 45.785156 27.480469 45.851562 27.140625 45.851562 26.789062 L 45.851562 21.464844 C 45.851562 20.902344 45.6875 20.394531 45.363281 19.933594 C 45.035156 19.476562 44.609375 19.152344 44.078125 18.964844 L 44.078125 16.144531 C 44.078125 15.621094 44.054688 15.101562 44 14.578125 C 43.949219 14.058594 43.875 13.542969 43.773438 13.03125 C 43.667969 12.515625 43.542969 12.011719 43.390625 11.511719 C 43.238281 11.011719 43.0625 10.519531 42.863281 10.035156 C 42.664062 9.550781 42.441406 9.082031 42.195312 8.621094 C 41.945312 8.15625 41.679688 7.710938 41.386719 7.273438 C 41.097656 6.839844 40.785156 6.421875 40.453125 6.015625 C 40.121094 5.613281 39.773438 5.226562 39.402344 4.855469 C 39.03125 4.488281 38.644531 4.136719 38.242188 3.804688 C 37.835938 3.472656 37.417969 3.160156 36.984375 2.871094 C 36.546875 2.582031 36.101562 2.3125 35.640625 2.066406 C 35.179688 1.820312 34.707031 1.59375 34.222656 1.394531 C 33.742188 1.195312 33.25 1.019531 32.75 0.867188 C 32.246094 0.714844 31.742188 0.589844 31.230469 0.488281 C 30.714844 0.386719 30.199219 0.308594 29.679688 0.257812 C 29.160156 0.207031 28.636719 0.179688 28.113281 0.179688 C 27.589844 0.179688 27.070312 0.207031 26.550781 0.257812 C 26.027344 0.308594 25.511719 0.386719 25 0.488281 C 24.488281 0.589844 23.980469 0.714844 23.480469 0.867188 C 22.980469 1.019531 22.488281 1.195312 22.003906 1.394531 C 21.523438 1.59375 21.050781 1.820312 20.589844 2.066406 C 20.128906 2.3125 19.679688 2.582031 19.246094 2.871094 C 18.808594 3.160156 18.390625 3.472656 17.988281 3.804688 C 17.582031 4.136719 17.195312 4.488281 16.824219 4.855469 C 16.457031 5.226562 16.105469 5.613281 15.773438 6.015625 C 15.441406 6.421875 15.128906 6.839844 14.839844 7.273438 C 14.550781 7.710938 14.28125 8.15625 14.035156 8.621094 C 13.789062 9.082031 13.566406 9.550781 13.363281 10.035156 C 13.164062 10.519531 12.988281 11.011719 12.835938 11.511719 C 12.683594 12.011719 12.558594 12.515625 12.457031 13.03125 C 12.355469 13.542969 12.277344 14.058594 12.226562 14.578125 C 12.175781 15.101562 12.148438 15.621094 12.148438 16.144531 L 12.148438 18.964844 C 11.621094 19.152344 11.191406 19.476562 10.867188 19.933594 C 10.539062 20.394531 10.378906 20.902344 10.375 21.464844 L 10.375 26.789062 C 10.375 27.140625 10.445312 27.480469 10.578125 27.804688 C 10.714844 28.132812 10.90625 28.417969 11.15625 28.667969 C 11.40625 28.917969 11.691406 29.109375 12.019531 29.246094 C 12.34375 29.378906 12.683594 29.449219 13.035156 29.449219 L 16.53125 29.449219 C 17.042969 30.773438 17.757812 31.976562 18.679688 33.058594 C 19.601562 34.140625 20.675781 35.039062 21.90625 35.753906 L 21.90625 37.609375 L 14.277344 39.300781 C 13.691406 39.429688 13.117188 39.605469 12.558594 39.832031 C 12 40.054688 11.46875 40.328125 10.957031 40.644531 C 10.445312 40.960938 9.960938 41.316406 9.511719 41.71875 C 9.0625 42.117188 8.648438 42.550781 8.269531 43.019531 C 7.894531 43.488281 7.558594 43.984375 7.269531 44.511719 C 6.976562 45.039062 6.730469 45.585938 6.53125 46.152344 C 6.335938 46.722656 6.1875 47.300781 6.085938 47.894531 C 5.988281 48.488281 5.9375 49.085938 5.941406 49.6875 L 5.941406 54.28125 C 5.941406 54.527344 6.027344 54.734375 6.199219 54.910156 C 6.375 55.082031 6.582031 55.167969 6.828125 55.167969 L 49.398438 55.167969 C 49.644531 55.167969 49.855469 55.082031 50.027344 54.910156 C 50.199219 54.734375 50.285156 54.527344 50.285156 54.28125 L 50.285156 49.6875 C 50.289062 49.085938 50.242188 48.488281 50.140625 47.894531 C 50.042969 47.300781 49.894531 46.722656 49.695312 46.152344 C 49.496094 45.585938 49.25 45.039062 48.960938 44.511719 C 48.667969 43.984375 48.332031 43.488281 47.957031 43.019531 C 47.582031 42.550781 47.167969 42.117188 46.714844 41.71875 C 46.265625 41.316406 45.785156 40.960938 45.273438 40.644531 C 44.761719 40.328125 44.226562 40.054688 43.667969 39.832031 C 43.109375 39.605469 42.539062 39.429688 41.949219 39.300781 Z M 35.617188 39.710938 L 32.257812 45.09375 L 29.542969 43.460938 L 33.71875 39.292969 Z M 41.417969 30.335938 C 41.417969 30.582031 41.332031 30.789062 41.15625 30.960938 C 40.984375 31.136719 40.777344 31.222656 40.53125 31.222656 L 38.855469 31.222656 C 39.195312 30.65625 39.492188 30.0625 39.742188 29.449219 L 41.417969 29.449219 Z M 38.757812 18.804688 L 35.945312 18.804688 C 35.230469 18.804688 34.53125 18.714844 33.839844 18.535156 C 33.148438 18.355469 32.492188 18.089844 31.871094 17.738281 C 31.25 17.386719 30.683594 16.964844 30.171875 16.46875 C 29.660156 15.96875 29.21875 15.417969 28.851562 14.804688 C 28.769531 14.671875 28.664062 14.566406 28.527344 14.488281 C 28.390625 14.410156 28.242188 14.371094 28.085938 14.371094 C 27.929688 14.371094 27.785156 14.410156 27.648438 14.488281 C 27.511719 14.566406 27.40625 14.671875 27.324219 14.804688 C 26.957031 15.417969 26.515625 15.96875 26.003906 16.46875 C 25.492188 16.964844 24.925781 17.386719 24.300781 17.738281 C 23.679688 18.089844 23.023438 18.355469 22.335938 18.535156 C 21.644531 18.714844 20.941406 18.804688 20.230469 18.804688 L 17.472656 18.804688 L 17.472656 16.144531 C 17.472656 15.445312 17.539062 14.753906 17.675781 14.070312 C 17.8125 13.382812 18.015625 12.71875 18.28125 12.070312 C 18.546875 11.425781 18.875 10.8125 19.265625 10.230469 C 19.652344 9.652344 20.09375 9.113281 20.589844 8.617188 C 21.082031 8.125 21.621094 7.683594 22.203125 7.296875 C 22.78125 6.90625 23.394531 6.578125 24.042969 6.3125 C 24.6875 6.042969 25.351562 5.84375 26.039062 5.707031 C 26.722656 5.570312 27.414062 5.5 28.113281 5.5 C 28.8125 5.5 29.503906 5.570312 30.191406 5.707031 C 30.875 5.84375 31.542969 6.042969 32.1875 6.3125 C 32.832031 6.578125 33.445312 6.90625 34.027344 7.296875 C 34.609375 7.683594 35.144531 8.125 35.640625 8.617188 C 36.132812 9.113281 36.574219 9.652344 36.964844 10.230469 C 37.351562 10.8125 37.679688 11.425781 37.945312 12.070312 C 38.214844 12.71875 38.417969 13.382812 38.550781 14.070312 C 38.6875 14.753906 38.757812 15.445312 38.757812 16.144531 Z M 44.078125 26.789062 C 44.078125 27.03125 43.992188 27.242188 43.820312 27.414062 C 43.644531 27.589844 43.4375 27.675781 43.191406 27.675781 L 40.238281 27.675781 C 40.429688 26.796875 40.527344 25.910156 40.53125 25.015625 L 40.53125 20.578125 L 43.191406 20.578125 C 43.4375 20.578125 43.644531 20.664062 43.820312 20.839844 C 43.992188 21.011719 44.078125 21.222656 44.078125 21.464844 Z M 28.113281 1.953125 C 29.046875 1.953125 29.96875 2.046875 30.882812 2.226562 C 31.796875 2.410156 32.683594 2.679688 33.542969 3.035156 C 34.40625 3.390625 35.222656 3.828125 35.996094 4.34375 C 36.773438 4.863281 37.488281 5.453125 38.148438 6.109375 C 38.808594 6.769531 39.394531 7.484375 39.914062 8.261719 C 40.429688 9.035156 40.867188 9.851562 41.222656 10.714844 C 41.582031 11.574219 41.851562 12.460938 42.03125 13.375 C 42.214844 14.289062 42.304688 15.214844 42.304688 16.144531 L 42.304688 18.804688 L 40.53125 18.804688 L 40.53125 16.144531 C 40.53125 15.328125 40.453125 14.523438 40.292969 13.722656 C 40.132812 12.921875 39.898438 12.144531 39.585938 11.394531 C 39.273438 10.640625 38.890625 9.925781 38.4375 9.246094 C 37.984375 8.570312 37.46875 7.941406 36.894531 7.363281 C 36.316406 6.789062 35.691406 6.273438 35.011719 5.820312 C 34.335938 5.367188 33.617188 4.984375 32.867188 4.671875 C 32.113281 4.359375 31.335938 4.125 30.535156 3.964844 C 29.738281 3.808594 28.929688 3.726562 28.113281 3.726562 C 27.296875 3.726562 26.492188 3.808594 25.691406 3.964844 C 24.890625 4.125 24.117188 4.359375 23.363281 4.671875 C 22.609375 4.984375 21.894531 5.367188 21.214844 5.820312 C 20.539062 6.273438 19.910156 6.789062 19.335938 7.363281 C 18.757812 7.941406 18.242188 8.570312 17.789062 9.246094 C 17.335938 9.925781 16.953125 10.640625 16.640625 11.394531 C 16.332031 12.144531 16.09375 12.921875 15.9375 13.722656 C 15.777344 14.523438 15.699219 15.328125 15.699219 16.144531 L 15.699219 18.804688 L 13.921875 18.804688 L 13.921875 16.144531 C 13.921875 15.214844 14.015625 14.289062 14.195312 13.375 C 14.378906 12.460938 14.648438 11.574219 15.003906 10.714844 C 15.359375 9.851562 15.796875 9.035156 16.316406 8.261719 C 16.832031 7.484375 17.421875 6.769531 18.078125 6.109375 C 18.738281 5.453125 19.457031 4.863281 20.230469 4.34375 C 21.003906 3.828125 21.824219 3.390625 22.683594 3.035156 C 23.542969 2.679688 24.433594 2.410156 25.34375 2.226562 C 26.257812 2.046875 27.183594 1.953125 28.113281 1.953125 Z M 13.035156 27.675781 C 12.792969 27.675781 12.582031 27.589844 12.410156 27.414062 C 12.234375 27.242188 12.148438 27.03125 12.148438 26.789062 L 12.148438 21.464844 C 12.148438 21.222656 12.234375 21.011719 12.410156 20.839844 C 12.582031 20.664062 12.792969 20.578125 13.035156 20.578125 L 15.699219 20.578125 L 15.699219 25.015625 C 15.699219 25.910156 15.796875 26.796875 15.988281 27.675781 Z M 17.472656 25.015625 L 17.472656 20.578125 L 20.28125 20.578125 C 21.804688 20.574219 23.253906 20.242188 24.625 19.582031 C 25.996094 18.921875 27.160156 17.996094 28.113281 16.808594 C 29.066406 17.996094 30.230469 18.921875 31.601562 19.582031 C 32.976562 20.242188 34.421875 20.574219 35.945312 20.578125 L 38.757812 20.578125 L 38.757812 25.015625 C 38.753906 27.300781 38.082031 29.367188 36.742188 31.222656 L 30.613281 31.222656 C 30.546875 31.027344 30.453125 30.839844 30.34375 30.664062 C 30.230469 30.492188 30.097656 30.332031 29.949219 30.1875 C 29.796875 30.042969 29.632812 29.917969 29.453125 29.8125 C 29.273438 29.707031 29.085938 29.625 28.886719 29.566406 C 28.6875 29.503906 28.484375 29.46875 28.277344 29.453125 C 28.066406 29.441406 27.863281 29.453125 27.65625 29.488281 C 27.453125 29.523438 27.253906 29.582031 27.0625 29.660156 C 26.871094 29.742188 26.691406 29.847656 26.523438 29.96875 C 26.355469 30.09375 26.207031 30.234375 26.074219 30.394531 C 25.9375 30.554688 25.824219 30.726562 25.730469 30.910156 C 25.636719 31.097656 25.566406 31.292969 25.519531 31.492188 C 25.46875 31.695312 25.445312 31.902344 25.445312 32.109375 C 25.445312 32.316406 25.46875 32.523438 25.519531 32.726562 C 25.566406 32.925781 25.636719 33.121094 25.730469 33.308594 C 25.824219 33.492188 25.9375 33.664062 26.074219 33.824219 C 26.207031 33.984375 26.355469 34.125 26.523438 34.25 C 26.691406 34.371094 26.871094 34.472656 27.0625 34.554688 C 27.253906 34.636719 27.453125 34.695312 27.65625 34.730469 C 27.863281 34.765625 28.066406 34.777344 28.277344 34.765625 C 28.484375 34.75 28.6875 34.714844 28.886719 34.652344 C 29.085938 34.59375 29.273438 34.507812 29.453125 34.402344 C 29.632812 34.296875 29.796875 34.175781 29.949219 34.03125 C 30.097656 33.886719 30.230469 33.726562 30.34375 33.550781 C 30.453125 33.378906 30.546875 33.191406 30.613281 32.996094 L 35.128906 32.996094 C 34.359375 33.667969 33.511719 34.222656 32.585938 34.648438 C 31.660156 35.078125 30.691406 35.371094 29.679688 35.519531 C 28.667969 35.671875 27.65625 35.675781 26.644531 35.535156 C 25.632812 35.390625 24.660156 35.113281 23.730469 34.691406 C 22.800781 34.269531 21.945312 33.726562 21.171875 33.058594 C 20.398438 32.394531 19.734375 31.628906 19.175781 30.773438 C 18.621094 29.914062 18.199219 28.996094 17.910156 28.015625 C 17.621094 27.035156 17.472656 26.035156 17.472656 25.015625 Z M 29 32.109375 C 29 32.355469 28.914062 32.5625 28.742188 32.734375 C 28.566406 32.910156 28.359375 32.996094 28.113281 32.996094 C 27.871094 32.996094 27.660156 32.910156 27.488281 32.734375 C 27.3125 32.5625 27.226562 32.355469 27.226562 32.109375 C 27.226562 31.863281 27.3125 31.65625 27.488281 31.480469 C 27.660156 31.308594 27.871094 31.222656 28.113281 31.222656 C 28.359375 31.222656 28.566406 31.308594 28.742188 31.480469 C 28.914062 31.65625 29 31.863281 29 32.109375 Z M 28.113281 37.429688 C 29.644531 37.429688 31.121094 37.148438 32.546875 36.597656 L 32.546875 37.953125 L 28.113281 42.386719 L 23.679688 37.953125 L 23.679688 36.597656 C 25.105469 37.148438 26.585938 37.429688 28.113281 37.429688 Z M 22.507812 39.292969 L 26.6875 43.460938 L 23.972656 45.09375 L 20.609375 39.710938 Z M 7.714844 49.6875 C 7.714844 49.1875 7.757812 48.691406 7.839844 48.195312 C 7.925781 47.703125 8.050781 47.21875 8.21875 46.746094 C 8.382812 46.273438 8.589844 45.820312 8.832031 45.382812 C 9.074219 44.945312 9.351562 44.53125 9.667969 44.140625 C 9.980469 43.75 10.324219 43.386719 10.699219 43.054688 C 11.074219 42.722656 11.472656 42.425781 11.898438 42.160156 C 12.324219 41.894531 12.765625 41.667969 13.230469 41.476562 C 13.695312 41.289062 14.171875 41.140625 14.660156 41.03125 L 18.773438 40.144531 L 22.925781 46.796875 C 23.105469 47.0625 23.355469 47.195312 23.679688 47.1875 C 23.839844 47.1875 23.992188 47.144531 24.132812 47.0625 L 27.226562 45.207031 L 27.226562 53.394531 L 14.808594 53.394531 L 14.808594 48.960938 L 13.035156 48.960938 L 13.035156 53.394531 L 7.714844 53.394531 Z M 48.511719 53.394531 L 43.191406 53.394531 L 43.191406 48.960938 L 41.417969 48.960938 L 41.417969 53.394531 L 29 53.394531 L 29 45.207031 L 32.097656 47.0625 C 32.234375 47.144531 32.386719 47.1875 32.546875 47.1875 C 32.878906 47.1875 33.128906 47.046875 33.300781 46.769531 L 37.453125 40.089844 L 41.570312 40.976562 C 42.058594 41.085938 42.539062 41.238281 43.003906 41.425781 C 43.46875 41.617188 43.914062 41.847656 44.339844 42.113281 C 44.769531 42.378906 45.167969 42.679688 45.546875 43.015625 C 45.921875 43.347656 46.265625 43.714844 46.578125 44.105469 C 46.890625 44.5 47.171875 44.917969 47.414062 45.359375 C 47.65625 45.796875 47.859375 46.257812 48.023438 46.730469 C 48.1875 47.207031 48.3125 47.691406 48.394531 48.1875 C 48.476562 48.683594 48.515625 49.183594 48.511719 49.6875 Z M 48.511719 53.394531 "/></g></g></svg>