<svg xmlns="http://www.w3.org/2000/svg" xmlns:xlink="http://www.w3.org/1999/xlink" width="76" zoomAndPan="magnify" viewBox="0 0 56.879997 65.04" height="76" preserveAspectRatio="xMidYMid meet" version="1.2"><defs><clipPath id="c399279024"><path d="M 31 18 L 56.40625 18 L 56.40625 40 L 31 40 Z M 31 18 "/></clipPath><clipPath id="42e5835042"><path d="M 39 32 L 52 32 L 52 44.152344 L 39 44.152344 Z M 39 32 "/></clipPath><clipPath id="626be5a45c"><path d="M 14 32 L 26 32 L 26 44.152344 L 14 44.152344 Z M 14 32 "/></clipPath><clipPath id="76908e8425"><path d="M 0.355469 30 L 17 30 L 17 33 L 0.355469 33 Z M 0.355469 30 "/></clipPath><clipPath id="07374ea3eb"><path d="M 9 11.628906 L 40 11.628906 L 40 40 L 9 40 Z M 9 11.628906 "/></clipPath></defs><g id="6516072125"><path style=" stroke:none;fill-rule:nonzero;fill:#0a4732;fill-opacity:1;" d="M 15.445312 39.5 L 10.800781 39.5 C 10.160156 39.5 9.640625 38.980469 9.640625 38.339844 C 9.640625 37.699219 10.160156 37.175781 10.800781 37.175781 L 15.445312 37.175781 C 16.085938 37.175781 16.605469 37.699219 16.605469 38.339844 C 16.605469 38.980469 16.085938 39.5 15.445312 39.5 Z M 15.445312 39.5 "/><g clip-rule="nonzero" clip-path="url(#c399279024)"><path style=" stroke:none;fill-rule:nonzero;fill:#0a4732;fill-opacity:1;" d="M 53.171875 39.5 L 50.269531 39.5 C 49.628906 39.5 49.109375 38.980469 49.109375 38.339844 C 49.109375 37.699219 49.628906 37.175781 50.269531 37.175781 L 52.210938 37.175781 L 53.773438 28.839844 C 53.753906 24.570312 50.109375 20.925781 45.628906 20.925781 L 38.003906 20.925781 L 34.3125 37.175781 L 40.984375 37.175781 C 41.625 37.175781 42.144531 37.699219 42.144531 38.339844 C 42.144531 38.980469 41.625 39.5 40.984375 39.5 L 32.859375 39.5 C 32.503906 39.5 32.171875 39.339844 31.949219 39.0625 C 31.730469 38.789062 31.644531 38.425781 31.726562 38.082031 L 35.945312 19.507812 C 36.066406 18.976562 36.535156 18.605469 37.078125 18.605469 L 45.628906 18.605469 C 51.386719 18.605469 56.074219 23.292969 56.074219 29.050781 L 54.3125 38.550781 C 54.210938 39.101562 53.734375 39.5 53.171875 39.5 Z M 53.171875 39.5 "/></g><g clip-rule="nonzero" clip-path="url(#42e5835042)"><path style=" stroke:none;fill-rule:nonzero;fill:#0a4732;fill-opacity:1;" d="M 45.628906 44.144531 C 42.429688 44.144531 39.824219 41.539062 39.824219 38.339844 C 39.824219 35.136719 42.429688 32.535156 45.628906 32.535156 C 48.828125 32.535156 51.433594 35.136719 51.433594 38.339844 C 51.433594 41.539062 48.828125 44.144531 45.628906 44.144531 Z M 45.628906 34.855469 C 43.707031 34.855469 42.144531 36.417969 42.144531 38.339844 C 42.144531 40.257812 43.707031 41.820312 45.628906 41.820312 C 47.546875 41.820312 49.109375 40.257812 49.109375 38.339844 C 49.109375 36.417969 47.546875 34.855469 45.628906 34.855469 Z M 45.628906 34.855469 "/></g><g clip-rule="nonzero" clip-path="url(#626be5a45c)"><path style=" stroke:none;fill-rule:nonzero;fill:#0a4732;fill-opacity:1;" d="M 20.089844 44.144531 C 16.890625 44.144531 14.285156 41.539062 14.285156 38.339844 C 14.285156 35.136719 16.890625 32.535156 20.089844 32.535156 C 23.289062 32.535156 25.894531 35.136719 25.894531 38.339844 C 25.894531 41.539062 23.289062 44.144531 20.089844 44.144531 Z M 20.089844 34.855469 C 18.167969 34.855469 16.605469 36.417969 16.605469 38.339844 C 16.605469 40.257812 18.167969 41.820312 20.089844 41.820312 C 22.007812 41.820312 23.570312 40.257812 23.570312 38.339844 C 23.570312 36.417969 22.007812 34.855469 20.089844 34.855469 Z M 20.089844 34.855469 "/></g><path style=" stroke:none;fill-rule:nonzero;fill:#0a4732;fill-opacity:1;" d="M 15.445312 18.605469 L 6.160156 18.605469 C 5.519531 18.605469 4.996094 18.082031 4.996094 17.441406 C 4.996094 16.800781 5.519531 16.28125 6.160156 16.28125 L 15.445312 16.28125 C 16.085938 16.28125 16.605469 16.800781 16.605469 17.441406 C 16.605469 18.082031 16.085938 18.605469 15.445312 18.605469 Z M 15.445312 18.605469 "/><path style=" stroke:none;fill-rule:nonzero;fill:#0a4732;fill-opacity:1;" d="M 15.445312 25.570312 L 3.835938 25.570312 C 3.195312 25.570312 2.675781 25.050781 2.675781 24.410156 C 2.675781 23.765625 3.195312 23.246094 3.835938 23.246094 L 15.445312 23.246094 C 16.085938 23.246094 16.605469 23.765625 16.605469 24.410156 C 16.605469 25.050781 16.085938 25.570312 15.445312 25.570312 Z M 15.445312 25.570312 "/><g clip-rule="nonzero" clip-path="url(#76908e8425)"><path style=" stroke:none;fill-rule:nonzero;fill:#0a4732;fill-opacity:1;" d="M 15.445312 32.535156 L 1.515625 32.535156 C 0.875 32.535156 0.355469 32.015625 0.355469 31.375 C 0.355469 30.734375 0.875 30.210938 1.515625 30.210938 L 15.445312 30.210938 C 16.085938 30.210938 16.605469 30.734375 16.605469 31.375 C 16.605469 32.015625 16.085938 32.535156 15.445312 32.535156 Z M 15.445312 32.535156 "/></g><g clip-rule="nonzero" clip-path="url(#07374ea3eb)"><path style=" stroke:none;fill-rule:nonzero;fill:#0a4732;fill-opacity:1;" d="M 32.859375 39.5 L 24.730469 39.5 C 24.089844 39.5 23.570312 38.980469 23.570312 38.339844 C 23.570312 37.699219 24.089844 37.175781 24.730469 37.175781 L 31.933594 37.175781 L 37.207031 13.960938 L 10.800781 13.960938 C 10.160156 13.960938 9.640625 13.441406 9.640625 12.800781 C 9.640625 12.160156 10.160156 11.640625 10.800781 11.640625 L 38.664062 11.640625 C 39.015625 11.640625 39.351562 11.800781 39.570312 12.074219 C 39.789062 12.347656 39.875 12.710938 39.796875 13.054688 L 33.992188 38.59375 C 33.871094 39.125 33.398438 39.5 32.859375 39.5 Z M 32.859375 39.5 "/></g></g></svg>