<svg xmlns="http://www.w3.org/2000/svg" xmlns:xlink="http://www.w3.org/1999/xlink" width="76" zoomAndPan="magnify" viewBox="0 0 56.879997 65.04" height="76" preserveAspectRatio="xMidYMid meet" version="1.2"><defs><clipPath id="b4aea6e51f"><path d="M 0.355469 7 L 54 7 L 54 51 L 0.355469 51 Z M 0.355469 7 "/></clipPath></defs><g id="0844e0a4f4"><path style=" stroke:none;fill-rule:nonzero;fill:#0a4732;fill-opacity:1;" d="M 21.535156 43.867188 C 18.695312 41.855469 16.59375 39.242188 15.234375 36.035156 C 15.136719 35.796875 15.136719 35.558594 15.238281 35.316406 C 15.335938 35.078125 15.503906 34.90625 15.742188 34.808594 C 15.980469 34.707031 16.21875 34.703125 16.460938 34.800781 C 16.703125 34.894531 16.875 35.0625 16.976562 35.300781 C 18.195312 38.175781 20.078125 40.519531 22.628906 42.324219 C 22.839844 42.476562 22.96875 42.679688 23.011719 42.933594 C 23.054688 43.191406 23 43.425781 22.851562 43.636719 C 22.699219 43.851562 22.496094 43.980469 22.238281 44.023438 C 21.984375 44.066406 21.75 44.015625 21.535156 43.867188 Z M 21.535156 43.867188 "/><path style=" stroke:none;fill-rule:nonzero;fill:#0a4732;fill-opacity:1;" d="M 14.308594 33.222656 C 14.1875 32.722656 14.089844 32.210938 14.011719 31.699219 C 13.972656 31.441406 14.03125 31.210938 14.1875 31 C 14.34375 30.792969 14.546875 30.667969 14.804688 30.628906 C 15.0625 30.589844 15.292969 30.648438 15.503906 30.800781 C 15.714844 30.953125 15.839844 31.160156 15.878906 31.414062 C 15.949219 31.875 16.039062 32.332031 16.144531 32.777344 C 16.207031 33.03125 16.167969 33.265625 16.03125 33.488281 C 15.898438 33.710938 15.703125 33.851562 15.449219 33.914062 C 15.195312 33.976562 14.957031 33.9375 14.734375 33.804688 C 14.511719 33.667969 14.371094 33.472656 14.308594 33.222656 Z M 14.308594 33.222656 "/><g clip-rule="nonzero" clip-path="url(#b4aea6e51f)"><path style=" stroke:none;fill-rule:nonzero;fill:#0a4732;fill-opacity:1;" d="M 25.578125 8.832031 C 25.332031 8.914062 25.152344 9.070312 25.035156 9.300781 C 24.917969 9.535156 24.898438 9.773438 24.976562 10.019531 C 25.058594 10.265625 25.210938 10.449219 25.441406 10.570312 C 25.671875 10.6875 25.914062 10.707031 26.160156 10.628906 C 27.332031 10.257812 28.527344 9.996094 29.75 9.855469 C 29.167969 11.546875 29.964844 12.742188 31.328125 13.742188 C 31.523438 13.875 31.707031 14.023438 31.878906 14.1875 C 31.902344 15.1875 29.960938 16.46875 28.777344 16.671875 C 25.332031 17.265625 22.59375 17.28125 21.753906 18.835938 C 20.53125 21.105469 22.824219 22.945312 23.613281 23.890625 C 25.839844 26.5625 27.117188 26.71875 29.328125 26.382812 C 31.332031 26.082031 31.363281 27.261719 33.730469 27.28125 C 34.792969 27.292969 35.414062 28.199219 36.21875 28.910156 C 37.144531 29.703125 38.148438 30.378906 39.234375 30.929688 C 40.992188 31.914062 40.199219 33.332031 39.503906 34.847656 C 37.605469 38.960938 34.914062 39.332031 32.199219 43.160156 C 31.648438 43.972656 31.304688 44.863281 31.160156 45.832031 C 30.582031 45.203125 30.210938 44.46875 30.046875 43.628906 C 29.515625 40.777344 34.03125 38.121094 28.933594 34.773438 C 28.121094 34.363281 27.515625 33.742188 27.121094 32.921875 C 26.464844 31.300781 27.695312 30.875 26.878906 28.613281 C 25.671875 25.253906 20.933594 24.367188 18.464844 21.363281 C 20.054688 20.105469 21.265625 18.554688 22.09375 16.707031 C 22.605469 15.480469 22.90625 14.203125 23 12.878906 C 23.09375 11.550781 22.96875 10.246094 22.632812 8.960938 C 22.605469 8.851562 22.5625 8.75 22.511719 8.65625 C 22.457031 8.558594 22.390625 8.472656 22.3125 8.394531 C 22.238281 8.316406 22.152344 8.246094 22.054688 8.191406 C 21.960938 8.136719 21.859375 8.09375 21.753906 8.0625 C 21.648438 8.03125 21.539062 8.015625 21.429688 8.015625 C 21.320312 8.011719 21.210938 8.027344 21.105469 8.054688 C 21 8.078125 20.898438 8.121094 20.800781 8.171875 C 20.703125 8.226562 20.617188 8.292969 20.539062 8.367188 C 17.234375 11.527344 15.183594 10.042969 11.816406 14.1875 C 10.574219 15.722656 9.542969 18.554688 11.695312 23.359375 L 11.707031 23.390625 C 11.503906 24.140625 11.34375 24.902344 11.226562 25.671875 C 11.148438 25.585938 11.074219 25.5 10.996094 25.417969 C 10.472656 21.882812 8.769531 19.160156 5.1875 19.585938 C 4.15625 19.773438 3.148438 19.6875 2.164062 19.328125 C 1.699219 19.148438 1.277344 19.222656 0.902344 19.542969 C 0.523438 19.867188 0.386719 20.273438 0.492188 20.757812 C 0.714844 21.78125 1.121094 22.722656 1.714844 23.582031 C 2.3125 24.445312 3.046875 25.160156 3.925781 25.726562 C 4.792969 26.273438 5.726562 26.644531 6.734375 26.839844 C 7.738281 27.035156 8.746094 27.042969 9.753906 26.859375 C 10.367188 27.484375 10.773438 28.21875 10.972656 29.070312 C 10.984375 31.898438 11.542969 34.609375 12.648438 37.210938 C 12.75 37.449219 12.921875 37.617188 13.164062 37.714844 C 13.40625 37.808594 13.648438 37.808594 13.886719 37.703125 C 14.125 37.601562 14.292969 37.429688 14.390625 37.191406 C 14.488281 36.949219 14.488281 36.707031 14.386719 36.46875 C 13.546875 34.492188 13.054688 32.433594 12.902344 30.289062 C 12.753906 28.148438 12.957031 26.039062 13.511719 23.964844 C 14.707031 23.597656 15.835938 23.09375 16.90625 22.449219 C 19.671875 25.910156 24.175781 26.683594 25.101562 29.257812 C 25.671875 30.835938 24.449219 31.355469 25.367188 33.628906 C 25.902344 34.820312 26.746094 35.730469 27.898438 36.355469 C 31.679688 38.839844 27.417969 39.875 28.191406 43.976562 C 28.453125 45.46875 29.175781 46.679688 30.363281 47.613281 C 31.453125 48.335938 32.632812 48.074219 33.027344 46.152344 C 33.121094 45.464844 33.359375 44.832031 33.742188 44.253906 C 36.257812 40.703125 39.109375 40.207031 41.21875 35.640625 C 42.503906 33.007812 42.800781 30.761719 40.160156 29.28125 C 39.191406 28.792969 38.296875 28.199219 37.472656 27.496094 C 36.292969 26.453125 35.660156 25.40625 33.75 25.390625 C 31.710938 25.367188 31.875 24.089844 29.046875 24.511719 C 27.511719 24.746094 26.855469 24.832031 25.066406 22.679688 C 24.371094 21.847656 22.902344 20.6875 23.417969 19.734375 C 23.773438 19.199219 26.894531 18.917969 29.101562 18.535156 C 30.757812 18.25 33.824219 16.488281 33.769531 14.140625 C 33.71875 13.734375 33.578125 13.359375 33.34375 13.019531 C 33.113281 12.679688 32.8125 12.414062 32.449219 12.222656 C 31.007812 11.160156 31.457031 10.890625 31.820312 9.710938 C 32.226562 9.695312 32.636719 9.707031 33.042969 9.746094 C 34 11.390625 36.203125 13.144531 38.242188 12.753906 C 39.042969 12.554688 39.726562 12.160156 40.292969 11.558594 C 41.15625 11.964844 41.988281 12.425781 42.78125 12.953125 C 42.636719 15.492188 44.4375 18.496094 47.816406 17.890625 C 47.992188 18.140625 48.160156 18.398438 48.324219 18.660156 C 47.574219 19.359375 47.074219 20.210938 46.824219 21.207031 C 46.449219 22.664062 46.917969 23.457031 47.25 25.203125 C 47.9375 28.824219 46.964844 30.824219 48.613281 31.527344 C 48.925781 31.636719 49.25 31.667969 49.578125 31.617188 C 49.90625 31.566406 50.203125 31.4375 50.46875 31.234375 C 50.695312 31.105469 50.976562 30.921875 51.210938 31.007812 C 51.109375 31.945312 50.941406 32.871094 50.703125 33.785156 C 50.464844 34.699219 50.160156 35.589844 49.792969 36.460938 C 49.421875 37.332031 48.992188 38.167969 48.5 38.972656 C 48.007812 39.777344 47.457031 40.542969 46.851562 41.269531 C 46.246094 41.992188 45.589844 42.671875 44.886719 43.296875 C 44.179688 43.925781 43.433594 44.5 42.644531 45.019531 C 41.855469 45.535156 41.03125 45.992188 40.175781 46.390625 C 39.316406 46.789062 38.4375 47.121094 37.53125 47.386719 C 36.625 47.652344 35.703125 47.851562 34.769531 47.984375 C 33.832031 48.117188 32.894531 48.179688 31.949219 48.171875 C 31.003906 48.164062 30.066406 48.089844 29.132812 47.941406 C 28.199219 47.796875 27.28125 47.585938 26.378906 47.304688 C 25.476562 47.023438 24.601562 46.679688 23.75 46.269531 C 22.898438 45.859375 22.082031 45.390625 21.300781 44.859375 C 20.519531 44.332031 19.78125 43.746094 19.085938 43.109375 C 18.390625 42.46875 17.746094 41.785156 17.148438 41.050781 C 16.984375 40.851562 16.773438 40.738281 16.515625 40.710938 C 16.257812 40.683594 16.027344 40.753906 15.824219 40.917969 C 15.625 41.082031 15.507812 41.292969 15.480469 41.550781 C 15.453125 41.808594 15.519531 42.039062 15.683594 42.242188 C 16.488281 43.234375 17.375 44.148438 18.347656 44.976562 C 19.316406 45.808594 20.355469 46.546875 21.460938 47.191406 C 22.5625 47.832031 23.71875 48.371094 24.917969 48.804688 C 26.121094 49.238281 27.355469 49.5625 28.613281 49.773438 C 29.875 49.984375 31.144531 50.078125 32.421875 50.058594 C 33.703125 50.039062 34.96875 49.902344 36.222656 49.652344 C 37.476562 49.402344 38.695312 49.042969 39.882812 48.570312 C 41.070312 48.097656 42.207031 47.523438 43.292969 46.847656 C 44.375 46.167969 45.390625 45.398438 46.332031 44.539062 C 47.277344 43.675781 48.136719 42.738281 48.910156 41.71875 C 49.683594 40.703125 50.359375 39.621094 50.9375 38.480469 C 51.515625 37.34375 51.984375 36.160156 52.347656 34.933594 C 52.710938 33.707031 52.960938 32.460938 53.097656 31.1875 C 53.234375 29.917969 53.257812 28.644531 53.160156 27.371094 C 53.066406 26.09375 52.859375 24.839844 52.535156 23.601562 C 52.214844 22.363281 51.78125 21.167969 51.242188 20.007812 C 50.703125 18.851562 50.0625 17.75 49.324219 16.707031 C 48.582031 15.664062 47.753906 14.695312 46.839844 13.804688 C 45.925781 12.910156 44.9375 12.109375 43.875 11.394531 C 42.816406 10.683594 41.699219 10.070312 40.527344 9.5625 C 39.355469 9.050781 38.144531 8.648438 36.902344 8.359375 C 35.65625 8.066406 34.394531 7.890625 33.121094 7.828125 C 31.84375 7.765625 30.570312 7.820312 29.304688 7.988281 C 28.035156 8.15625 26.792969 8.4375 25.578125 8.832031 Z M 13.285156 15.378906 C 16.046875 11.976562 17.765625 13.089844 21.007812 10.464844 C 21.324219 12.351562 21.113281 14.175781 20.367188 15.9375 C 19.730469 17.285156 18.867188 18.464844 17.773438 19.472656 C 16.679688 20.484375 15.4375 21.253906 14.042969 21.785156 C 14.738281 19.675781 15.960938 17.945312 17.714844 16.59375 C 17.917969 16.429688 18.035156 16.222656 18.066406 15.964844 C 18.097656 15.707031 18.035156 15.472656 17.875 15.269531 C 17.714844 15.066406 17.507812 14.945312 17.25 14.914062 C 16.992188 14.878906 16.757812 14.941406 16.554688 15.101562 C 14.78125 16.472656 13.464844 18.1875 12.601562 20.257812 C 12.089844 18.21875 12.3125 16.582031 13.285156 15.378906 Z M 2.6875 21.4375 C 3.59375 21.59375 4.5 21.601562 5.410156 21.464844 C 5.734375 21.402344 6.0625 21.402344 6.386719 21.464844 C 6.710938 21.523438 7.015625 21.640625 7.300781 21.8125 C 7.582031 21.984375 7.824219 22.203125 8.027344 22.464844 C 8.230469 22.726562 8.382812 23.015625 8.476562 23.332031 C 7.898438 22.925781 7.265625 22.613281 6.589844 22.402344 C 6.339844 22.328125 6.101562 22.351562 5.871094 22.476562 C 5.644531 22.597656 5.492188 22.785156 5.417969 23.03125 C 5.339844 23.28125 5.363281 23.519531 5.484375 23.75 C 5.605469 23.980469 5.792969 24.132812 6.039062 24.210938 C 6.636719 24.390625 7.179688 24.671875 7.671875 25.058594 C 6.6875 24.972656 5.777344 24.664062 4.945312 24.136719 C 3.910156 23.472656 3.15625 22.574219 2.6875 21.4375 Z M 35.792969 10.066406 C 36.636719 10.234375 37.464844 10.457031 38.277344 10.738281 C 37.480469 11.191406 36.503906 10.644531 35.792969 10.066406 Z M 45.03125 14.742188 C 45.457031 15.128906 45.863281 15.535156 46.25 15.957031 C 45.671875 15.722656 45.265625 15.320312 45.03125 14.742188 Z M 49.464844 29.628906 C 49.484375 28.023438 49.363281 26.433594 49.109375 24.847656 C 48.816406 23.316406 48.445312 22.5 48.65625 21.679688 C 48.78125 21.199219 48.992188 20.757812 49.285156 20.359375 C 50.675781 23.109375 51.351562 26.023438 51.320312 29.101562 C 50.640625 29.0625 50.023438 29.234375 49.464844 29.628906 Z M 49.464844 29.628906 "/></g><path style=" stroke:none;fill-rule:nonzero;fill:#0a4732;fill-opacity:1;" d="M 15.746094 39.332031 C 15.746094 39.59375 15.652344 39.816406 15.46875 40.003906 C 15.285156 40.1875 15.0625 40.277344 14.800781 40.277344 C 14.539062 40.277344 14.316406 40.1875 14.132812 40.003906 C 13.949219 39.816406 13.855469 39.59375 13.855469 39.332031 C 13.855469 39.074219 13.949219 38.851562 14.132812 38.664062 C 14.316406 38.480469 14.539062 38.386719 14.800781 38.386719 C 15.0625 38.386719 15.285156 38.480469 15.46875 38.664062 C 15.652344 38.851562 15.746094 39.074219 15.746094 39.332031 Z M 15.746094 39.332031 "/></g></svg>