<svg xmlns="http://www.w3.org/2000/svg" xmlns:xlink="http://www.w3.org/1999/xlink" width="500" zoomAndPan="magnify" viewBox="0 0 375 374.999991" height="500" preserveAspectRatio="xMidYMid meet" version="1.2"><defs/><g id="3bae74d39f"><path style=" stroke:none;fill-rule:nonzero;fill:#ffffff;fill-opacity:1;" d="M 3.699219 142.589844 L 3.699219 223.761719 C 3.699219 225.074219 3.699219 225.074219 5.015625 225.074219 L 90.808594 225.074219 C 90.644531 225.449219 90.320312 225.242188 90.078125 225.246094 C 84.394531 225.257812 78.707031 225.257812 73.019531 225.246094 C 50.125 225.246094 27.230469 225.25 4.332031 225.261719 C 3.652344 225.261719 3.5 225.109375 3.5 224.429688 C 3.519531 197.417969 3.53125 170.40625 3.527344 143.398438 C 3.53125 143.144531 3.320312 142.792969 3.699219 142.589844 Z M 3.699219 142.589844 "/><path style=" stroke:none;fill-rule:nonzero;fill:#0c4833;fill-opacity:1;" d="M 24.914062 202.828125 L 80.117188 108.179688 C 80.398438 107.695312 80.644531 107.210938 80.964844 106.746094 C 81.738281 105.667969 82.664062 105.09375 84.019531 105.824219 C 85.261719 106.496094 85.539062 107.632812 84.871094 108.917969 C 84.578125 109.492188 84.242188 110.046875 83.917969 110.613281 C 63.371094 145.835938 42.828125 181.058594 22.285156 216.285156 C 21.402344 217.796875 20.761719 219.449219 18.339844 218.839844 C 15.828125 218.210938 15.949219 216.4375 15.949219 214.539062 C 15.949219 195.304688 15.921875 176.070312 16.007812 156.832031 C 16.007812 154.773438 15.558594 154.28125 13.4375 154.253906 C 10.6875 154.21875 8.628906 154.292969 6.222656 154.308594 C 4.707031 154.308594 3.652344 153.714844 3.625 152.109375 C 3.582031 149.988281 4.523438 150.019531 7.789062 150.03125 C 10.671875 150.03125 10.75 150.1875 16.332031 150.03125 C 20.023438 149.929688 20.472656 150.671875 20.457031 152.734375 C 20.433594 157.917969 20.457031 163.09375 20.457031 168.273438 L 20.457031 210.453125 C 21.945312 207.910156 23.429688 205.367188 24.914062 202.828125 Z M 24.914062 202.828125 "/><path style=" stroke:none;fill-rule:nonzero;fill:#0c4833;fill-opacity:1;" d="M 23.753906 236.9375 C 27.453125 236.9375 30.96875 236.960938 34.488281 236.9375 C 36.15625 236.925781 37.582031 237.296875 37.503906 239.277344 C 37.4375 241.039062 36.09375 241.4375 34.542969 241.433594 C 25.191406 241.425781 15.839844 241.425781 6.488281 241.433594 C 4.933594 241.433594 3.648438 240.992188 3.636719 239.171875 C 3.625 237.355469 4.894531 236.933594 6.46875 236.945312 C 9.621094 236.972656 12.777344 236.894531 15.910156 236.980469 C 17.347656 237.023438 18.253906 236.671875 19.03125 235.328125 C 34.804688 208.019531 50.6875 180.785156 66.332031 153.40625 C 67.902344 150.652344 69.351562 149.734375 72.464844 149.769531 C 75.535156 149.808594 78.382812 149.859375 81.347656 149.816406 C 82.878906 149.789062 83.988281 150.390625 84.046875 151.929688 C 84.113281 153.628906 83.003906 154.382812 81.332031 154.300781 C 81.148438 154.300781 80.960938 154.300781 80.777344 154.300781 C 77.910156 154.203125 75.027344 153.902344 72.632812 154.378906 C 71.789062 154.550781 71.121094 154.988281 70.621094 155.691406 C 68.980469 157.996094 67.496094 160.398438 66.171875 162.898438 C 52.441406 186.570312 38.722656 210.25 25.011719 233.9375 C 24.527344 234.785156 23.757812 235.539062 23.753906 236.9375 Z M 23.753906 236.9375 "/><g style="fill:#0a4732;fill-opacity:1;"><g transform="translate(105.075432, 195.096106)"><path style="stroke:none" d="M 22.890625 0 L 20.90625 0 L 0.625 -30.015625 L 5.125 -30.015625 L 21.890625 -5.1875 L 38.671875 -30.015625 L 43.171875 -30.015625 Z M 22.890625 0 "/></g></g><g style="fill:#0a4732;fill-opacity:1;"><g transform="translate(148.869613, 195.096106)"><path style="stroke:none" d="M 7.90625 0 L 7.90625 -30.015625 L 4.1875 -30.015625 L 4.1875 0 Z M 7.90625 0 "/></g></g><g style="fill:#0a4732;fill-opacity:1;"><g transform="translate(160.963753, 195.096106)"><path style="stroke:none" d="M 40.1875 0 L 37.65625 0 L 7.90625 -24.234375 L 7.90625 0 L 4.1875 0 L 4.1875 -30.015625 L 6.71875 -30.015625 L 36.453125 -5.78125 L 36.453125 -30.015625 L 40.1875 -30.015625 Z M 40.1875 0 "/></g></g><g style="fill:#0a4732;fill-opacity:1;"><g transform="translate(205.322885, 195.096106)"><path style="stroke:none" d="M 19.125 0 L 15.40625 0 L 15.40625 -26.28125 L 0.625 -26.28125 L 0.625 -30.015625 L 33.90625 -30.015625 L 33.90625 -26.28125 L 19.125 -26.28125 Z M 19.125 0 "/></g></g><g style="fill:#0a4732;fill-opacity:1;"><g transform="translate(239.84768, 195.096106)"><path style="stroke:none" d="M 43.171875 0 L 38.671875 0 L 34.09375 -6.78125 L 9.6875 -6.78125 L 5.125 0 L 0.625 0 L 20.90625 -30.015625 L 22.875 -30.015625 Z M 31.578125 -10.5 L 21.890625 -24.8125 L 12.21875 -10.5 Z M 31.578125 -10.5 "/></g></g><g style="fill:#0a4732;fill-opacity:1;"><g transform="translate(283.641861, 195.096106)"><path style="stroke:none" d="M 40.1875 0 L 36.453125 0 L 36.453125 -8.1875 C 36.453125 -9.03125 36.148438 -9.753906 35.546875 -10.359375 C 34.941406 -10.972656 34.210938 -11.28125 33.359375 -11.28125 L 7.90625 -11.28125 L 7.90625 0 L 4.1875 0 L 4.1875 -30.015625 L 33.359375 -30.015625 C 35.242188 -30.015625 36.851562 -29.347656 38.1875 -28.015625 C 39.519531 -26.679688 40.1875 -25.070312 40.1875 -23.1875 L 40.1875 -18.109375 C 40.1875 -16.148438 39.472656 -14.492188 38.046875 -13.140625 C 39.472656 -11.785156 40.1875 -10.132812 40.1875 -8.1875 Z M 33.359375 -15 C 34.210938 -15 34.941406 -15.300781 35.546875 -15.90625 C 36.148438 -16.519531 36.453125 -17.253906 36.453125 -18.109375 L 36.453125 -23.1875 C 36.453125 -24.039062 36.148438 -24.769531 35.546875 -25.375 C 34.941406 -25.976562 34.210938 -26.28125 33.359375 -26.28125 L 7.90625 -26.28125 L 7.90625 -15 Z M 33.359375 -15 "/></g></g><g style="fill:#0a4732;fill-opacity:1;"><g transform="translate(326.954787, 195.096106)"><path style="stroke:none" d="M 43.171875 0 L 38.671875 0 L 34.09375 -6.78125 L 9.6875 -6.78125 L 5.125 0 L 0.625 0 L 20.90625 -30.015625 L 22.875 -30.015625 Z M 31.578125 -10.5 L 21.890625 -24.8125 L 12.21875 -10.5 Z M 31.578125 -10.5 "/></g></g><g style="fill:#0a4732;fill-opacity:1;"><g transform="translate(115.153612, 213.722375)"><path style="stroke:none" d="M 1.453125 -10.984375 L 2.859375 -10.984375 L 2.859375 0 L 1.453125 0 Z M 1.453125 -10.984375 "/></g></g><g style="fill:#0a4732;fill-opacity:1;"><g transform="translate(130.085217, 213.722375)"><path style="stroke:none" d="M 8.59375 -10.984375 L 10 -10.984375 L 10 0 L 8.75 0 L 2.859375 -8.65625 L 2.859375 0 L 1.453125 0 L 1.453125 -10.984375 L 2.796875 -10.984375 L 8.59375 -2.4375 Z M 8.59375 -10.984375 "/></g></g><g style="fill:#0a4732;fill-opacity:1;"><g transform="translate(152.166158, 213.722375)"><path style="stroke:none" d="M 0.34375 -9.6875 L 0.34375 -10.984375 L 8.65625 -10.984375 L 8.65625 -9.6875 L 5.3125 -9.6875 L 5.3125 0 L 3.890625 0 L 3.890625 -9.6875 Z M 0.34375 -9.6875 "/></g></g><g style="fill:#0a4732;fill-opacity:1;"><g transform="translate(171.810864, 213.722375)"><path style="stroke:none" d="M 1.453125 0 L 1.453125 -10.984375 L 8.375 -10.984375 L 8.375 -9.75 L 2.859375 -9.75 L 2.859375 -6.15625 L 7.828125 -6.15625 L 7.828125 -4.921875 L 2.859375 -4.921875 L 2.859375 -1.265625 L 8.515625 -1.25 L 8.515625 0 Z M 1.453125 0 "/></g></g><g style="fill:#0a4732;fill-opacity:1;"><g transform="translate(192.062875, 213.722375)"><path style="stroke:none" d="M 9.296875 0 L 7.8125 0 L 5.8125 -4.734375 L 2.859375 -4.734375 L 2.859375 0 L 1.453125 0 L 1.453125 -10.984375 L 5.703125 -10.984375 C 6.492188 -10.984375 7.15625 -10.863281 7.6875 -10.625 C 8.21875 -10.382812 8.613281 -10.039062 8.875 -9.59375 C 9.132812 -9.144531 9.265625 -8.609375 9.265625 -7.984375 C 9.265625 -7.378906 9.160156 -6.878906 8.953125 -6.484375 C 8.742188 -6.097656 8.476562 -5.78125 8.15625 -5.53125 C 7.832031 -5.289062 7.492188 -5.109375 7.140625 -4.984375 Z M 5.25 -5.890625 C 6.070312 -5.890625 6.707031 -6.054688 7.15625 -6.390625 C 7.613281 -6.734375 7.84375 -7.234375 7.84375 -7.890625 C 7.84375 -8.546875 7.640625 -9.03125 7.234375 -9.34375 C 6.828125 -9.664062 6.273438 -9.828125 5.578125 -9.828125 L 2.859375 -9.828125 L 2.859375 -5.890625 Z M 5.25 -5.890625 "/></g></g><g style="fill:#0a4732;fill-opacity:1;"><g transform="translate(212.967451, 213.722375)"><path style="stroke:none" d="M 8.59375 -10.984375 L 10 -10.984375 L 10 0 L 8.75 0 L 2.859375 -8.65625 L 2.859375 0 L 1.453125 0 L 1.453125 -10.984375 L 2.796875 -10.984375 L 8.59375 -2.4375 Z M 8.59375 -10.984375 "/></g></g><g style="fill:#0a4732;fill-opacity:1;"><g transform="translate(235.048392, 213.722375)"><path style="stroke:none" d="M 0.625 0 L 4.609375 -10.984375 L 6.1875 -10.984375 L 10.15625 0 L 8.71875 0 L 7.640625 -3 L 3.15625 -3 L 2.0625 0 Z M 3.515625 -4.296875 L 7.28125 -4.296875 L 5.40625 -9.59375 Z M 3.515625 -4.296875 "/></g></g><g style="fill:#0a4732;fill-opacity:1;"><g transform="translate(255.284182, 213.722375)"><path style="stroke:none" d="M 0.34375 -9.6875 L 0.34375 -10.984375 L 8.65625 -10.984375 L 8.65625 -9.6875 L 5.3125 -9.6875 L 5.3125 0 L 3.890625 0 L 3.890625 -9.6875 Z M 0.34375 -9.6875 "/></g></g><g style="fill:#0a4732;fill-opacity:1;"><g transform="translate(274.928888, 213.722375)"><path style="stroke:none" d="M 1.453125 -10.984375 L 2.859375 -10.984375 L 2.859375 0 L 1.453125 0 Z M 1.453125 -10.984375 "/></g></g><g style="fill:#0a4732;fill-opacity:1;"><g transform="translate(289.860493, 213.722375)"><path style="stroke:none" d="M 5.59375 0.15625 C 4.613281 0.15625 3.765625 -0.0625 3.046875 -0.5 C 2.335938 -0.945312 1.785156 -1.585938 1.390625 -2.421875 C 1.003906 -3.265625 0.8125 -4.28125 0.8125 -5.46875 C 0.8125 -6.664062 1.003906 -7.6875 1.390625 -8.53125 C 1.785156 -9.375 2.34375 -10.015625 3.0625 -10.453125 C 3.78125 -10.898438 4.625 -11.125 5.59375 -11.125 C 6.5625 -11.125 7.398438 -10.898438 8.109375 -10.453125 C 8.816406 -10.015625 9.363281 -9.375 9.75 -8.53125 C 10.132812 -7.695312 10.328125 -6.675781 10.328125 -5.46875 C 10.328125 -4.28125 10.132812 -3.265625 9.75 -2.421875 C 9.375 -1.585938 8.828125 -0.945312 8.109375 -0.5 C 7.398438 -0.0625 6.5625 0.15625 5.59375 0.15625 Z M 5.59375 -1.078125 C 6.269531 -1.078125 6.84375 -1.226562 7.3125 -1.53125 C 7.789062 -1.84375 8.15625 -2.320312 8.40625 -2.96875 C 8.65625 -3.613281 8.78125 -4.441406 8.78125 -5.453125 C 8.78125 -6.472656 8.65625 -7.3125 8.40625 -7.96875 C 8.15625 -8.625 7.789062 -9.109375 7.3125 -9.421875 C 6.832031 -9.742188 6.257812 -9.90625 5.59375 -9.90625 C 4.925781 -9.90625 4.347656 -9.742188 3.859375 -9.421875 C 3.378906 -9.109375 3.007812 -8.625 2.75 -7.96875 C 2.5 -7.3125 2.375 -6.472656 2.375 -5.453125 C 2.375 -4.441406 2.5 -3.613281 2.75 -2.96875 C 3.007812 -2.320312 3.378906 -1.84375 3.859375 -1.53125 C 4.347656 -1.226562 4.925781 -1.078125 5.59375 -1.078125 Z M 5.59375 -1.078125 "/></g></g><g style="fill:#0a4732;fill-opacity:1;"><g transform="translate(311.63785, 213.722375)"><path style="stroke:none" d="M 8.59375 -10.984375 L 10 -10.984375 L 10 0 L 8.75 0 L 2.859375 -8.65625 L 2.859375 0 L 1.453125 0 L 1.453125 -10.984375 L 2.796875 -10.984375 L 8.59375 -2.4375 Z M 8.59375 -10.984375 "/></g></g><g style="fill:#0a4732;fill-opacity:1;"><g transform="translate(333.718791, 213.722375)"><path style="stroke:none" d="M 0.625 0 L 4.609375 -10.984375 L 6.1875 -10.984375 L 10.15625 0 L 8.71875 0 L 7.640625 -3 L 3.15625 -3 L 2.0625 0 Z M 3.515625 -4.296875 L 7.28125 -4.296875 L 5.40625 -9.59375 Z M 3.515625 -4.296875 "/></g></g><g style="fill:#0a4732;fill-opacity:1;"><g transform="translate(355.131856, 213.722375)"><path style="stroke:none" d="M 1.453125 -10.984375 L 2.890625 -10.984375 L 2.890625 -1.265625 L 8.078125 -1.265625 L 8.078125 0 L 1.453125 0 Z M 1.453125 -10.984375 "/></g></g></g></svg>