<svg xmlns="http://www.w3.org/2000/svg" xmlns:xlink="http://www.w3.org/1999/xlink" width="500" zoomAndPan="magnify" viewBox="0 0 375 374.999991" height="500" preserveAspectRatio="xMidYMid meet" version="1.2"><defs/><g id="5500ed81e2"><path style=" stroke:none;fill-rule:nonzero;fill:#ffffff;fill-opacity:1;" d="M 3.621094 142.574219 L 3.621094 223.71875 C 3.621094 225.027344 3.621094 225.027344 4.9375 225.027344 L 90.617188 225.027344 C 90.457031 225.40625 90.132812 225.199219 89.890625 225.199219 C 84.210938 225.214844 78.535156 225.214844 72.855469 225.199219 C 49.988281 225.199219 27.121094 225.207031 4.253906 225.21875 C 3.574219 225.21875 3.417969 225.066406 3.417969 224.386719 C 3.441406 197.382812 3.453125 170.378906 3.449219 143.378906 C 3.449219 143.125 3.242188 142.773438 3.621094 142.574219 Z M 3.621094 142.574219 "/><path style=" stroke:none;fill-rule:nonzero;fill:#ffffff;fill-opacity:1;" d="M 24.808594 202.792969 L 79.941406 108.171875 C 80.222656 107.6875 80.464844 107.203125 80.789062 106.738281 C 81.558594 105.660156 82.484375 105.085938 83.835938 105.816406 C 85.082031 106.492188 85.355469 107.625 84.691406 108.910156 C 84.394531 109.484375 84.058594 110.039062 83.734375 110.605469 C 63.21875 145.816406 42.699219 181.03125 22.179688 216.242188 C 21.300781 217.753906 20.660156 219.40625 18.242188 218.796875 C 15.734375 218.167969 15.855469 216.398438 15.855469 214.5 C 15.855469 195.269531 15.828125 176.039062 15.910156 156.808594 C 15.910156 154.753906 15.464844 154.257812 13.34375 154.230469 C 10.601562 154.199219 8.542969 154.273438 6.136719 154.289062 C 4.625 154.289062 3.574219 153.691406 3.546875 152.085938 C 3.503906 149.964844 4.441406 149.996094 7.703125 150.011719 C 10.585938 150.011719 10.664062 150.164062 16.238281 150.011719 C 19.921875 149.90625 20.375 150.648438 20.355469 152.714844 C 20.335938 157.894531 20.355469 163.070312 20.355469 168.25 L 20.355469 210.414062 C 21.839844 207.871094 23.324219 205.328125 24.808594 202.792969 Z M 24.808594 202.792969 "/><path style=" stroke:none;fill-rule:nonzero;fill:#ffffff;fill-opacity:1;" d="M 23.648438 236.890625 C 27.34375 236.890625 30.855469 236.914062 34.367188 236.890625 C 36.035156 236.875 37.460938 237.246094 37.382812 239.226562 C 37.316406 240.988281 35.972656 241.390625 34.425781 241.386719 C 25.085938 241.375 15.746094 241.375 6.40625 241.386719 C 4.851562 241.386719 3.570312 240.945312 3.558594 239.125 C 3.546875 237.308594 4.816406 236.886719 6.386719 236.898438 C 9.535156 236.925781 12.6875 236.84375 15.816406 236.933594 C 17.253906 236.976562 18.15625 236.625 18.933594 235.28125 C 34.6875 207.984375 50.550781 180.753906 66.171875 153.382812 C 67.742188 150.628906 69.1875 149.714844 72.296875 149.75 C 75.367188 149.789062 78.210938 149.839844 81.167969 149.792969 C 82.699219 149.769531 83.804688 150.371094 83.867188 151.910156 C 83.933594 153.605469 82.824219 154.359375 81.15625 154.28125 C 80.96875 154.28125 80.785156 154.28125 80.601562 154.28125 C 77.738281 154.183594 74.855469 153.878906 72.46875 154.355469 C 71.625 154.527344 70.953125 154.964844 70.457031 155.667969 C 68.820312 157.972656 67.339844 160.375 66.011719 162.875 C 52.300781 186.539062 38.597656 210.210938 24.90625 233.890625 C 24.421875 234.738281 23.652344 235.492188 23.648438 236.890625 Z M 23.648438 236.890625 "/><g style="fill:#ffffff;fill-opacity:1;"><g transform="translate(105.075432, 195.096106)"><path style="stroke:none" d="M 22.890625 0 L 20.90625 0 L 0.625 -30.015625 L 5.125 -30.015625 L 21.890625 -5.1875 L 38.671875 -30.015625 L 43.171875 -30.015625 Z M 22.890625 0 "/></g></g><g style="fill:#ffffff;fill-opacity:1;"><g transform="translate(148.869613, 195.096106)"><path style="stroke:none" d="M 7.90625 0 L 7.90625 -30.015625 L 4.1875 -30.015625 L 4.1875 0 Z M 7.90625 0 "/></g></g><g style="fill:#ffffff;fill-opacity:1;"><g transform="translate(160.963753, 195.096106)"><path style="stroke:none" d="M 40.1875 0 L 37.65625 0 L 7.90625 -24.234375 L 7.90625 0 L 4.1875 0 L 4.1875 -30.015625 L 6.71875 -30.015625 L 36.453125 -5.78125 L 36.453125 -30.015625 L 40.1875 -30.015625 Z M 40.1875 0 "/></g></g><g style="fill:#ffffff;fill-opacity:1;"><g transform="translate(205.322885, 195.096106)"><path style="stroke:none" d="M 19.125 0 L 15.40625 0 L 15.40625 -26.28125 L 0.625 -26.28125 L 0.625 -30.015625 L 33.90625 -30.015625 L 33.90625 -26.28125 L 19.125 -26.28125 Z M 19.125 0 "/></g></g><g style="fill:#ffffff;fill-opacity:1;"><g transform="translate(239.84768, 195.096106)"><path style="stroke:none" d="M 43.171875 0 L 38.671875 0 L 34.09375 -6.78125 L 9.6875 -6.78125 L 5.125 0 L 0.625 0 L 20.90625 -30.015625 L 22.875 -30.015625 Z M 31.578125 -10.5 L 21.890625 -24.8125 L 12.21875 -10.5 Z M 31.578125 -10.5 "/></g></g><g style="fill:#ffffff;fill-opacity:1;"><g transform="translate(283.641861, 195.096106)"><path style="stroke:none" d="M 40.1875 0 L 36.453125 0 L 36.453125 -8.1875 C 36.453125 -9.03125 36.148438 -9.753906 35.546875 -10.359375 C 34.941406 -10.972656 34.210938 -11.28125 33.359375 -11.28125 L 7.90625 -11.28125 L 7.90625 0 L 4.1875 0 L 4.1875 -30.015625 L 33.359375 -30.015625 C 35.242188 -30.015625 36.851562 -29.347656 38.1875 -28.015625 C 39.519531 -26.679688 40.1875 -25.070312 40.1875 -23.1875 L 40.1875 -18.109375 C 40.1875 -16.148438 39.472656 -14.492188 38.046875 -13.140625 C 39.472656 -11.785156 40.1875 -10.132812 40.1875 -8.1875 Z M 33.359375 -15 C 34.210938 -15 34.941406 -15.300781 35.546875 -15.90625 C 36.148438 -16.519531 36.453125 -17.253906 36.453125 -18.109375 L 36.453125 -23.1875 C 36.453125 -24.039062 36.148438 -24.769531 35.546875 -25.375 C 34.941406 -25.976562 34.210938 -26.28125 33.359375 -26.28125 L 7.90625 -26.28125 L 7.90625 -15 Z M 33.359375 -15 "/></g></g><g style="fill:#ffffff;fill-opacity:1;"><g transform="translate(326.954787, 195.096106)"><path style="stroke:none" d="M 43.171875 0 L 38.671875 0 L 34.09375 -6.78125 L 9.6875 -6.78125 L 5.125 0 L 0.625 0 L 20.90625 -30.015625 L 22.875 -30.015625 Z M 31.578125 -10.5 L 21.890625 -24.8125 L 12.21875 -10.5 Z M 31.578125 -10.5 "/></g></g><g style="fill:#ffffff;fill-opacity:1;"><g transform="translate(115.153612, 213.722375)"><path style="stroke:none" d="M 1.453125 -10.984375 L 2.859375 -10.984375 L 2.859375 0 L 1.453125 0 Z M 1.453125 -10.984375 "/></g></g><g style="fill:#ffffff;fill-opacity:1;"><g transform="translate(130.085217, 213.722375)"><path style="stroke:none" d="M 8.59375 -10.984375 L 10 -10.984375 L 10 0 L 8.75 0 L 2.859375 -8.65625 L 2.859375 0 L 1.453125 0 L 1.453125 -10.984375 L 2.796875 -10.984375 L 8.59375 -2.4375 Z M 8.59375 -10.984375 "/></g></g><g style="fill:#ffffff;fill-opacity:1;"><g transform="translate(152.166158, 213.722375)"><path style="stroke:none" d="M 0.34375 -9.6875 L 0.34375 -10.984375 L 8.65625 -10.984375 L 8.65625 -9.6875 L 5.3125 -9.6875 L 5.3125 0 L 3.890625 0 L 3.890625 -9.6875 Z M 0.34375 -9.6875 "/></g></g><g style="fill:#ffffff;fill-opacity:1;"><g transform="translate(171.810864, 213.722375)"><path style="stroke:none" d="M 1.453125 0 L 1.453125 -10.984375 L 8.375 -10.984375 L 8.375 -9.75 L 2.859375 -9.75 L 2.859375 -6.15625 L 7.828125 -6.15625 L 7.828125 -4.921875 L 2.859375 -4.921875 L 2.859375 -1.265625 L 8.515625 -1.25 L 8.515625 0 Z M 1.453125 0 "/></g></g><g style="fill:#ffffff;fill-opacity:1;"><g transform="translate(192.062875, 213.722375)"><path style="stroke:none" d="M 9.296875 0 L 7.8125 0 L 5.8125 -4.734375 L 2.859375 -4.734375 L 2.859375 0 L 1.453125 0 L 1.453125 -10.984375 L 5.703125 -10.984375 C 6.492188 -10.984375 7.15625 -10.863281 7.6875 -10.625 C 8.21875 -10.382812 8.613281 -10.039062 8.875 -9.59375 C 9.132812 -9.144531 9.265625 -8.609375 9.265625 -7.984375 C 9.265625 -7.378906 9.160156 -6.878906 8.953125 -6.484375 C 8.742188 -6.097656 8.476562 -5.78125 8.15625 -5.53125 C 7.832031 -5.289062 7.492188 -5.109375 7.140625 -4.984375 Z M 5.25 -5.890625 C 6.070312 -5.890625 6.707031 -6.054688 7.15625 -6.390625 C 7.613281 -6.734375 7.84375 -7.234375 7.84375 -7.890625 C 7.84375 -8.546875 7.640625 -9.03125 7.234375 -9.34375 C 6.828125 -9.664062 6.273438 -9.828125 5.578125 -9.828125 L 2.859375 -9.828125 L 2.859375 -5.890625 Z M 5.25 -5.890625 "/></g></g><g style="fill:#ffffff;fill-opacity:1;"><g transform="translate(212.967451, 213.722375)"><path style="stroke:none" d="M 8.59375 -10.984375 L 10 -10.984375 L 10 0 L 8.75 0 L 2.859375 -8.65625 L 2.859375 0 L 1.453125 0 L 1.453125 -10.984375 L 2.796875 -10.984375 L 8.59375 -2.4375 Z M 8.59375 -10.984375 "/></g></g><g style="fill:#ffffff;fill-opacity:1;"><g transform="translate(235.048392, 213.722375)"><path style="stroke:none" d="M 0.625 0 L 4.609375 -10.984375 L 6.1875 -10.984375 L 10.15625 0 L 8.71875 0 L 7.640625 -3 L 3.15625 -3 L 2.0625 0 Z M 3.515625 -4.296875 L 7.28125 -4.296875 L 5.40625 -9.59375 Z M 3.515625 -4.296875 "/></g></g><g style="fill:#ffffff;fill-opacity:1;"><g transform="translate(255.284182, 213.722375)"><path style="stroke:none" d="M 0.34375 -9.6875 L 0.34375 -10.984375 L 8.65625 -10.984375 L 8.65625 -9.6875 L 5.3125 -9.6875 L 5.3125 0 L 3.890625 0 L 3.890625 -9.6875 Z M 0.34375 -9.6875 "/></g></g><g style="fill:#ffffff;fill-opacity:1;"><g transform="translate(274.928888, 213.722375)"><path style="stroke:none" d="M 1.453125 -10.984375 L 2.859375 -10.984375 L 2.859375 0 L 1.453125 0 Z M 1.453125 -10.984375 "/></g></g><g style="fill:#ffffff;fill-opacity:1;"><g transform="translate(289.860493, 213.722375)"><path style="stroke:none" d="M 5.59375 0.15625 C 4.613281 0.15625 3.765625 -0.0625 3.046875 -0.5 C 2.335938 -0.945312 1.785156 -1.585938 1.390625 -2.421875 C 1.003906 -3.265625 0.8125 -4.28125 0.8125 -5.46875 C 0.8125 -6.664062 1.003906 -7.6875 1.390625 -8.53125 C 1.785156 -9.375 2.34375 -10.015625 3.0625 -10.453125 C 3.78125 -10.898438 4.625 -11.125 5.59375 -11.125 C 6.5625 -11.125 7.398438 -10.898438 8.109375 -10.453125 C 8.816406 -10.015625 9.363281 -9.375 9.75 -8.53125 C 10.132812 -7.695312 10.328125 -6.675781 10.328125 -5.46875 C 10.328125 -4.28125 10.132812 -3.265625 9.75 -2.421875 C 9.375 -1.585938 8.828125 -0.945312 8.109375 -0.5 C 7.398438 -0.0625 6.5625 0.15625 5.59375 0.15625 Z M 5.59375 -1.078125 C 6.269531 -1.078125 6.84375 -1.226562 7.3125 -1.53125 C 7.789062 -1.84375 8.15625 -2.320312 8.40625 -2.96875 C 8.65625 -3.613281 8.78125 -4.441406 8.78125 -5.453125 C 8.78125 -6.472656 8.65625 -7.3125 8.40625 -7.96875 C 8.15625 -8.625 7.789062 -9.109375 7.3125 -9.421875 C 6.832031 -9.742188 6.257812 -9.90625 5.59375 -9.90625 C 4.925781 -9.90625 4.347656 -9.742188 3.859375 -9.421875 C 3.378906 -9.109375 3.007812 -8.625 2.75 -7.96875 C 2.5 -7.3125 2.375 -6.472656 2.375 -5.453125 C 2.375 -4.441406 2.5 -3.613281 2.75 -2.96875 C 3.007812 -2.320312 3.378906 -1.84375 3.859375 -1.53125 C 4.347656 -1.226562 4.925781 -1.078125 5.59375 -1.078125 Z M 5.59375 -1.078125 "/></g></g><g style="fill:#ffffff;fill-opacity:1;"><g transform="translate(311.63785, 213.722375)"><path style="stroke:none" d="M 8.59375 -10.984375 L 10 -10.984375 L 10 0 L 8.75 0 L 2.859375 -8.65625 L 2.859375 0 L 1.453125 0 L 1.453125 -10.984375 L 2.796875 -10.984375 L 8.59375 -2.4375 Z M 8.59375 -10.984375 "/></g></g><g style="fill:#ffffff;fill-opacity:1;"><g transform="translate(333.718791, 213.722375)"><path style="stroke:none" d="M 0.625 0 L 4.609375 -10.984375 L 6.1875 -10.984375 L 10.15625 0 L 8.71875 0 L 7.640625 -3 L 3.15625 -3 L 2.0625 0 Z M 3.515625 -4.296875 L 7.28125 -4.296875 L 5.40625 -9.59375 Z M 3.515625 -4.296875 "/></g></g><g style="fill:#ffffff;fill-opacity:1;"><g transform="translate(355.131856, 213.722375)"><path style="stroke:none" d="M 1.453125 -10.984375 L 2.890625 -10.984375 L 2.890625 -1.265625 L 8.078125 -1.265625 L 8.078125 0 L 1.453125 0 Z M 1.453125 -10.984375 "/></g></g></g></svg>