<svg xmlns="http://www.w3.org/2000/svg" xmlns:xlink="http://www.w3.org/1999/xlink" width="500" zoomAndPan="magnify" viewBox="0 0 375 374.999991" height="500" preserveAspectRatio="xMidYMid meet" version="1.2"><defs/><g id="e69ef05800"><path style=" stroke:none;fill-rule:nonzero;fill:#ffffff;fill-opacity:1;" d="M 151.101562 131.652344 L 151.101562 204.261719 C 151.101562 205.4375 151.101562 205.4375 152.277344 205.4375 L 228.949219 205.4375 C 228.804688 205.773438 228.515625 205.589844 228.300781 205.589844 C 223.21875 205.601562 218.136719 205.601562 213.054688 205.589844 C 192.59375 205.589844 172.128906 205.59375 151.667969 205.605469 C 151.058594 205.605469 150.921875 205.46875 150.921875 204.863281 C 150.941406 180.695312 150.949219 156.535156 150.949219 132.375 C 150.949219 132.144531 150.761719 131.832031 151.101562 131.652344 Z M 151.101562 131.652344 "/><path style=" stroke:none;fill-rule:nonzero;fill:#ffffff;fill-opacity:1;" d="M 170.0625 185.539062 L 219.394531 100.871094 C 219.648438 100.4375 219.867188 100.003906 220.15625 99.585938 C 220.84375 98.621094 221.671875 98.105469 222.882812 98.761719 C 223.996094 99.363281 224.238281 100.378906 223.644531 101.527344 C 223.382812 102.042969 223.082031 102.539062 222.792969 103.046875 C 204.429688 134.554688 186.070312 166.066406 167.710938 197.574219 C 166.921875 198.925781 166.347656 200.40625 164.183594 199.859375 C 161.941406 199.296875 162.046875 197.710938 162.050781 196.015625 C 162.050781 178.808594 162.023438 161.597656 162.101562 144.390625 C 162.101562 142.550781 161.703125 142.109375 159.804688 142.085938 C 157.347656 142.054688 155.507812 142.121094 153.355469 142.132812 C 152 142.132812 151.058594 141.601562 151.035156 140.164062 C 150.996094 138.269531 151.835938 138.296875 154.753906 138.308594 C 157.332031 138.308594 157.402344 138.445312 162.390625 138.308594 C 165.6875 138.214844 166.09375 138.878906 166.078125 140.726562 C 166.058594 145.363281 166.078125 149.992188 166.078125 154.628906 L 166.078125 192.359375 C 167.40625 190.082031 168.734375 187.808594 170.0625 185.539062 Z M 170.0625 185.539062 "/><path style=" stroke:none;fill-rule:nonzero;fill:#ffffff;fill-opacity:1;" d="M 169.023438 216.050781 C 172.328125 216.050781 175.472656 216.070312 178.617188 216.050781 C 180.109375 216.039062 181.382812 216.371094 181.3125 218.140625 C 181.253906 219.71875 180.050781 220.078125 178.664062 220.074219 C 170.308594 220.0625 161.949219 220.0625 153.59375 220.074219 C 152.203125 220.074219 151.054688 219.675781 151.046875 218.050781 C 151.035156 216.425781 152.171875 216.046875 153.574219 216.058594 C 156.394531 216.082031 159.214844 216.011719 162.015625 216.089844 C 163.300781 216.128906 164.109375 215.8125 164.804688 214.609375 C 178.898438 190.183594 193.09375 165.816406 207.074219 141.324219 C 208.480469 138.863281 209.773438 138.042969 212.554688 138.074219 C 215.300781 138.109375 217.847656 138.15625 220.496094 138.113281 C 221.863281 138.09375 222.855469 138.628906 222.910156 140.007812 C 222.96875 141.523438 221.976562 142.199219 220.480469 142.128906 C 220.316406 142.128906 220.148438 142.128906 219.984375 142.128906 C 217.425781 142.042969 214.847656 141.769531 212.707031 142.195312 C 211.953125 142.351562 211.355469 142.742188 210.910156 143.371094 C 209.445312 145.433594 208.117188 147.582031 206.933594 149.816406 C 194.660156 170.992188 182.398438 192.175781 170.148438 213.367188 C 169.714844 214.125 169.027344 214.800781 169.023438 216.050781 Z M 169.023438 216.050781 "/><g style="fill:#ffffff;fill-opacity:1;"><g transform="translate(99.465702, 264.266013)"><path style="stroke:none" d="M 14.984375 0 L 13.6875 0 L 0.40625 -19.65625 L 3.359375 -19.65625 L 14.328125 -3.390625 L 25.328125 -19.65625 L 28.265625 -19.65625 Z M 14.984375 0 "/></g></g><g style="fill:#ffffff;fill-opacity:1;"><g transform="translate(128.136824, 264.266013)"><path style="stroke:none" d="M 5.171875 0 L 5.171875 -19.65625 L 2.734375 -19.65625 L 2.734375 0 Z M 5.171875 0 "/></g></g><g style="fill:#ffffff;fill-opacity:1;"><g transform="translate(136.054601, 264.266013)"><path style="stroke:none" d="M 26.3125 0 L 24.65625 0 L 5.171875 -15.875 L 5.171875 0 L 2.734375 0 L 2.734375 -19.65625 L 4.40625 -19.65625 L 23.875 -3.78125 L 23.875 -19.65625 L 26.3125 -19.65625 Z M 26.3125 0 "/></g></g><g style="fill:#ffffff;fill-opacity:1;"><g transform="translate(165.095584, 264.266013)"><path style="stroke:none" d="M 12.53125 0 L 10.078125 0 L 10.078125 -17.203125 L 0.40625 -17.203125 L 0.40625 -19.65625 L 22.203125 -19.65625 L 22.203125 -17.203125 L 12.53125 -17.203125 Z M 12.53125 0 "/></g></g><g style="fill:#ffffff;fill-opacity:1;"><g transform="translate(187.698236, 264.266013)"><path style="stroke:none" d="M 28.265625 0 L 25.328125 0 L 22.328125 -4.4375 L 6.34375 -4.4375 L 3.359375 0 L 0.40625 0 L 13.6875 -19.65625 L 14.984375 -19.65625 Z M 20.671875 -6.875 L 14.328125 -16.25 L 8 -6.875 Z M 20.671875 -6.875 "/></g></g><g style="fill:#ffffff;fill-opacity:1;"><g transform="translate(216.369358, 264.266013)"><path style="stroke:none" d="M 26.3125 0 L 23.875 0 L 23.875 -5.359375 C 23.875 -5.910156 23.671875 -6.382812 23.265625 -6.78125 C 22.867188 -7.1875 22.394531 -7.390625 21.84375 -7.390625 L 5.171875 -7.390625 L 5.171875 0 L 2.734375 0 L 2.734375 -19.65625 L 21.84375 -19.65625 C 23.070312 -19.65625 24.125 -19.21875 25 -18.34375 C 25.875 -17.46875 26.3125 -16.414062 26.3125 -15.1875 L 26.3125 -11.859375 C 26.3125 -10.578125 25.84375 -9.492188 24.90625 -8.609375 C 25.84375 -7.722656 26.3125 -6.640625 26.3125 -5.359375 Z M 21.84375 -9.828125 C 22.394531 -9.828125 22.867188 -10.023438 23.265625 -10.421875 C 23.671875 -10.816406 23.875 -11.296875 23.875 -11.859375 L 23.875 -15.1875 C 23.875 -15.738281 23.671875 -16.210938 23.265625 -16.609375 C 22.867188 -17.003906 22.394531 -17.203125 21.84375 -17.203125 L 5.171875 -17.203125 L 5.171875 -9.828125 Z M 21.84375 -9.828125 "/></g></g><g style="fill:#ffffff;fill-opacity:1;"><g transform="translate(244.725412, 264.266013)"><path style="stroke:none" d="M 28.265625 0 L 25.328125 0 L 22.328125 -4.4375 L 6.34375 -4.4375 L 3.359375 0 L 0.40625 0 L 13.6875 -19.65625 L 14.984375 -19.65625 Z M 20.671875 -6.875 L 14.328125 -16.25 L 8 -6.875 Z M 20.671875 -6.875 "/></g></g><g style="fill:#ffffff;fill-opacity:1;"><g transform="translate(106.063679, 276.460206)"><path style="stroke:none" d="M 0.953125 -7.1875 L 1.875 -7.1875 L 1.875 0 L 0.953125 0 Z M 0.953125 -7.1875 "/></g></g><g style="fill:#ffffff;fill-opacity:1;"><g transform="translate(115.839085, 276.460206)"><path style="stroke:none" d="M 5.625 -7.1875 L 6.546875 -7.1875 L 6.546875 0 L 5.71875 0 L 1.875 -5.671875 L 1.875 0 L 0.953125 0 L 0.953125 -7.1875 L 1.828125 -7.1875 L 5.625 -1.59375 Z M 5.625 -7.1875 "/></g></g><g style="fill:#ffffff;fill-opacity:1;"><g transform="translate(130.295009, 276.460206)"><path style="stroke:none" d="M 0.234375 -6.34375 L 0.234375 -7.1875 L 5.671875 -7.1875 L 5.671875 -6.34375 L 3.46875 -6.34375 L 3.46875 0 L 2.546875 0 L 2.546875 -6.34375 Z M 0.234375 -6.34375 "/></g></g><g style="fill:#ffffff;fill-opacity:1;"><g transform="translate(143.155981, 276.460206)"><path style="stroke:none" d="M 0.953125 0 L 0.953125 -7.1875 L 5.484375 -7.1875 L 5.46875 -6.375 L 1.875 -6.375 L 1.875 -4.03125 L 5.125 -4.03125 L 5.125 -3.21875 L 1.875 -3.21875 L 1.875 -0.828125 L 5.578125 -0.8125 L 5.578125 0 Z M 0.953125 0 "/></g></g><g style="fill:#ffffff;fill-opacity:1;"><g transform="translate(156.414544, 276.460206)"><path style="stroke:none" d="M 6.09375 0 L 5.109375 0 L 3.796875 -3.09375 L 1.875 -3.09375 L 1.875 0 L 0.953125 0 L 0.953125 -7.1875 L 3.734375 -7.1875 C 4.242188 -7.1875 4.671875 -7.109375 5.015625 -6.953125 C 5.367188 -6.796875 5.628906 -6.566406 5.796875 -6.265625 C 5.972656 -5.972656 6.0625 -5.625 6.0625 -5.21875 C 6.0625 -4.832031 5.992188 -4.507812 5.859375 -4.25 C 5.722656 -3.988281 5.546875 -3.78125 5.328125 -3.625 C 5.117188 -3.46875 4.898438 -3.347656 4.671875 -3.265625 Z M 3.4375 -3.859375 C 3.976562 -3.859375 4.394531 -3.96875 4.6875 -4.1875 C 4.976562 -4.40625 5.125 -4.734375 5.125 -5.171875 C 5.125 -5.585938 4.992188 -5.898438 4.734375 -6.109375 C 4.472656 -6.328125 4.113281 -6.4375 3.65625 -6.4375 L 1.875 -6.4375 L 1.875 -3.859375 Z M 3.4375 -3.859375 "/></g></g><g style="fill:#ffffff;fill-opacity:1;"><g transform="translate(170.100326, 276.460206)"><path style="stroke:none" d="M 5.625 -7.1875 L 6.546875 -7.1875 L 6.546875 0 L 5.71875 0 L 1.875 -5.671875 L 1.875 0 L 0.953125 0 L 0.953125 -7.1875 L 1.828125 -7.1875 L 5.625 -1.59375 Z M 5.625 -7.1875 "/></g></g><g style="fill:#ffffff;fill-opacity:1;"><g transform="translate(184.556251, 276.460206)"><path style="stroke:none" d="M 0.40625 0 L 3.015625 -7.1875 L 4.046875 -7.1875 L 6.640625 0 L 5.703125 0 L 5 -1.96875 L 2.0625 -1.96875 L 1.34375 0 Z M 2.296875 -2.8125 L 4.765625 -2.8125 L 3.53125 -6.28125 Z M 2.296875 -2.8125 "/></g></g><g style="fill:#ffffff;fill-opacity:1;"><g transform="translate(197.804194, 276.460206)"><path style="stroke:none" d="M 0.234375 -6.34375 L 0.234375 -7.1875 L 5.671875 -7.1875 L 5.671875 -6.34375 L 3.46875 -6.34375 L 3.46875 0 L 2.546875 0 L 2.546875 -6.34375 Z M 0.234375 -6.34375 "/></g></g><g style="fill:#ffffff;fill-opacity:1;"><g transform="translate(210.665166, 276.460206)"><path style="stroke:none" d="M 0.953125 -7.1875 L 1.875 -7.1875 L 1.875 0 L 0.953125 0 Z M 0.953125 -7.1875 "/></g></g><g style="fill:#ffffff;fill-opacity:1;"><g transform="translate(220.440571, 276.460206)"><path style="stroke:none" d="M 3.65625 0.09375 C 3.019531 0.09375 2.46875 -0.046875 2 -0.328125 C 1.53125 -0.617188 1.164062 -1.035156 0.90625 -1.578125 C 0.65625 -2.128906 0.53125 -2.796875 0.53125 -3.578125 C 0.53125 -4.359375 0.65625 -5.023438 0.90625 -5.578125 C 1.164062 -6.128906 1.53125 -6.550781 2 -6.84375 C 2.46875 -7.132812 3.019531 -7.28125 3.65625 -7.28125 C 4.289062 -7.28125 4.835938 -7.132812 5.296875 -6.84375 C 5.765625 -6.5625 6.125 -6.144531 6.375 -5.59375 C 6.625 -5.039062 6.75 -4.367188 6.75 -3.578125 C 6.75 -2.796875 6.625 -2.128906 6.375 -1.578125 C 6.125 -1.035156 5.765625 -0.617188 5.296875 -0.328125 C 4.835938 -0.046875 4.289062 0.09375 3.65625 0.09375 Z M 3.65625 -0.703125 C 4.101562 -0.703125 4.476562 -0.800781 4.78125 -1 C 5.09375 -1.207031 5.332031 -1.519531 5.5 -1.9375 C 5.664062 -2.363281 5.75 -2.90625 5.75 -3.5625 C 5.75 -4.238281 5.664062 -4.789062 5.5 -5.21875 C 5.332031 -5.644531 5.09375 -5.960938 4.78125 -6.171875 C 4.46875 -6.378906 4.09375 -6.484375 3.65625 -6.484375 C 3.21875 -6.484375 2.84375 -6.378906 2.53125 -6.171875 C 2.21875 -5.960938 1.972656 -5.640625 1.796875 -5.203125 C 1.628906 -4.773438 1.546875 -4.226562 1.546875 -3.5625 C 1.546875 -2.90625 1.628906 -2.363281 1.796875 -1.9375 C 1.972656 -1.519531 2.21875 -1.207031 2.53125 -1 C 2.84375 -0.800781 3.21875 -0.703125 3.65625 -0.703125 Z M 3.65625 -0.703125 "/></g></g><g style="fill:#ffffff;fill-opacity:1;"><g transform="translate(234.697745, 276.460206)"><path style="stroke:none" d="M 5.625 -7.1875 L 6.546875 -7.1875 L 6.546875 0 L 5.71875 0 L 1.875 -5.671875 L 1.875 0 L 0.953125 0 L 0.953125 -7.1875 L 1.828125 -7.1875 L 5.625 -1.59375 Z M 5.625 -7.1875 "/></g></g><g style="fill:#ffffff;fill-opacity:1;"><g transform="translate(249.15367, 276.460206)"><path style="stroke:none" d="M 0.40625 0 L 3.015625 -7.1875 L 4.046875 -7.1875 L 6.640625 0 L 5.703125 0 L 5 -1.96875 L 2.0625 -1.96875 L 1.34375 0 Z M 2.296875 -2.8125 L 4.765625 -2.8125 L 3.53125 -6.28125 Z M 2.296875 -2.8125 "/></g></g><g style="fill:#ffffff;fill-opacity:1;"><g transform="translate(263.172349, 276.460206)"><path style="stroke:none" d="M 0.953125 -7.1875 L 1.890625 -7.1875 L 1.890625 -0.828125 L 5.28125 -0.828125 L 5.28125 0 L 0.953125 0 Z M 0.953125 -7.1875 "/></g></g></g></svg>