<svg xmlns="http://www.w3.org/2000/svg" xmlns:xlink="http://www.w3.org/1999/xlink" width="500" zoomAndPan="magnify" viewBox="0 0 375 374.999991" height="500" preserveAspectRatio="xMidYMid meet" version="1.2"><defs/><g id="b9bfbb0517"><path style=" stroke:none;fill-rule:nonzero;fill:#ffffff;fill-opacity:1;" d="M 91.992188 176.917969 L 91.992188 217.171875 C 91.992188 217.824219 91.992188 217.824219 92.644531 217.824219 L 135.152344 217.824219 C 135.074219 218.007812 134.914062 217.90625 134.792969 217.90625 C 131.976562 217.914062 129.15625 217.914062 126.339844 217.90625 C 114.996094 217.90625 103.652344 217.910156 92.304688 217.917969 C 91.96875 217.917969 91.890625 217.839844 91.890625 217.503906 C 91.902344 204.105469 91.910156 190.710938 91.90625 177.316406 C 91.90625 177.191406 91.804688 177.015625 91.992188 176.917969 Z M 91.992188 176.917969 "/><path style=" stroke:none;fill-rule:nonzero;fill:#0c4833;fill-opacity:1;" d="M 102.503906 206.789062 L 129.855469 159.851562 C 129.996094 159.609375 130.117188 159.371094 130.277344 159.140625 C 130.660156 158.605469 131.117188 158.320312 131.789062 158.683594 C 132.40625 159.015625 132.542969 159.578125 132.210938 160.21875 C 132.066406 160.5 131.898438 160.777344 131.738281 161.058594 C 121.558594 178.527344 111.378906 195.996094 101.199219 213.464844 C 100.765625 214.214844 100.445312 215.035156 99.246094 214.730469 C 98 214.417969 98.0625 213.539062 98.0625 212.597656 C 98.0625 203.058594 98.046875 193.519531 98.089844 183.980469 C 98.089844 182.960938 97.867188 182.714844 96.816406 182.699219 C 95.453125 182.683594 94.433594 182.722656 93.242188 182.726562 C 92.492188 182.726562 91.96875 182.433594 91.953125 181.636719 C 91.933594 180.585938 92.398438 180.601562 94.019531 180.609375 C 95.449219 180.609375 95.484375 180.683594 98.25 180.609375 C 100.078125 180.554688 100.304688 180.925781 100.296875 181.949219 C 100.285156 184.515625 100.296875 187.085938 100.296875 189.65625 L 100.296875 210.574219 C 101.03125 209.3125 101.769531 208.050781 102.503906 206.789062 Z M 102.503906 206.789062 "/><path style=" stroke:none;fill-rule:nonzero;fill:#0c4833;fill-opacity:1;" d="M 101.929688 223.707031 C 103.761719 223.707031 105.503906 223.71875 107.246094 223.707031 C 108.074219 223.699219 108.78125 223.882812 108.742188 224.867188 C 108.707031 225.742188 108.042969 225.9375 107.273438 225.9375 C 102.640625 225.933594 98.007812 225.933594 93.375 225.9375 C 92.601562 225.9375 91.96875 225.71875 91.960938 224.816406 C 91.953125 223.914062 92.585938 223.703125 93.363281 223.710938 C 94.925781 223.722656 96.488281 223.683594 98.042969 223.730469 C 98.753906 223.75 99.203125 223.574219 99.589844 222.90625 C 107.40625 209.367188 115.273438 195.859375 123.027344 182.28125 C 123.804688 180.914062 124.523438 180.460938 126.0625 180.476562 C 127.585938 180.496094 128.996094 180.523438 130.464844 180.5 C 131.222656 180.488281 131.773438 180.785156 131.804688 181.550781 C 131.835938 182.390625 131.285156 182.765625 130.457031 182.726562 C 130.367188 182.726562 130.273438 182.726562 130.183594 182.726562 C 128.761719 182.675781 127.332031 182.527344 126.148438 182.761719 C 125.730469 182.847656 125.398438 183.066406 125.152344 183.414062 C 124.339844 184.558594 123.605469 185.75 122.945312 186.988281 C 116.144531 198.726562 109.34375 210.472656 102.550781 222.21875 C 102.3125 222.636719 101.929688 223.011719 101.929688 223.707031 Z M 101.929688 223.707031 "/><g style="fill:#0a4732;fill-opacity:1;"><g transform="translate(143.995269, 208.064864)"><path style="stroke:none" d="M 12.359375 0 L 11.28125 0 L 0.34375 -16.1875 L 2.765625 -16.1875 L 11.8125 -2.796875 L 20.859375 -16.1875 L 23.296875 -16.1875 Z M 12.359375 0 "/></g></g><g style="fill:#0a4732;fill-opacity:1;"><g transform="translate(167.632729, 208.064864)"><path style="stroke:none" d="M 4.265625 0 L 4.265625 -16.1875 L 2.265625 -16.1875 L 2.265625 0 Z M 4.265625 0 "/></g></g><g style="fill:#0a4732;fill-opacity:1;"><g transform="translate(174.160417, 208.064864)"><path style="stroke:none" d="M 21.6875 0 L 20.3125 0 L 4.265625 -13.078125 L 4.265625 0 L 2.265625 0 L 2.265625 -16.1875 L 3.625 -16.1875 L 19.671875 -3.109375 L 19.671875 -16.1875 L 21.6875 -16.1875 Z M 21.6875 0 "/></g></g><g style="fill:#0a4732;fill-opacity:1;"><g transform="translate(198.102804, 208.064864)"><path style="stroke:none" d="M 10.328125 0 L 8.3125 0 L 8.3125 -14.1875 L 0.34375 -14.1875 L 0.34375 -16.1875 L 18.296875 -16.1875 L 18.296875 -14.1875 L 10.328125 -14.1875 Z M 10.328125 0 "/></g></g><g style="fill:#0a4732;fill-opacity:1;"><g transform="translate(216.737208, 208.064864)"><path style="stroke:none" d="M 23.296875 0 L 20.859375 0 L 18.390625 -3.65625 L 5.234375 -3.65625 L 2.765625 0 L 0.34375 0 L 11.28125 -16.1875 L 12.34375 -16.1875 Z M 17.03125 -5.671875 L 11.8125 -13.390625 L 6.59375 -5.671875 Z M 17.03125 -5.671875 "/></g></g><g style="fill:#0a4732;fill-opacity:1;"><g transform="translate(240.374668, 208.064864)"><path style="stroke:none" d="M 21.6875 0 L 19.671875 0 L 19.671875 -4.421875 C 19.671875 -4.878906 19.503906 -5.269531 19.171875 -5.59375 C 18.847656 -5.925781 18.457031 -6.09375 18 -6.09375 L 4.265625 -6.09375 L 4.265625 0 L 2.265625 0 L 2.265625 -16.1875 L 18 -16.1875 C 19.007812 -16.1875 19.875 -15.828125 20.59375 -15.109375 C 21.320312 -14.390625 21.6875 -13.523438 21.6875 -12.515625 L 21.6875 -9.765625 C 21.6875 -8.710938 21.300781 -7.820312 20.53125 -7.09375 C 21.300781 -6.363281 21.6875 -5.472656 21.6875 -4.421875 Z M 18 -8.09375 C 18.457031 -8.09375 18.847656 -8.253906 19.171875 -8.578125 C 19.503906 -8.910156 19.671875 -9.304688 19.671875 -9.765625 L 19.671875 -12.515625 C 19.671875 -12.972656 19.503906 -13.363281 19.171875 -13.6875 C 18.847656 -14.019531 18.457031 -14.1875 18 -14.1875 L 4.265625 -14.1875 L 4.265625 -8.09375 Z M 18 -8.09375 "/></g></g><g style="fill:#0a4732;fill-opacity:1;"><g transform="translate(263.752376, 208.064864)"><path style="stroke:none" d="M 23.296875 0 L 20.859375 0 L 18.390625 -3.65625 L 5.234375 -3.65625 L 2.765625 0 L 0.34375 0 L 11.28125 -16.1875 L 12.34375 -16.1875 Z M 17.03125 -5.671875 L 11.8125 -13.390625 L 6.59375 -5.671875 Z M 17.03125 -5.671875 "/></g></g><g style="fill:#0a4732;fill-opacity:1;"><g transform="translate(149.434856, 218.118189)"><path style="stroke:none" d="M 0.78125 -5.9375 L 1.546875 -5.9375 L 1.546875 0 L 0.78125 0 Z M 0.78125 -5.9375 "/></g></g><g style="fill:#0a4732;fill-opacity:1;"><g transform="translate(157.494036, 218.118189)"><path style="stroke:none" d="M 4.640625 -5.9375 L 5.40625 -5.9375 L 5.40625 0 L 4.71875 0 L 1.546875 -4.671875 L 1.546875 0 L 0.78125 0 L 0.78125 -5.9375 L 1.515625 -5.9375 L 4.640625 -1.328125 Z M 4.640625 -5.9375 "/></g></g><g style="fill:#0a4732;fill-opacity:1;"><g transform="translate(169.411998, 218.118189)"><path style="stroke:none" d="M 0.1875 -5.234375 L 0.1875 -5.9375 L 4.671875 -5.9375 L 4.671875 -5.234375 L 2.859375 -5.234375 L 2.859375 0 L 2.109375 0 L 2.109375 -5.234375 Z M 0.1875 -5.234375 "/></g></g><g style="fill:#0a4732;fill-opacity:1;"><g transform="translate(180.015026, 218.118189)"><path style="stroke:none" d="M 0.78125 0 L 0.78125 -5.9375 L 4.53125 -5.9375 L 4.515625 -5.265625 L 1.546875 -5.265625 L 1.546875 -3.328125 L 4.21875 -3.328125 L 4.21875 -2.65625 L 1.546875 -2.65625 L 1.546875 -0.6875 L 4.609375 -0.671875 L 4.609375 0 Z M 0.78125 0 "/></g></g><g style="fill:#0a4732;fill-opacity:1;"><g transform="translate(190.945842, 218.118189)"><path style="stroke:none" d="M 5.03125 0 L 4.21875 0 L 3.140625 -2.5625 L 1.546875 -2.5625 L 1.546875 0 L 0.78125 0 L 0.78125 -5.9375 L 3.078125 -5.9375 C 3.503906 -5.9375 3.859375 -5.867188 4.140625 -5.734375 C 4.429688 -5.609375 4.648438 -5.421875 4.796875 -5.171875 C 4.941406 -4.929688 5.015625 -4.644531 5.015625 -4.3125 C 5.015625 -3.988281 4.957031 -3.71875 4.84375 -3.5 C 4.726562 -3.289062 4.582031 -3.117188 4.40625 -2.984375 C 4.226562 -2.859375 4.046875 -2.757812 3.859375 -2.6875 Z M 2.828125 -3.1875 C 3.273438 -3.1875 3.617188 -3.273438 3.859375 -3.453125 C 4.109375 -3.640625 4.234375 -3.910156 4.234375 -4.265625 C 4.234375 -4.617188 4.125 -4.878906 3.90625 -5.046875 C 3.6875 -5.222656 3.390625 -5.3125 3.015625 -5.3125 L 1.546875 -5.3125 L 1.546875 -3.1875 Z M 2.828125 -3.1875 "/></g></g><g style="fill:#0a4732;fill-opacity:1;"><g transform="translate(202.228872, 218.118189)"><path style="stroke:none" d="M 4.640625 -5.9375 L 5.40625 -5.9375 L 5.40625 0 L 4.71875 0 L 1.546875 -4.671875 L 1.546875 0 L 0.78125 0 L 0.78125 -5.9375 L 1.515625 -5.9375 L 4.640625 -1.328125 Z M 4.640625 -5.9375 "/></g></g><g style="fill:#0a4732;fill-opacity:1;"><g transform="translate(214.146834, 218.118189)"><path style="stroke:none" d="M 0.34375 0 L 2.484375 -5.9375 L 3.34375 -5.9375 L 5.484375 0 L 4.71875 0 L 4.125 -1.625 L 1.703125 -1.625 L 1.109375 0 Z M 1.90625 -2.328125 L 3.921875 -2.328125 L 2.921875 -5.1875 Z M 1.90625 -2.328125 "/></g></g><g style="fill:#0a4732;fill-opacity:1;"><g transform="translate(225.068894, 218.118189)"><path style="stroke:none" d="M 0.1875 -5.234375 L 0.1875 -5.9375 L 4.671875 -5.9375 L 4.671875 -5.234375 L 2.859375 -5.234375 L 2.859375 0 L 2.109375 0 L 2.109375 -5.234375 Z M 0.1875 -5.234375 "/></g></g><g style="fill:#0a4732;fill-opacity:1;"><g transform="translate(235.671922, 218.118189)"><path style="stroke:none" d="M 0.78125 -5.9375 L 1.546875 -5.9375 L 1.546875 0 L 0.78125 0 Z M 0.78125 -5.9375 "/></g></g><g style="fill:#0a4732;fill-opacity:1;"><g transform="translate(243.731103, 218.118189)"><path style="stroke:none" d="M 3.015625 0.078125 C 2.492188 0.078125 2.039062 -0.0351562 1.65625 -0.265625 C 1.269531 -0.503906 0.96875 -0.847656 0.75 -1.296875 C 0.539062 -1.753906 0.4375 -2.304688 0.4375 -2.953125 C 0.4375 -3.597656 0.539062 -4.148438 0.75 -4.609375 C 0.96875 -5.066406 1.269531 -5.414062 1.65625 -5.65625 C 2.039062 -5.894531 2.492188 -6.015625 3.015625 -6.015625 C 3.546875 -6.015625 4 -5.894531 4.375 -5.65625 C 4.757812 -5.414062 5.054688 -5.066406 5.265625 -4.609375 C 5.472656 -4.148438 5.578125 -3.597656 5.578125 -2.953125 C 5.578125 -2.304688 5.472656 -1.753906 5.265625 -1.296875 C 5.054688 -0.847656 4.757812 -0.503906 4.375 -0.265625 C 4 -0.0351562 3.546875 0.078125 3.015625 0.078125 Z M 3.015625 -0.578125 C 3.378906 -0.578125 3.691406 -0.660156 3.953125 -0.828125 C 4.210938 -0.992188 4.410156 -1.25 4.546875 -1.59375 C 4.679688 -1.945312 4.75 -2.394531 4.75 -2.9375 C 4.75 -3.488281 4.675781 -3.941406 4.53125 -4.296875 C 4.394531 -4.660156 4.195312 -4.925781 3.9375 -5.09375 C 3.6875 -5.269531 3.378906 -5.359375 3.015625 -5.359375 C 2.660156 -5.359375 2.351562 -5.269531 2.09375 -5.09375 C 1.832031 -4.914062 1.628906 -4.648438 1.484375 -4.296875 C 1.347656 -3.941406 1.28125 -3.488281 1.28125 -2.9375 C 1.28125 -2.394531 1.347656 -1.945312 1.484375 -1.59375 C 1.628906 -1.25 1.832031 -0.992188 2.09375 -0.828125 C 2.351562 -0.660156 2.660156 -0.578125 3.015625 -0.578125 Z M 3.015625 -0.578125 "/></g></g><g style="fill:#0a4732;fill-opacity:1;"><g transform="translate(255.485209, 218.118189)"><path style="stroke:none" d="M 4.640625 -5.9375 L 5.40625 -5.9375 L 5.40625 0 L 4.71875 0 L 1.546875 -4.671875 L 1.546875 0 L 0.78125 0 L 0.78125 -5.9375 L 1.515625 -5.9375 L 4.640625 -1.328125 Z M 4.640625 -5.9375 "/></g></g><g style="fill:#0a4732;fill-opacity:1;"><g transform="translate(267.40317, 218.118189)"><path style="stroke:none" d="M 0.34375 0 L 2.484375 -5.9375 L 3.34375 -5.9375 L 5.484375 0 L 4.71875 0 L 4.125 -1.625 L 1.703125 -1.625 L 1.109375 0 Z M 1.90625 -2.328125 L 3.921875 -2.328125 L 2.921875 -5.1875 Z M 1.90625 -2.328125 "/></g></g><g style="fill:#0a4732;fill-opacity:1;"><g transform="translate(278.960652, 218.118189)"><path style="stroke:none" d="M 0.78125 -5.9375 L 1.5625 -5.9375 L 1.5625 -0.6875 L 4.359375 -0.6875 L 4.359375 0 L 0.78125 0 Z M 0.78125 -5.9375 "/></g></g></g></svg>