<svg xmlns="http://www.w3.org/2000/svg" xmlns:xlink="http://www.w3.org/1999/xlink" width="76" zoomAndPan="magnify" viewBox="0 0 56.879997 65.04" height="76" preserveAspectRatio="xMidYMid meet" version="1.2"><defs><clipPath id="30fb42d909"><path d="M 2 2.976562 L 53 2.976562 L 53 54 L 2 54 Z M 2 2.976562 "/></clipPath></defs><g id="b09d6046f1"><g clip-rule="nonzero" clip-path="url(#30fb42d909)"><path style=" stroke:none;fill-rule:nonzero;fill:#0c4833;fill-opacity:1;" d="M 27.519531 5.695312 C 28.257812 5.695312 28.996094 5.734375 29.730469 5.804688 C 30.464844 5.878906 31.195312 5.984375 31.921875 6.128906 C 32.648438 6.273438 33.363281 6.453125 34.070312 6.667969 C 34.777344 6.882812 35.472656 7.132812 36.15625 7.414062 C 36.839844 7.695312 37.503906 8.011719 38.15625 8.359375 C 38.808594 8.710938 39.441406 9.089844 40.058594 9.5 C 40.671875 9.910156 41.265625 10.351562 41.835938 10.820312 C 42.40625 11.289062 42.953125 11.785156 43.476562 12.304688 C 44 12.828125 44.496094 13.375 44.964844 13.949219 C 45.433594 14.519531 45.871094 15.113281 46.285156 15.726562 C 46.695312 16.339844 47.074219 16.972656 47.421875 17.625 C 47.769531 18.277344 48.085938 18.945312 48.367188 19.628906 C 48.652344 20.3125 48.902344 21.007812 49.113281 21.714844 C 49.328125 22.421875 49.507812 23.136719 49.652344 23.863281 C 49.796875 24.585938 49.90625 25.316406 49.976562 26.050781 C 50.050781 26.789062 50.085938 27.523438 50.085938 28.265625 C 50.085938 29.003906 50.050781 29.742188 49.976562 30.476562 C 49.90625 31.210938 49.796875 31.941406 49.652344 32.667969 C 49.507812 33.390625 49.328125 34.109375 49.113281 34.816406 C 48.902344 35.523438 48.652344 36.21875 48.367188 36.902344 C 48.085938 37.582031 47.769531 38.25 47.421875 38.902344 C 47.074219 39.554688 46.695312 40.1875 46.285156 40.800781 C 45.871094 41.417969 45.433594 42.011719 44.964844 42.582031 C 44.496094 43.152344 44 43.699219 43.476562 44.222656 C 42.953125 44.746094 42.40625 45.242188 41.835938 45.710938 C 41.265625 46.179688 40.671875 46.617188 40.058594 47.027344 C 39.441406 47.441406 38.808594 47.820312 38.15625 48.167969 C 37.503906 48.515625 36.839844 48.832031 36.15625 49.113281 C 35.472656 49.398438 34.777344 49.644531 34.070312 49.859375 C 33.363281 50.074219 32.648438 50.253906 31.921875 50.398438 C 31.195312 50.542969 30.464844 50.652344 29.730469 50.722656 C 28.996094 50.796875 28.257812 50.832031 27.519531 50.832031 C 26.78125 50.832031 26.042969 50.796875 25.308594 50.722656 C 24.570312 50.652344 23.839844 50.542969 23.117188 50.398438 C 22.390625 50.253906 21.675781 50.074219 20.96875 49.859375 C 20.261719 49.644531 19.566406 49.398438 18.882812 49.113281 C 18.199219 48.832031 17.53125 48.515625 16.878906 48.167969 C 16.226562 47.820312 15.59375 47.441406 14.980469 47.027344 C 14.367188 46.617188 13.773438 46.179688 13.203125 45.710938 C 12.628906 45.242188 12.082031 44.746094 11.5625 44.222656 C 11.039062 43.699219 10.542969 43.152344 10.074219 42.582031 C 9.605469 42.011719 9.164062 41.417969 8.753906 40.800781 C 8.34375 40.1875 7.964844 39.554688 7.617188 38.902344 C 7.265625 38.25 6.953125 37.582031 6.667969 36.902344 C 6.386719 36.21875 6.136719 35.523438 5.921875 34.816406 C 5.707031 34.109375 5.527344 33.390625 5.382812 32.667969 C 5.238281 31.941406 5.132812 31.210938 5.058594 30.476562 C 4.988281 29.742188 4.949219 29.003906 4.949219 28.265625 C 4.949219 27.523438 4.988281 26.789062 5.058594 26.050781 C 5.132812 25.316406 5.238281 24.585938 5.382812 23.863281 C 5.527344 23.136719 5.707031 22.421875 5.921875 21.714844 C 6.136719 21.007812 6.386719 20.3125 6.667969 19.628906 C 6.953125 18.945312 7.265625 18.277344 7.617188 17.625 C 7.964844 16.972656 8.34375 16.339844 8.753906 15.726562 C 9.164062 15.113281 9.605469 14.519531 10.074219 13.949219 C 10.542969 13.375 11.039062 12.828125 11.5625 12.304688 C 12.082031 11.785156 12.628906 11.289062 13.203125 10.820312 C 13.773438 10.351562 14.367188 9.910156 14.980469 9.5 C 15.59375 9.089844 16.226562 8.710938 16.878906 8.359375 C 17.53125 8.011719 18.199219 7.695312 18.882812 7.414062 C 19.566406 7.132812 20.261719 6.882812 20.96875 6.667969 C 21.675781 6.453125 22.390625 6.273438 23.117188 6.128906 C 23.839844 5.984375 24.570312 5.878906 25.308594 5.804688 C 26.042969 5.734375 26.78125 5.695312 27.519531 5.695312 M 27.519531 2.984375 C 26.070312 2.984375 24.632812 3.109375 23.207031 3.355469 C 21.78125 3.601562 20.386719 3.96875 19.023438 4.457031 C 17.660156 4.941406 16.347656 5.542969 15.089844 6.253906 C 13.828125 6.964844 12.640625 7.78125 11.519531 8.695312 C 10.398438 9.613281 9.363281 10.617188 8.414062 11.710938 C 7.46875 12.804688 6.621094 13.972656 5.875 15.210938 C 5.125 16.453125 4.488281 17.746094 3.964844 19.09375 C 3.4375 20.441406 3.03125 21.828125 2.746094 23.246094 C 2.457031 24.664062 2.292969 26.097656 2.25 27.542969 C 2.210938 28.988281 2.292969 30.429688 2.496094 31.863281 C 2.703125 33.296875 3.03125 34.699219 3.476562 36.078125 C 3.921875 37.453125 4.484375 38.78125 5.160156 40.0625 C 5.835938 41.34375 6.613281 42.554688 7.496094 43.703125 C 8.382812 44.847656 9.355469 45.910156 10.421875 46.890625 C 11.488281 47.871094 12.628906 48.75 13.847656 49.535156 C 15.066406 50.316406 16.339844 50.988281 17.671875 51.554688 C 18.4375 51.875 19.210938 52.160156 20.003906 52.40625 C 20.792969 52.652344 21.59375 52.859375 22.40625 53.027344 C 23.21875 53.195312 24.035156 53.320312 24.859375 53.410156 C 25.679688 53.496094 26.507812 53.542969 27.335938 53.546875 C 28.164062 53.554688 28.988281 53.519531 29.8125 53.445312 C 30.640625 53.367188 31.457031 53.253906 32.269531 53.097656 C 33.085938 52.941406 33.886719 52.746094 34.683594 52.511719 C 35.476562 52.277344 36.257812 52.003906 37.023438 51.691406 C 37.792969 51.382812 38.542969 51.03125 39.277344 50.648438 C 40.007812 50.261719 40.722656 49.84375 41.414062 49.386719 C 42.105469 48.933594 42.773438 48.445312 43.417969 47.921875 C 44.058594 47.402344 44.675781 46.851562 45.265625 46.269531 C 45.855469 45.6875 46.417969 45.078125 46.945312 44.445312 C 47.476562 43.808594 47.972656 43.144531 48.4375 42.460938 C 48.902344 41.777344 49.332031 41.070312 49.730469 40.339844 C 50.125 39.613281 50.484375 38.867188 50.804688 38.105469 C 51.128906 37.34375 51.414062 36.566406 51.660156 35.777344 C 51.90625 34.984375 52.113281 34.183594 52.277344 33.375 C 52.445312 32.5625 52.574219 31.746094 52.660156 30.921875 C 52.746094 30.097656 52.792969 29.273438 52.800781 28.445312 C 52.804688 27.617188 52.769531 26.789062 52.695312 25.964844 C 52.621094 25.140625 52.503906 24.320312 52.347656 23.507812 C 52.195312 22.695312 52 21.890625 51.765625 21.097656 C 51.527344 20.300781 51.257812 19.523438 50.945312 18.753906 C 50.632812 17.988281 50.285156 17.238281 49.898438 16.503906 C 49.515625 15.769531 49.09375 15.058594 48.640625 14.367188 C 48.183594 13.675781 47.695312 13.007812 47.175781 12.363281 C 46.65625 11.71875 46.105469 11.101562 45.523438 10.511719 C 44.941406 9.921875 44.332031 9.363281 43.695312 8.832031 C 43.058594 8.304688 42.398438 7.804688 41.714844 7.339844 C 41.027344 6.875 40.320312 6.445312 39.59375 6.050781 C 38.867188 5.652344 38.121094 5.296875 37.359375 4.972656 C 34.214844 3.640625 30.933594 2.980469 27.519531 2.984375 Z M 27.519531 2.984375 "/></g><path style=" stroke:none;fill-rule:nonzero;fill:#0c4833;fill-opacity:1;" d="M 36.410156 23.089844 L 29.699219 20.507812 C 29.082031 20.269531 28.449219 20.199219 27.796875 20.289062 C 27.140625 20.382812 26.550781 20.628906 26.027344 21.023438 L 19.878906 25.632812 C 19.757812 25.722656 19.699219 25.839844 19.699219 25.988281 C 19.699219 26.136719 19.757812 26.253906 19.875 26.34375 C 20.15625 26.554688 20.460938 26.710938 20.792969 26.820312 C 21.125 26.933594 21.464844 26.988281 21.8125 26.988281 C 22.164062 26.988281 22.503906 26.933594 22.835938 26.820312 C 23.167969 26.710938 23.472656 26.554688 23.753906 26.34375 L 26.269531 24.457031 C 26.570312 24.230469 26.902344 24.058594 27.265625 23.9375 C 27.625 23.816406 27.992188 23.757812 28.371094 23.757812 C 28.75 23.757812 29.121094 23.816406 29.480469 23.9375 C 29.839844 24.058594 30.171875 24.230469 30.476562 24.457031 L 39.421875 31.183594 C 40.007812 31.613281 40.363281 32.183594 40.488281 32.902344 L 40.488281 32.917969 C 40.511719 33.050781 40.574219 33.160156 40.679688 33.25 C 40.78125 33.335938 40.902344 33.378906 41.035156 33.375 L 48.097656 33.375 C 49.042969 29.535156 48.933594 25.726562 47.761719 21.949219 L 39.824219 23.40625 C 38.65625 23.621094 37.515625 23.515625 36.410156 23.089844 Z M 36.410156 23.089844 "/><path style=" stroke:none;fill-rule:nonzero;fill:#0c4833;fill-opacity:1;" d="M 38.648438 32.230469 L 29.699219 25.496094 C 29.304688 25.199219 28.863281 25.050781 28.371094 25.050781 C 27.878906 25.050781 27.4375 25.199219 27.042969 25.496094 L 24.527344 27.382812 C 24.132812 27.675781 23.707031 27.898438 23.242188 28.050781 C 22.777344 28.207031 22.300781 28.285156 21.8125 28.285156 C 21.320312 28.285156 20.84375 28.207031 20.378906 28.050781 C 19.917969 27.898438 19.488281 27.675781 19.097656 27.382812 C 18.613281 27.023438 18.382812 26.539062 18.40625 25.9375 C 18.433594 25.359375 18.683594 24.902344 19.148438 24.5625 L 23.484375 21.308594 C 23.65625 21.179688 23.6875 21.019531 23.589844 20.835938 C 23.488281 20.648438 23.339844 20.589844 23.140625 20.65625 L 16.007812 23.148438 C 14.898438 23.535156 13.769531 23.609375 12.621094 23.367188 L 7.191406 22.226562 C 6.097656 25.921875 6.015625 29.636719 6.941406 33.378906 L 13.261719 33.378906 C 13.695312 33.378906 13.847656 33.445312 13.972656 33.621094 C 14.699219 34.628906 15.535156 35.542969 16.476562 36.351562 C 17.421875 37.164062 18.445312 37.855469 19.554688 38.421875 C 20.660156 38.992188 21.820312 39.421875 23.027344 39.714844 C 24.238281 40.007812 25.464844 40.15625 26.707031 40.160156 L 26.75 40.160156 C 26.949219 40.160156 27.128906 40.105469 27.289062 39.988281 C 27.449219 39.871094 27.554688 39.71875 27.613281 39.527344 C 27.679688 39.34375 27.683594 39.160156 27.632812 38.972656 C 27.582031 38.785156 27.480469 38.628906 27.332031 38.503906 L 26.039062 37.53125 C 25.894531 37.429688 25.804688 37.292969 25.769531 37.117188 C 25.738281 36.945312 25.765625 36.785156 25.859375 36.632812 C 25.960938 36.476562 26.105469 36.386719 26.289062 36.355469 C 26.472656 36.324219 26.640625 36.363281 26.789062 36.476562 L 28.066406 37.4375 C 28.089844 37.453125 28.109375 37.46875 28.128906 37.488281 L 30.300781 39.125 C 30.535156 39.300781 30.800781 39.390625 31.09375 39.390625 C 31.386719 39.390625 31.648438 39.300781 31.882812 39.125 C 32.050781 39.003906 32.179688 38.847656 32.273438 38.664062 C 32.367188 38.480469 32.417969 38.285156 32.417969 38.078125 C 32.421875 37.871094 32.375 37.675781 32.285156 37.488281 C 32.195312 37.300781 32.066406 37.144531 31.90625 37.019531 L 29.285156 35.054688 C 29.160156 34.964844 29.074219 34.839844 29.035156 34.6875 C 28.996094 34.535156 29.007812 34.386719 29.070312 34.242188 C 29.113281 34.15625 29.171875 34.082031 29.246094 34.019531 C 29.324219 33.957031 29.410156 33.917969 29.503906 33.894531 C 29.597656 33.871094 29.691406 33.867188 29.789062 33.886719 C 29.882812 33.90625 29.96875 33.945312 30.046875 34.003906 L 32.675781 35.984375 L 32.6875 35.992188 L 34.152344 37.09375 C 34.378906 37.273438 34.636719 37.367188 34.925781 37.382812 C 35.214844 37.394531 35.480469 37.324219 35.722656 37.171875 C 35.898438 37.050781 36.039062 36.898438 36.144531 36.714844 C 36.246094 36.527344 36.300781 36.328125 36.308594 36.113281 C 36.316406 35.902344 36.273438 35.699219 36.183594 35.507812 C 36.09375 35.3125 35.964844 35.152344 35.796875 35.019531 L 32.488281 32.535156 C 32.363281 32.441406 32.28125 32.320312 32.242188 32.171875 C 32.199219 32.019531 32.210938 31.875 32.273438 31.730469 C 32.316406 31.644531 32.375 31.570312 32.449219 31.507812 C 32.527344 31.445312 32.613281 31.40625 32.707031 31.382812 C 32.800781 31.359375 32.894531 31.355469 32.992188 31.378906 C 33.085938 31.398438 33.171875 31.4375 33.25 31.496094 L 36.5625 33.988281 L 36.578125 34 L 37.058594 34.363281 C 37.199219 34.464844 37.351562 34.539062 37.519531 34.585938 C 37.6875 34.632812 37.859375 34.644531 38.03125 34.628906 C 38.207031 34.609375 38.371094 34.558594 38.527344 34.480469 C 38.679688 34.398438 38.816406 34.292969 38.929688 34.160156 C 39.160156 33.878906 39.253906 33.554688 39.214844 33.191406 C 39.164062 32.789062 38.976562 32.46875 38.648438 32.230469 Z M 38.648438 32.230469 "/></g></svg>