<svg xmlns="http://www.w3.org/2000/svg" xmlns:xlink="http://www.w3.org/1999/xlink" width="76" zoomAndPan="magnify" viewBox="0 0 56.879997 65.04" height="76" preserveAspectRatio="xMidYMid meet" version="1.2"><defs><clipPath id="5b2ce1e06b"><path d="M 0.355469 1.816406 L 56.40625 1.816406 L 56.40625 54.292969 L 0.355469 54.292969 Z M 0.355469 1.816406 "/></clipPath></defs><g id="b2d0de3a33"><g clip-rule="nonzero" clip-path="url(#5b2ce1e06b)"><path style=" stroke:none;fill-rule:evenodd;fill:#0c4833;fill-opacity:1;" d="M 28.289062 12.199219 C 24.546875 12.199219 21.511719 15.234375 21.511719 18.976562 C 21.511719 22.722656 24.546875 25.757812 28.289062 25.757812 C 32.035156 25.757812 35.070312 22.722656 35.070312 18.976562 C 35.070312 15.234375 32.035156 12.199219 28.289062 12.199219 Z M 46.289062 14.859375 C 42.246094 9.296875 35.691406 5.683594 28.289062 5.683594 C 14.503906 5.683594 4.082031 18.078125 6.355469 31.632812 L 7.910156 31.09375 C 8.296875 30.960938 8.6875 31.324219 8.550781 31.730469 L 6.601562 37.527344 C 6.496094 37.839844 6.125 37.96875 5.851562 37.789062 L 0.730469 34.4375 C 0.375 34.207031 0.457031 33.675781 0.839844 33.542969 L 2.648438 32.917969 C 2.335938 31.300781 2.171875 29.632812 2.171875 27.925781 C 2.171875 13.503906 13.867188 1.808594 28.289062 1.808594 C 36.980469 1.808594 44.675781 6.054688 49.425781 12.582031 Z M 10.289062 40.996094 C 14.332031 46.554688 20.886719 50.167969 28.289062 50.167969 C 42.078125 50.167969 52.5 37.773438 50.226562 24.21875 L 48.667969 24.757812 C 48.28125 24.890625 47.890625 24.527344 48.027344 24.121094 L 49.976562 18.324219 C 50.082031 18.011719 50.453125 17.882812 50.730469 18.0625 L 55.847656 21.414062 C 56.207031 21.648438 56.125 22.175781 55.738281 22.308594 L 53.929688 22.933594 C 54.242188 24.550781 54.40625 26.21875 54.40625 27.925781 C 54.40625 42.347656 42.714844 54.042969 28.289062 54.042969 C 19.601562 54.042969 11.902344 49.796875 7.15625 43.269531 Z M 15.78125 38.011719 C 15.742188 38.523438 16.140625 38.953125 16.65625 38.953125 L 39.925781 38.953125 C 40.4375 38.953125 40.835938 38.523438 40.796875 38.011719 C 40.3125 31.550781 34.871094 26.410156 28.289062 26.410156 C 21.707031 26.410156 16.265625 31.550781 15.78125 38.011719 Z M 15.78125 38.011719 "/></g></g></svg>