<svg xmlns="http://www.w3.org/2000/svg" xmlns:xlink="http://www.w3.org/1999/xlink" width="76" zoomAndPan="magnify" viewBox="0 0 56.879997 65.04" height="76" preserveAspectRatio="xMidYMid meet" version="1.2"><defs><clipPath id="46242901c7"><path d="M 0.355469 0 L 55.046875 0 L 55.046875 54.691406 L 0.355469 54.691406 Z M 0.355469 0 "/></clipPath></defs><g id="1e5d6834dc"><path style=" stroke:none;fill-rule:nonzero;fill:#0c4833;fill-opacity:1;" d="M 39.125 17.472656 C 39.039062 17.152344 38.824219 16.894531 38.519531 16.734375 C 38.585938 16.019531 38.488281 15.144531 38.324219 14.417969 C 38.179688 13.828125 37.957031 13.164062 37.613281 12.46875 C 37.253906 11.789062 36.8125 11.058594 36.1875 10.390625 C 35.59375 9.695312 34.832031 9.0625 33.96875 8.503906 C 26.453125 3.738281 16.074219 9.378906 16.882812 16.738281 C 16.578125 16.894531 16.367188 17.15625 16.28125 17.472656 C 14.5 17.503906 13.070312 18.828125 13.070312 20.457031 C 13.070312 22.089844 14.5 23.414062 16.28125 23.445312 C 16.421875 23.960938 16.90625 24.351562 17.515625 24.351562 C 18.234375 24.351562 18.816406 23.820312 18.816406 23.160156 L 18.816406 17.757812 C 18.816406 17.382812 18.617188 17.0625 18.324219 16.84375 C 18.648438 14.984375 19.613281 13.019531 20.96875 11.796875 C 22.960938 9.859375 26.417969 8.738281 30.214844 9.582031 C 31.671875 10.019531 33.109375 10.75 34.308594 11.921875 C 35.644531 13.121094 36.726562 14.917969 37.078125 16.847656 C 36.308594 17.417969 36.585938 17.910156 36.585938 23.160156 C 36.585938 23.570312 36.828125 23.917969 37.175781 24.132812 L 37.175781 24.589844 C 37.175781 24.878906 37.09375 25.164062 36.9375 25.410156 C 35.234375 28.054688 35.125 28.328125 32.558594 29.148438 C 31.75 29.40625 30.839844 29.515625 29.917969 29.742188 C 29.070312 28.902344 27.570312 29.453125 27.570312 30.578125 C 27.570312 31.996094 29.785156 32.320312 30.214844 30.902344 C 30.835938 30.75 31.476562 30.664062 32.078125 30.476562 C 35.390625 29.472656 36.472656 28.875 38.222656 25.527344 C 38.390625 25.210938 38.476562 24.863281 38.476562 24.503906 L 38.476562 24.207031 C 38.800781 24.054688 39.035156 23.78125 39.125 23.445312 C 40.902344 23.414062 42.332031 22.089844 42.332031 20.457031 C 42.332031 18.828125 40.902344 17.507812 39.125 17.472656 "/><path style=" stroke:none;fill-rule:nonzero;fill:#0c4833;fill-opacity:1;" d="M 27.707031 36.792969 C 28.769531 35.300781 29.691406 34.019531 30.601562 32.722656 C 31.664062 31.207031 32.734375 30.714844 34.414062 31.28125 C 36.546875 32.003906 38.660156 32.808594 40.722656 33.703125 C 42.496094 34.480469 43.492188 35.859375 43.382812 37.902344 C 43.324219 38.910156 43.382812 39.921875 43.367188 40.929688 C 43.332031 43.710938 42.066406 45.003906 39.3125 45.019531 C 35.757812 45.039062 32.203125 45.023438 28.648438 45.023438 C 24.511719 45.023438 20.382812 45.035156 16.25 45.019531 C 13.296875 45.007812 12.050781 43.746094 12.035156 40.804688 C 12.027344 39.847656 12.082031 38.878906 12.023438 37.921875 C 11.890625 35.796875 12.988281 34.425781 14.796875 33.644531 C 16.863281 32.753906 18.988281 31.976562 21.125 31.269531 C 22.945312 30.664062 23.511719 30.933594 24.640625 32.515625 C 25.609375 33.875 26.585938 35.234375 27.707031 36.792969 "/><path style=" stroke:none;fill-rule:nonzero;fill:#0c4833;fill-opacity:1;" d="M 35.234375 19.046875 C 35.042969 21.554688 34.25 24.761719 31.621094 27.230469 C 29.390625 29.320312 25.988281 29.375 23.796875 27.230469 C 20.753906 24.261719 19.796875 20.488281 20.265625 16.414062 C 20.515625 14.28125 21.8125 12.601562 23.996094 11.886719 C 27.242188 10.824219 30.382812 10.722656 33.246094 12.988281 C 34.914062 14.3125 35.296875 16.132812 35.234375 19.046875 "/><g clip-rule="nonzero" clip-path="url(#46242901c7)"><path style=" stroke:none;fill-rule:nonzero;fill:#0c4833;fill-opacity:1;" d="M 27.699219 52.550781 C 13.78125 52.550781 2.496094 41.265625 2.496094 27.347656 C 2.496094 13.425781 13.78125 2.140625 27.699219 2.140625 C 41.621094 2.140625 52.90625 13.425781 52.90625 27.347656 C 52.90625 41.265625 41.621094 52.550781 27.699219 52.550781 Z M 27.699219 0 C 12.597656 0 0.355469 12.242188 0.355469 27.347656 C 0.355469 42.449219 12.597656 54.691406 27.699219 54.691406 C 42.804688 54.691406 55.046875 42.449219 55.046875 27.347656 C 55.046875 12.242188 42.804688 0 27.699219 0 "/></g></g></svg>